<svg width="610" height="508" viewBox="0 0 610 508" fill="none" xmlns="http://www.w3.org/2000/svg">
<g clip-path="url(#clip0_13_300)">
<path d="M548.841 355.127C548.793 355.127 548.744 355.134 548.695 355.134L549.125 347.682H511.217L513.044 379.296C513.385 385.222 518.29 389.852 524.228 389.852H536.117C542.052 389.852 546.957 385.222 547.301 379.296L547.722 372C548.091 372.034 548.463 372.055 548.844 372.055C554.38 372.055 558.882 368.258 558.882 363.591C558.879 358.925 554.377 355.127 548.841 355.127ZM548.841 368.547C548.527 368.547 548.222 368.526 547.92 368.493L548.491 358.644C548.607 358.638 548.722 358.632 548.841 358.632C552.444 358.632 555.372 360.855 555.372 363.591C555.372 366.324 552.444 368.547 548.841 368.547Z" fill="#5DB3BF"/>
<path d="M534.009 344.815C530.291 344.333 526.784 342.177 524.396 339.103C523.203 337.559 522.251 335.781 521.724 333.848C521.571 333.369 521.483 332.881 521.376 332.393C521.309 331.902 521.214 331.408 521.187 330.913C521.083 329.922 521.123 328.928 521.202 327.94C521.397 325.966 521.937 324.033 522.819 322.255C523.255 321.364 523.776 320.513 524.38 319.726C524.969 318.936 525.68 318.186 526.351 317.573C527.019 316.951 527.662 316.414 528.211 315.877C528.492 315.612 528.748 315.349 528.974 315.078C529.202 314.803 529.398 314.529 529.541 314.273C529.861 313.736 530.053 313.074 530.072 312.452C530.093 311.824 529.95 311.25 529.544 310.78L530.499 309.39C531.011 309.646 531.462 310.061 531.804 310.539C532.136 311.024 532.359 311.567 532.493 312.113C532.753 313.217 532.673 314.334 532.344 315.407C531.587 317.561 530.151 318.967 529.08 320.226C528.537 320.861 528.092 321.422 527.696 322.065C527.485 322.373 527.314 322.709 527.122 323.029C526.964 323.368 526.778 323.694 526.64 324.045C526.033 325.414 525.661 326.887 525.494 328.376C525.176 331.371 525.826 334.363 527.418 336.995C529.025 339.612 531.459 341.805 534.461 343.193L534.009 344.815Z" fill="#E5ECFF"/>
<path d="M535.144 335.943C536.669 334.592 537.904 333.134 538.843 331.536C539.789 329.947 540.436 328.242 540.731 326.506C541.024 324.771 540.978 322.959 540.649 321.147C540.31 319.333 539.673 317.545 538.743 315.718L539.972 314.562C541.942 315.819 543.428 317.826 544.294 320.062C545.169 322.303 545.422 324.826 544.974 327.26C544.529 329.693 543.4 331.95 541.814 333.75C540.225 335.537 538.16 336.91 535.9 337.45L535.144 335.943Z" fill="#E5ECFF"/>
<path d="M235.899 397.376C187.49 388.003 153.296 359.797 137.424 316.103C112.176 246.599 139.229 144.141 211.603 121.632C240.267 112.716 275.464 128.68 304.912 128.464C346.273 128.159 383.464 102.777 424.551 106.013C478.042 110.225 517.14 159.503 527.171 209.502C530.615 226.664 531.014 244.425 528.257 261.7C525.262 280.473 519.162 298.864 509.905 315.13C501.929 329.144 483.486 347.698 467.797 351.434C467.797 351.434 235.899 397.376 235.899 397.376Z" stroke="#5DB3BF" stroke-width="3.8197" stroke-miterlimit="10"/>
<path d="M365.482 389.614C413.324 377.801 449.881 342.125 462.487 301.304C482.537 236.37 447.63 145.013 373.332 129.449C358.241 126.289 342.335 127.088 327.024 128.857C302.014 131.748 276.357 135.381 251.152 134.576C226.639 133.792 202.871 126.588 178.166 127.143C96.5203 128.982 47.6257 206.949 66.3649 278.347C70.7935 295.219 78.3057 311.534 88.8251 325.701C97.8897 337.907 117.794 353.532 133.813 355.865C133.813 355.868 365.482 389.614 365.482 389.614Z" stroke="#5DB3BF" stroke-width="3.75" stroke-miterlimit="10"/>
<path d="M485.548 311.714C472.713 348.848 457.387 385.515 404.082 399.676L173.676 397.227C121.756 372.705 93.3849 324.286 88.6665 272.048C87.1049 254.785 88.1267 237.095 91.747 219.726C92.6925 215.151 93.821 210.597 95.1325 206.086C107.034 165.048 132.23 126.359 169.705 104.536C193.785 90.5124 224.651 95.1423 250.225 102.34C273.283 108.831 295.807 117.92 319.613 120.656C338.577 122.83 357.869 120.9 376.892 121.647C383.699 121.912 390.464 122.522 397.174 123.782C425.911 129.18 451.388 146.803 468.87 170.365C474.894 178.462 479.966 187.261 483.907 196.503C499.303 232.652 498.382 274.58 485.548 311.714Z" fill="#FFEEC7"/>
<path d="M47.2629 367.943C46.2137 355.185 53.3568 341.433 65.9045 332.045C77.3328 323.499 91.433 319.14 104.969 315.706C180.176 296.616 259.613 298.895 336.436 301.097C405.092 303.067 476.084 305.101 544.05 291.937C553.724 290.065 563.896 287.783 572.549 282.415C581.845 276.648 587.732 267.611 587.912 258.836C588.244 242.378 570.417 231.099 559.76 225.841C519.29 205.87 469.493 198.357 403.051 202.194C353.05 205.083 302.896 213.135 253.98 226.125C242.987 229.043 231.821 232.273 221.021 235.394C182.36 246.572 142.386 258.125 101.611 258.125C101.406 258.125 101.202 258.125 100.998 258.125C89.9293 258.095 75.7194 255.853 70.876 245.352C67.46 237.94 70.3331 229.498 73.3465 223.721C83.4176 204.412 102.471 193.157 116.681 187.115C132.645 180.329 149.99 176.641 166.765 173.073C168.757 172.649 170.748 172.225 172.734 171.798C210.209 163.725 247.666 153.629 284.065 141.786C301.337 136.165 310.203 128.857 311.164 119.445C312.018 111.097 305.891 103.783 299.44 100.242C291.708 95.9964 282.576 95.4474 275.482 95.4413C275.449 95.4413 275.415 95.4413 275.382 95.4413C253.974 95.4413 232.733 100.693 213.939 110.636C206.958 114.33 200.22 118.722 193.709 122.971C185.083 128.595 176.165 134.411 166.554 138.69C147.965 146.962 125.959 150.009 101.144 147.746C81.9871 145.998 67.3837 141.295 56.4983 133.365C49.9316 128.579 44.4508 122.409 39.1499 116.441C32.7083 109.188 26.0471 101.688 17.4888 96.8138L18.0561 95.8195C26.7791 100.785 33.5043 108.358 40.0069 115.681C45.2682 121.604 50.7063 127.729 57.1723 132.441C67.8839 140.246 82.3013 144.879 101.248 146.608C125.861 148.853 147.681 145.836 166.091 137.647C175.622 133.408 184.501 127.616 193.086 122.016C199.623 117.752 206.381 113.345 213.409 109.627C232.364 99.5984 253.794 94.3006 275.385 94.3006C275.418 94.3006 275.452 94.3006 275.485 94.3006C282.714 94.3067 292.034 94.874 299.992 99.2416C306.775 102.966 313.211 110.694 312.305 119.564C311.289 129.476 302.17 137.101 284.419 142.875C247.986 154.73 210.49 164.838 172.975 172.917C170.986 173.344 168.994 173.768 167.003 174.192C150.274 177.749 132.983 181.427 117.12 188.167C103.081 194.133 84.2685 205.238 74.353 224.249C71.4585 229.8 68.683 237.882 71.9069 244.873C76.4971 254.825 90.2557 256.951 100.992 256.981C101.193 256.981 101.4 256.981 101.602 256.981C142.215 256.981 182.106 245.449 220.695 234.296C231.498 231.172 242.673 227.942 253.678 225.02C302.67 212.009 352.9 203.945 402.978 201.054C469.627 197.201 519.604 204.753 560.261 224.816C571.161 230.196 589.397 241.771 589.05 258.86C588.864 268.019 582.77 277.419 573.147 283.388C564.326 288.86 554.042 291.166 544.26 293.06C476.172 306.245 405.113 304.211 336.397 302.24C259.656 300.041 180.298 297.766 105.243 316.816C91.8234 320.223 77.8513 324.536 66.5846 332.963C54.3511 342.116 47.3818 355.484 48.4005 367.852L47.2629 367.943Z" fill="white"/>
<path d="M379.725 368.392C395.28 372.381 416.654 375.956 409.841 389.257L371.087 389.22L379.725 368.392Z" fill="#5DB3BF"/>
<path d="M218.825 399.679H181.338C168.537 399.679 158.161 389.303 158.161 376.502V299.941C158.161 287.14 168.537 276.764 181.338 276.764H218.825C231.626 276.764 242.002 287.14 242.002 299.941V376.502C242.002 389.303 231.623 399.679 218.825 399.679Z" fill="#102048"/>
<path opacity="0.8" d="M176.83 288.095C175.421 288.464 174.472 289.748 173.838 291.062C173.188 292.398 172.786 293.862 172.459 295.329C171.822 298.275 171.523 301.301 171.355 304.33C171.047 310.39 171.172 316.481 171.544 322.55C171.889 328.623 172.447 334.689 173.179 340.731C173.533 343.754 173.942 346.77 174.408 349.781C174.854 352.791 175.357 355.795 175.97 358.778L175.534 358.876C174.805 355.908 174.179 352.916 173.621 349.912C173.088 346.905 172.612 343.885 172.191 340.86C171.373 334.805 170.773 328.717 170.416 322.614C170.105 316.511 169.952 310.384 170.394 304.266C170.629 301.21 170.977 298.15 171.709 295.149C172.096 293.658 172.56 292.169 173.295 290.785C173.664 290.095 174.1 289.427 174.661 288.86C175.219 288.293 175.93 287.835 176.732 287.661L176.83 288.095Z" fill="white"/>
<path d="M191.171 296.195C191.171 296.195 193.544 344.303 208.477 397.227H249.283L191.171 296.195Z" fill="#1F3C88"/>
<path d="M209.889 271.637C199.635 266.058 196.823 252.239 204.31 243.263C205.03 242.399 205.832 241.524 206.717 240.643C218.157 229.248 211.03 217.844 209.431 191.626C207.833 165.433 237.013 158.28 237.071 158.265C238.446 157.93 241.109 154.001 242.234 153.025C255.404 141.603 274.296 142.445 288.734 151.14C295.603 155.276 302.514 161.648 306.232 168.952C312.128 180.542 313.195 195.811 323.123 204.836C337.278 217.7 352.977 228.622 352.342 249.372C352.117 256.743 350.271 264.53 345.782 270.438C341.865 275.586 335.903 279.042 330.523 282.373C321.775 287.786 312.54 292.575 302.771 295.79C293.313 298.904 283.751 301.701 274.165 304.369C273.259 304.622 272.353 304.872 271.444 305.12L209.889 271.637Z" fill="#6F3428"/>
<path d="M276.617 260.306C310.89 248.539 329.504 286.899 355.099 361.746L379.728 368.392L376.867 395.046L367.882 396.919L294.511 397.227L276.617 260.306Z" fill="#5DB3BF"/>
<path d="M568.618 388.394H47.4824V406.355H568.618V388.394Z" fill="#5DB3BF"/>
<path d="M228.335 254.731L304.979 273.912L337.178 370.399L229.607 373.678L222.491 302.335L228.335 254.731Z" fill="#5DB3BF"/>
<path opacity="0.3" d="M231.038 296.195C249.868 315.151 245.705 342.931 261.791 345.688C272.438 347.512 302.703 351.837 317.142 357.854C320.061 359.071 328.122 365.067 326.875 370.384C326.07 373.812 315.327 371.067 315.327 371.067L234.905 362.996L217.874 323.59L231.038 296.195Z" fill="#1F3C88"/>
<path d="M297.192 365.684C297.738 364.82 309.27 362.536 310.572 362.713C314.861 363.298 317.203 366.66 318.237 369.228L301.175 378.225L297.192 365.684Z" fill="#102048"/>
<path d="M309.956 296.11L311.936 300.621C312.585 302.128 313.195 303.653 313.827 305.171C315.041 308.221 316.215 311.293 317.316 314.389C319.545 320.571 321.519 326.839 323.37 333.143C325.188 339.457 326.823 345.822 328.268 352.23C328.964 355.442 329.641 358.656 330.239 361.886C330.824 365.119 331.328 368.367 331.755 371.625L331.331 371.686C330.794 368.453 330.178 365.235 329.488 362.036C328.83 358.827 328.095 355.634 327.338 352.446C325.819 346.072 324.151 339.737 322.327 333.445C320.537 327.144 318.545 320.9 316.444 314.697C315.407 311.589 314.278 308.514 313.137 305.443C312.555 303.912 311.997 302.372 311.396 300.847L309.563 296.284L309.956 296.11Z" fill="#102048"/>
<path d="M371.219 381.964C371.219 381.964 367.995 385.777 357.814 382.062C353.019 382.62 344.098 382.193 327.131 379.424C327.131 379.424 333.292 383.73 347.221 384.472C347.221 384.472 346.626 388.574 339.285 388.391C330.446 388.168 329.427 387.634 321.375 387.97C319.728 388.04 316.145 387.964 312.262 387.842C305.491 387.622 297.799 387.262 297.799 387.262L291.089 375.27L304.478 368.855C308.59 367.245 310.639 366.69 312.637 366.409C321.284 365.18 326.743 364.204 332.944 365.272C339.828 366.455 360.864 373.43 371.219 381.964Z" fill="#F9B384"/>
<path d="M312.637 387.637L312.265 387.845C305.494 387.625 297.802 387.265 297.802 387.265L291.092 375.273L304.482 368.859C308.593 367.248 310.643 366.693 312.64 366.413C307.715 368.416 303.686 373.678 312.637 387.637Z" fill="#5DB3BF"/>
<path d="M259.927 260.175C242.505 256.606 200.053 253.636 188.191 275.614C178.425 293.71 202.904 354.301 213.509 375.614C217.874 384.386 230.546 388.726 235.475 388.76L305.47 388.357C300.76 387.265 294.725 361.996 310.575 362.713L252.607 354.636C250.347 354.322 248.331 353.06 247.071 351.156C246.233 349.888 245.26 348.286 244.762 346.468L228.311 286.2L259.927 260.175Z" fill="#5DB3BF"/>
<path d="M414.8 388.76L346.51 388.717V382.275H415.197L414.8 388.76Z" fill="white"/>
<path d="M472.497 388.76L390.12 388.735L420.168 300.871L502.546 300.895L472.497 388.76Z" fill="#102048"/>
<path d="M452.968 349.506C450.443 353.538 445.724 355.195 442.125 353.426C441.912 353.328 441.704 353.212 441.5 353.084C437.831 350.796 437.032 345.474 439.7 341.213C442.369 336.943 447.502 335.342 451.168 337.636C452.276 338.328 453.111 339.292 453.685 340.42C454.996 343.031 454.828 346.533 452.968 349.506Z" fill="white"/>
<path d="M452.968 349.506C450.442 353.538 444.239 356.469 439.889 351.675C449.323 352.532 452.498 346.353 452.321 338.542C455.548 342.11 454.828 346.533 452.968 349.506Z" fill="#708CD5"/>
<path d="M332.978 365.052C336.479 365.568 339.868 366.547 343.226 367.59C346.584 368.642 349.884 369.871 353.129 371.234C356.387 372.564 359.568 374.098 362.654 375.797C365.726 377.524 368.715 379.442 371.359 381.794L371.075 382.138C369.675 381.098 368.233 380.122 366.738 379.232C365.256 378.317 363.731 377.475 362.182 376.679C359.092 375.071 355.926 373.592 352.69 372.281C349.497 370.872 346.212 369.676 342.921 368.508C341.274 367.928 339.615 367.382 337.943 366.873C336.278 366.351 334.594 365.873 332.898 365.497L332.978 365.052Z" fill="#6F3428"/>
<path d="M331.62 381.312L335.305 382.367C336.534 382.696 337.766 382.98 339.007 383.233C340.246 383.489 341.496 383.685 342.753 383.861C344.009 384.026 345.272 384.151 346.538 384.279L346.959 384.322L346.992 384.685C347.038 385.182 346.986 385.6 346.855 386.045C346.721 386.478 346.474 386.902 346.117 387.207C345.76 387.506 345.339 387.698 344.918 387.79C344.708 387.842 344.497 387.851 344.29 387.878L343.671 387.863V387.415L344.223 387.332C344.397 387.28 344.58 387.253 344.742 387.186C345.074 387.067 345.358 386.878 345.574 386.646C345.791 386.414 345.937 386.128 346.007 385.81C346.077 385.502 346.083 385.127 346.032 384.847L346.486 385.252C343.9 385.203 341.307 384.895 338.776 384.31C337.51 384.02 336.266 383.645 335.042 383.212C333.816 382.791 332.633 382.276 331.465 381.736L331.62 381.312Z" fill="#6F3428"/>
<path d="M328.5 372.433C331.462 372.811 334.442 373.104 337.421 373.406C340.398 373.735 343.384 374.022 346.361 374.495C349.326 374.968 352.272 375.508 355.221 376.041C358.168 376.581 361.114 377.121 364.051 377.716L364.746 377.856L364.451 378.503C364.255 378.924 364.069 379.558 363.691 380.086C363.529 380.369 363.273 380.583 363.06 380.824C362.807 381.01 362.557 381.22 362.288 381.37C361.208 382.001 360.052 382.214 358.921 382.437C356.649 382.809 354.383 382.794 352.135 382.718C351.009 382.675 349.887 382.629 348.767 382.529C347.648 382.446 346.529 382.364 345.416 382.224C343.186 381.992 340.969 381.675 338.751 381.354L338.806 380.912C341.033 381.095 343.253 381.342 345.48 381.473C346.593 381.559 347.703 381.629 348.816 381.678C349.93 381.748 351.04 381.769 352.15 381.781C354.364 381.791 356.597 381.751 358.741 381.394C359.79 381.184 360.873 380.955 361.73 380.436C361.947 380.314 362.123 380.153 362.322 380.012C362.468 379.829 362.663 379.686 362.77 379.476C363.048 379.088 363.173 378.628 363.432 378.03L363.831 378.817C357.951 377.71 352.077 376.523 346.187 375.504C343.259 374.971 340.285 374.611 337.318 374.214C334.35 373.803 331.376 373.424 328.421 372.878L328.5 372.433Z" fill="#6F3428"/>
<path d="M47.4824 388.394H568.618" stroke="#102048" stroke-width="5" stroke-miterlimit="10"/>
<path d="M251.357 283.01C253.888 284.733 256.706 285.99 259.653 286.682C262.596 287.363 265.664 287.542 268.632 287.027C271.599 286.557 274.46 285.411 276.867 283.614C279.295 281.842 281.219 279.414 282.573 276.675L282.985 276.852C282.668 277.563 282.342 278.277 282.006 278.987C281.625 279.67 281.173 280.32 280.756 280.991C280.292 281.629 279.737 282.199 279.231 282.806C278.685 283.376 278.059 283.87 277.474 284.41C274.979 286.383 271.944 287.643 268.818 288.149C265.686 288.631 262.456 288.464 259.418 287.622C256.377 286.795 253.51 285.353 251.091 283.37L251.357 283.01Z" fill="#102048"/>
<path d="M231.245 296.137L235.067 309.127L238.827 322.136L242.548 335.153L244.4 341.665L245.324 344.922C245.641 346.011 245.903 347.118 246.33 348.064C247.169 350.031 248.865 351.486 250.786 352.489C252.729 353.483 254.882 354.1 257.057 354.578C259.244 355.048 261.455 355.365 263.7 355.655L270.407 356.564L283.818 358.421L297.219 360.349L297.165 360.773L283.717 359.178L270.279 357.513L263.563 356.659C261.33 356.381 259.067 356.067 256.838 355.6C254.611 355.118 252.378 354.499 250.292 353.444C248.237 352.392 246.278 350.751 245.342 348.512C245.205 348.247 245.107 347.963 245.016 347.679C244.921 347.399 244.817 347.109 244.75 346.844L244.296 345.215L243.384 341.954L241.563 335.434L237.94 322.389L234.356 309.332L230.833 296.256L231.245 296.137Z" fill="#102048"/>
<path d="M274.778 232.926L278.209 262.475C279.231 271.268 269.962 278.64 260.565 276.203C255.193 274.809 249.594 271.091 243.802 265.503C242.609 264.356 241.886 262.868 241.725 261.285L238.065 225.673L274.778 232.926Z" fill="#F9B384"/>
<path d="M275.244 236.943L277.114 253.032C269.522 254.221 258.82 249.954 247.959 235.543L275.244 236.943Z" fill="#3C1C16"/>
<path d="M293.968 211.652C293.529 217.011 292.684 222.608 291.181 227.637C288.64 236.089 284.211 242.909 276.62 244.171C254.269 247.886 238.074 225.667 238.074 225.667L235.475 195.432L248.965 172.097L279.17 171.222L293.898 188.646C293.895 188.646 294.959 199.513 293.968 211.652Z" fill="#F9B384"/>
<path d="M234.749 206.922C246.748 206.028 249.508 195.887 250.329 182.744C250.329 182.744 282.827 174.696 294.362 197.796L303.109 198.745L276.617 163.572L235.442 168.486L227.387 195.213L234.749 206.922Z" fill="#6F3428"/>
<path d="M241.096 202.981C239.684 201.426 237.577 200.633 235.49 200.886C227.521 201.85 226.136 212.406 227.957 216.895C230.684 223.618 238.068 225.664 238.068 225.664L244.412 218.954C244.921 211.967 244.128 206.321 241.096 202.981Z" fill="#F9B384"/>
<path opacity="0.15" d="M241.227 233.774C245.607 246.23 259.082 281.4 237.073 280.515C226.466 280.088 217.145 259.516 202.026 263.399C203.694 262.594 205.57 261.862 207.681 261.215L241.227 233.774Z" fill="#3C1C16"/>
<path d="M238.068 225.664C242.313 233.728 254.19 273.622 233.959 271.317C224.209 270.206 221.814 258.461 207.677 261.212L238.068 225.664Z" fill="#6F3428"/>
<path d="M238.763 210.289C238.794 209.353 238.498 208.493 238.037 207.767C237.564 207.047 236.909 206.449 236.165 206.12C235.423 205.784 234.618 205.72 233.856 205.995C233.087 206.269 232.398 206.873 231.724 207.575L231.233 207.282C231.617 206.321 232.279 205.366 233.331 204.82C233.593 204.689 233.862 204.555 234.161 204.509C234.453 204.439 234.749 204.378 235.051 204.403L235.503 204.418L235.939 204.509C236.235 204.558 236.506 204.671 236.771 204.796C237.83 205.293 238.659 206.153 239.135 207.172C239.623 208.178 239.721 209.392 239.324 210.405L238.763 210.289Z" fill="#3C1C16"/>
<path d="M281.524 205.784C281.597 207.84 282.793 209.465 284.199 209.417C285.605 209.368 286.685 207.663 286.612 205.607C286.538 203.552 285.343 201.926 283.937 201.975C282.534 202.023 281.454 203.731 281.524 205.784Z" fill="#3C1C16"/>
<path d="M259.366 206.562C259.439 208.618 260.635 210.243 262.041 210.194C263.447 210.146 264.526 208.441 264.453 206.385C264.38 204.329 263.184 202.704 261.778 202.752C260.375 202.801 259.293 204.506 259.366 206.562Z" fill="#3C1C16"/>
<path d="M281.243 226.704C280.277 227.921 279.108 229.062 277.59 229.815C276.058 230.553 274.183 230.648 272.572 230.172C270.947 229.708 269.559 228.827 268.318 227.848C267.061 226.878 265.987 225.728 265.014 224.514L265.475 224.038C266.741 224.914 267.927 225.847 269.184 226.634C270.428 227.43 271.706 228.162 273.039 228.546C274.369 228.943 275.717 228.921 277.025 228.476C278.325 227.991 279.548 227.131 280.777 226.225L281.243 226.704Z" fill="#3C1C16"/>
<path d="M289.027 199.437C288.036 198.754 287.115 198.104 286.178 197.686C285.236 197.284 284.33 197.07 283.397 197.177C282.463 197.266 281.506 197.595 280.515 198.025C279.52 198.458 278.544 199.041 277.425 199.538L277.12 199.218C277.73 198.141 278.529 197.183 279.548 196.418C280.56 195.658 281.817 195.073 283.226 194.966C284.632 194.832 286.087 195.338 287.121 196.155C288.179 196.967 288.923 198.016 289.378 199.163L289.027 199.437Z" fill="#3C1C16"/>
<path d="M266.826 200.215C265.762 199.459 264.71 198.879 263.624 198.534C262.535 198.202 261.44 198.074 260.336 198.202C259.235 198.321 258.137 198.635 257.033 199.089C255.929 199.547 254.843 200.139 253.638 200.715L253.333 200.395C254.022 199.227 254.971 198.214 256.121 197.418C257.271 196.625 258.661 196.091 260.125 195.96C261.586 195.817 263.12 196.14 264.374 196.875C265.634 197.595 266.637 198.684 267.174 199.943L266.826 200.215Z" fill="#3C1C16"/>
<path opacity="0.5" d="M245.363 220.772C245.522 225.258 249.283 228.766 253.769 228.607C258.256 228.449 261.763 224.688 261.605 220.202C261.446 215.715 257.685 212.207 253.199 212.366C248.712 212.525 245.208 216.288 245.363 220.772Z" fill="#FC8879"/>
<path opacity="0.5" d="M293.968 211.652C293.529 217.011 292.684 222.608 291.18 227.637C287.749 226.783 285.16 223.733 285.029 220.031C284.867 215.541 288.377 211.784 292.861 211.622C293.23 211.61 293.602 211.622 293.968 211.652Z" fill="#FC8879"/>
<path opacity="0.5" d="M272.353 204.18C272.389 203.796 272.92 203.747 273.033 204.116C274.851 210.042 280.752 214.376 279.807 216.118C279.142 217.344 276.644 218.728 274.893 219.585C273.969 220.037 272.862 219.491 272.667 218.475C271.825 214.074 271.874 209.234 272.353 204.18Z" fill="#FC8879"/>
<path d="M273.615 203.579C274.021 205.314 274.814 206.891 275.775 208.374C276.742 209.859 277.873 211.234 279.017 212.686C279.307 213.049 279.584 213.427 279.859 213.827C280.13 214.236 280.405 214.647 280.615 215.221C280.713 215.504 280.81 215.858 280.722 216.322C280.594 216.846 280.374 217.023 280.203 217.267C279.825 217.691 279.429 218.002 279.02 218.28C277.391 219.366 275.662 220.034 273.878 220.589L273.625 219.976C274.405 219.512 275.205 219.076 275.958 218.582C276.717 218.109 277.474 217.618 278.132 217.084C278.456 216.813 278.767 216.535 278.983 216.261C279.072 216.136 279.173 215.956 279.13 216.023C279.133 216.032 279.118 215.922 279.06 215.782C278.822 215.175 278.212 214.428 277.684 213.723C276.58 212.287 275.418 210.792 274.53 209.115C273.625 207.456 272.993 205.571 272.96 203.661L273.615 203.579Z" fill="#3C1C16"/>
<path d="M230.967 227.878C230.452 229.013 230.284 230.27 230.36 231.505C230.446 232.746 230.772 233.969 231.233 235.134C232.215 237.449 233.526 239.715 234.676 242.055C235.85 244.382 236.878 246.862 237.348 249.521C237.574 250.851 237.647 252.214 237.543 253.572C237.452 254.246 237.388 254.92 237.211 255.606C237.016 256.277 236.796 256.945 236.46 257.564C235.829 258.815 234.865 259.934 233.639 260.696C232.422 261.48 230.916 261.816 229.479 261.672C228.024 261.489 226.804 260.962 225.587 260.477C224.376 259.974 223.193 259.443 222.016 258.915C219.664 257.878 217.285 256.872 214.815 256.411C213.588 256.182 212.332 256.109 211.161 256.414C210.584 256.579 210.038 256.841 209.556 257.198C209.071 257.558 208.681 258.031 208.33 258.543L207.836 258.256C208.175 257.671 208.577 257.103 209.108 256.649C209.642 256.204 210.264 255.862 210.923 255.636C212.256 255.212 213.649 255.225 214.973 255.405C217.63 255.813 220.097 256.774 222.51 257.741L226.09 259.226C227.271 259.693 228.482 260.166 229.61 260.288C230.754 260.382 231.904 260.12 232.868 259.486C233.837 258.869 234.618 257.939 235.17 256.896C235.463 256.378 235.652 255.81 235.826 255.24C235.982 254.67 236.046 254.05 236.137 253.443C236.241 252.217 236.189 250.976 235.994 249.75C235.585 247.289 234.627 244.919 233.56 242.585C232.498 240.237 231.254 237.977 230.302 235.479C229.872 234.213 229.586 232.886 229.561 231.535C229.534 230.19 229.808 228.812 230.455 227.619L230.967 227.878Z" fill="#3C1C16"/>
<path d="M231.379 159.955C233.569 158.967 235.86 158.259 238.172 157.652C240.48 157.036 242.829 156.578 245.19 156.209C247.553 155.856 249.935 155.606 252.33 155.535C253.528 155.505 254.727 155.508 255.929 155.569C257.127 155.648 258.329 155.782 259.509 156.029L259.43 156.594C258.256 156.557 257.091 156.517 255.916 156.588C254.745 156.615 253.574 156.694 252.406 156.807C250.07 157.021 247.733 157.301 245.406 157.646C243.079 157.988 240.761 158.408 238.449 158.854C237.293 159.076 236.143 159.333 234.999 159.607C233.847 159.854 232.718 160.181 231.58 160.486L231.379 159.955Z" fill="#3C1C16"/>
<path d="M250.198 182.488C251.174 181.973 252.202 181.662 253.236 181.409C254.273 181.168 255.319 180.957 256.368 180.82C258.472 180.533 260.595 180.417 262.715 180.42C266.961 180.42 271.206 181.012 275.321 182.125C279.42 183.272 283.388 185.078 286.798 187.692C288.487 189.006 290.055 190.495 291.37 192.187C292.669 193.886 293.776 195.725 294.615 197.677L294.099 197.921C292.117 194.277 289.399 191.074 286.035 188.716C284.367 187.53 282.595 186.481 280.728 185.621C278.862 184.754 276.907 184.096 274.927 183.522C270.965 182.372 266.829 181.823 262.691 181.656C260.62 181.573 258.543 181.625 256.478 181.805C254.428 181.988 252.324 182.253 250.454 183.001L250.198 182.488Z" fill="#3C1C16"/>
<path d="M106.585 296.272L114.424 298.812C115.101 299.032 115.564 299.63 115.613 300.34C115.659 301.048 115.275 301.704 114.631 302.009L106.07 306.068L106.085 306.184L118.062 308.569C118.511 308.658 118.804 309.097 118.715 309.545C118.627 309.994 118.187 310.286 117.739 310.198L105.762 307.813C105.021 307.663 104.481 307.087 104.389 306.337C104.295 305.586 104.676 304.891 105.362 304.568L113.924 300.508L113.917 300.392L106.079 297.851C105.643 297.711 105.405 297.241 105.545 296.805C105.682 296.369 106.149 296.131 106.585 296.272Z" fill="#3C1C16"/>
<path d="M86.3456 285.472L93.3087 287.729C93.9096 287.924 94.3244 288.454 94.364 289.086C94.4037 289.714 94.0621 290.297 93.4917 290.568L85.8881 294.173L85.9003 294.277L96.5356 296.397C96.9352 296.476 97.1944 296.863 97.1151 297.266C97.0358 297.665 96.6485 297.925 96.2489 297.845L85.6136 295.726C84.9548 295.591 84.4759 295.082 84.3936 294.414C84.3112 293.746 84.6498 293.13 85.2567 292.843L92.8604 289.238L92.8543 289.138L85.8911 286.881C85.5038 286.756 85.2903 286.341 85.4153 285.95C85.5404 285.557 85.9552 285.347 86.3456 285.472Z" fill="#3C1C16"/>
<path d="M128.365 312.818L133.886 314.608C134.362 314.764 134.691 315.185 134.722 315.685C134.755 316.185 134.484 316.646 134.032 316.859L128.002 319.717L128.012 319.799L136.445 321.48C136.762 321.544 136.966 321.852 136.905 322.169C136.841 322.486 136.533 322.691 136.219 322.63L127.786 320.949C127.264 320.842 126.883 320.437 126.819 319.909C126.755 319.381 127.02 318.89 127.502 318.665L133.532 315.807L133.526 315.724L128.005 313.934C127.697 313.833 127.53 313.504 127.63 313.196C127.728 312.888 128.06 312.717 128.365 312.818Z" fill="#3C1C16"/>
<path d="M473.424 269.508H448.923C444.916 269.508 441.637 266.229 441.637 262.221V240.161C441.637 236.153 444.916 232.874 448.923 232.874H473.424C477.432 232.874 480.71 236.153 480.71 240.161V262.221C480.713 266.226 477.432 269.508 473.424 269.508Z" fill="white" stroke="#1F3C88" stroke-width="3.75" stroke-miterlimit="10"/>
<path d="M461.175 276.745L454.072 269.508H468.279L461.175 276.745Z" fill="#1F3C88"/>
<path d="M460.553 261.569C460.175 261.569 459.812 261.404 459.565 261.111L452.461 252.76C451.998 252.214 452.062 251.394 452.608 250.93C453.154 250.467 453.974 250.534 454.438 251.077L460.327 258L469.499 241.475C469.846 240.847 470.639 240.624 471.262 240.969C471.89 241.317 472.116 242.107 471.768 242.732L461.688 260.898C461.48 261.27 461.105 261.517 460.681 261.56C460.638 261.569 460.596 261.569 460.553 261.569Z" fill="#1F3C88"/>
<path d="M98.7897 349.622C87.9103 352.199 75.8415 355.771 70.6809 366.739C65.807 377.1 70.8791 387.165 80.6727 392.063C87.3003 395.378 112.551 400.966 102.065 413.221C95.2913 421.139 83.5244 418.689 75.7896 414.014C71.7575 411.577 68.0853 417.887 72.1052 420.315C80.9014 425.631 91.0305 427.58 100.598 423.185C110.984 418.415 115.071 406.187 107.147 397.242C103.084 392.655 97.344 390.498 91.7045 388.558C86.3701 386.722 79.3856 384.673 76.7961 379.049C74.3592 373.757 77.5556 367.706 81.6182 364.223C86.8733 359.715 94.1811 358.208 100.729 356.655C105.298 355.579 103.365 348.539 98.7897 349.622Z" fill="#FFDF8B"/>
<path d="M198.793 362.969C211.161 363.689 212.048 347.582 212.048 347.582C212.048 347.582 203.588 343.287 195.658 348.613L198.793 362.969Z" fill="#FFDF8B"/>
<path d="M199.492 358.089C204.417 358.01 206.842 351.818 206.842 351.818C206.842 351.818 203.213 349.598 198.638 351.87L199.492 358.089Z" fill="#3C1C16"/>
<path d="M163.861 348.061C155.285 339.118 166.963 327.989 166.963 327.989C166.963 327.989 175.723 331.639 176.818 341.128L163.861 348.061Z" fill="#FFDF8B"/>
<path d="M166.911 344.318C163.919 340.695 166.911 335.104 166.911 335.104C166.911 335.104 170.77 336.364 171.953 341.091L166.911 344.318Z" fill="#3C1C16"/>
<path d="M181.564 387.613C181.143 388.589 180.228 389.254 179.179 389.412C170.812 390.703 168.769 388.391 168.769 388.391C168.769 388.391 162.111 392.096 146.464 387.689C146.077 388.415 145.29 389.001 144.39 389.29C141.996 390.074 132.7 389.266 126.645 388.635C122.985 388.247 112.265 389.107 112.265 389.107C102.499 389.107 91.4026 386.5 87.1082 376.703C81.6731 364.305 87.3919 349.442 96.609 340.567C106.445 331.081 119.566 330.227 131.501 336.443C160.445 351.525 162.635 346.606 170.059 340.353L175.067 378.365C176.708 378.939 178.148 379.723 179.185 380.815C179.892 381.562 180.435 382.254 180.832 382.904C182.134 384.99 182.012 386.564 181.564 387.613Z" fill="#FFDF8B"/>
<path opacity="0.3" d="M161.647 348.061C150.042 354.88 149.661 376.487 172.066 378.594L174.634 368.798L161.647 348.061Z" fill="#3C1C16"/>
<path d="M201.837 364.122C199.482 372.403 195.594 377.145 191.604 379.784C187.892 382.263 184.107 382.91 181.378 382.91C178.922 382.91 176.482 382.519 174.149 381.781C165.274 378.991 158.021 371.213 158.021 360.996C158.021 348.094 167.393 338.206 179.188 338.206C192.696 338.203 206.031 349.354 201.837 364.122Z" fill="#FFDF8B"/>
<path opacity="0.3" d="M191.604 379.784C187.892 382.263 184.107 382.91 181.378 382.91C181.195 382.91 181.021 382.91 180.838 382.901C180.441 382.251 179.898 381.559 179.191 380.811C178.154 379.72 176.711 378.936 175.073 378.362C178.697 377.621 180.792 378.591 180.792 378.591C180.792 378.591 187.462 375.276 191.589 379.765C191.598 379.774 191.598 379.774 191.604 379.784Z" fill="#3C1C16"/>
<path d="M179.011 383.477C177.836 385.167 178.047 387.521 179.682 388.772C180.06 389.062 180.462 389.257 180.859 389.257H192.492C193.047 389.257 193.346 388.662 193.495 387.887C193.947 385.56 192.971 383.197 191.156 381.672C187.404 378.515 182.402 378.591 179.011 383.477Z" fill="#FFDF8B"/>
<path d="M158.021 377.225C160.378 377.121 162.727 377.219 165.075 377.429C167.424 377.636 169.76 378.027 172.063 378.591C173.216 378.878 174.35 379.247 175.461 379.695C176.565 380.15 177.663 380.665 178.66 381.37C179.651 382.068 180.566 382.946 181.179 384.041C181.78 385.139 181.982 386.442 181.771 387.634L181.344 387.589C181.387 386.457 181.134 385.341 180.518 384.429C179.929 383.505 179.075 382.757 178.123 382.163C176.217 380.964 174.018 380.211 171.788 379.64C169.562 379.033 167.265 378.673 164.966 378.344C162.663 378.033 160.339 377.807 158.015 377.649V377.225H158.021Z" fill="#3C1C16"/>
<path d="M119.194 354.258C121.521 354.636 123.839 355.454 125.776 356.924C126.715 357.68 127.585 358.577 128.183 359.644C128.796 360.7 129.238 361.856 129.479 363.045C129.708 364.238 129.799 365.449 129.756 366.65C129.698 367.852 129.54 369.038 129.311 370.21C128.829 372.546 128.082 374.812 127.155 376.993C126.697 378.088 126.179 379.152 125.614 380.198L125.398 380.592L125.285 380.79L125.279 380.802C125.331 380.973 124.791 379.36 125.026 380.046L125.05 380.055L125.099 380.076L125.2 380.116L126.005 380.433C126.545 380.641 127.091 380.83 127.637 381.013C129.833 381.739 132.093 382.251 134.38 382.611C136.658 382.934 139.047 383.19 141.337 383.767C142.487 384.057 143.628 384.401 144.72 384.917C145.266 385.167 145.796 385.487 146.26 385.923C146.479 386.149 146.702 386.417 146.788 386.765C146.91 387.107 146.803 387.485 146.656 387.781L146.278 387.579C146.507 387.122 146.296 386.652 145.891 386.308C145.488 385.963 144.994 385.682 144.466 385.472C143.42 385.03 142.295 384.746 141.163 384.511C138.891 384.005 136.607 383.828 134.243 383.556C131.894 383.254 129.576 382.718 127.313 382.004C126.749 381.821 126.188 381.632 125.633 381.424L124.8 381.107L124.696 381.068L124.645 381.046L124.62 381.037C124.849 381.717 124.291 380.104 124.355 380.265L124.361 380.253L124.465 380.07L124.669 379.692C125.209 378.673 125.697 377.624 126.16 376.566C127.081 374.446 127.826 372.25 128.308 370.002C128.536 368.877 128.698 367.742 128.762 366.605C128.802 365.467 128.765 364.332 128.576 363.219C128.183 361.005 127.075 358.922 125.316 357.497C123.574 356.049 121.375 355.182 119.118 354.676L119.194 354.258Z" fill="#3C1C16"/>
<path d="M185.44 357.397C186.255 358.897 187.359 360.239 188.835 360.7C189.564 360.932 190.36 360.99 191.18 360.898C191.589 360.861 191.998 360.749 192.422 360.688C192.833 360.569 193.248 360.447 193.684 360.349L193.895 360.773C193.514 361.026 193.111 361.252 192.702 361.478C192.266 361.636 191.836 361.84 191.366 361.941C190.439 362.179 189.411 362.167 188.444 361.871C187.475 361.566 186.633 360.919 186.059 360.135C185.483 359.349 185.105 358.467 184.983 357.516L185.44 357.397Z" fill="#3C1C16"/>
<path d="M172.166 351.666C172.862 353.224 173.859 354.649 175.293 355.222C176.003 355.509 176.79 355.631 177.617 355.603C178.029 355.597 178.443 355.518 178.87 355.49C179.288 355.402 179.712 355.313 180.154 355.249L180.331 355.689C179.932 355.911 179.514 356.106 179.09 356.299C178.642 356.424 178.196 356.594 177.724 356.658C176.781 356.823 175.756 356.732 174.814 356.363C173.871 355.984 173.081 355.274 172.572 354.447C172.06 353.618 171.752 352.709 171.703 351.754L172.166 351.666Z" fill="#3C1C16"/>
<path d="M453.987 173.323H466.87L456.582 106.711H443.696L453.987 173.323Z" fill="#102048"/>
<path d="M466.882 173.323H479.768L469.478 106.711H456.591L466.882 173.323Z" fill="#5DB3BF"/>
<path d="M532.164 142.722H484.612V173.314H532.164V142.722Z" fill="#102048"/>
<path d="M518.442 152.662H498.334V158.018H518.442V152.662Z" fill="white"/>
<path d="M443.693 86.578H421.318V173.314H443.693V86.578Z" fill="#5DB3BF"/>
<path d="M543.19 173.314H409.271V182.946H543.19V173.314Z" fill="#102048"/>
<path d="M340.197 78.4324C357.008 61.6214 357.008 34.3653 340.197 17.5543C323.386 0.743289 296.13 0.743294 279.319 17.5543C262.508 34.3653 262.508 61.6214 279.319 78.4324C296.13 95.2434 323.386 95.2434 340.197 78.4324Z" fill="white" stroke="#102048" stroke-width="5" stroke-miterlimit="10"/>
<path d="M326.786 56.932L308.389 48.1846L328.488 30.4824L329.498 31.6261L311.134 47.8003L327.442 55.5533L326.786 56.932Z" fill="#102048"/>
<path d="M172.947 128.04H105.884C100.687 128.04 96.4714 123.825 96.4714 118.627V80.9233C96.4714 75.7261 100.687 71.511 105.884 71.511H172.947C178.144 71.511 182.359 75.7261 182.359 80.9233V118.627C182.359 123.828 178.144 128.04 172.947 128.04Z" fill="#C6EAE9"/>
<path d="M171.492 85.6996H107.335V91.0432H171.492V85.6996Z" fill="#5DB3BF"/>
<path opacity="0.8" d="M171.492 97.1035H107.335V102.447H171.492V97.1035Z" fill="white"/>
<path opacity="0.8" d="M171.492 108.511H107.335V113.854H171.492V108.511Z" fill="white"/>
<path d="M118.178 185.245L105.984 175.711H130.372L118.178 185.245Z" fill="#5DB3BF"/>
<path d="M133.66 175.717H66.5937C61.3965 175.717 57.1814 171.502 57.1814 166.305V128.601C57.1814 123.404 61.3965 119.189 66.5937 119.189H133.657C138.854 119.189 143.069 123.404 143.069 128.601V166.305C143.072 171.502 138.857 175.717 133.66 175.717Z" fill="#5DB3BF"/>
<g opacity="0.8">
<path opacity="0.8" d="M83.6646 151.445H75.3503V161.721H83.6646V151.445Z" fill="white"/>
<path opacity="0.8" d="M97.0145 140.005H88.7002V161.724H97.0145V140.005Z" fill="white"/>
<path opacity="0.8" d="M110.959 144.937H102.645V161.724H110.959V144.937Z" fill="white"/>
<path opacity="0.8" d="M124.904 133.182H116.589V161.724H124.904V133.182Z" fill="white"/>
</g>
</g>
<defs>
<clipPath id="clip0_13_300">
<rect width="610" height="508" fill="white"/>
</clipPath>
</defs>
</svg>
