<svg width="610" height="470" viewBox="0 0 610 470" fill="none" xmlns="http://www.w3.org/2000/svg">
<g clip-path="url(#clip0_105_399)">
<path d="M447.781 298.536C451.574 295.824 455.55 293.377 459.681 291.213C481.101 280.207 501.156 268.908 517.886 251.571C537.701 231.033 551.59 203.298 551.593 174.198C551.596 145.099 535.928 115.279 510.145 103.214C478.058 88.1929 441.352 102.476 406.44 106.076C361.431 110.717 316.685 97.0171 272.271 87.5583C227.857 78.0995 179.587 73.2846 139.237 94.1093C106.76 110.891 82.8441 144.07 76.5922 181.045C70.3402 218.02 81.9044 257.903 106.882 285.513C142.914 325.35 199.594 336.078 252.151 338.605C290.876 340.479 329.69 339.134 368.193 334.583C385.542 332.53 401.781 329 417.104 320.371C428.137 314.167 437.547 305.716 447.781 298.536Z" stroke="#FCCB3E" stroke-width="2.6" stroke-miterlimit="10"/>
<path d="M97.9761 166.577C110.622 155.062 126.33 150.202 143.077 147.466C150.882 146.191 158.896 145.379 166.925 144.566C167.511 144.507 168.097 144.447 168.683 144.388C177.292 143.513 185.898 142.598 194.222 141.068C229.228 134.651 260.735 116.515 291.971 98.534C299.026 94.4724 306.069 90.4187 313.134 86.5098C351.526 65.2703 394.613 47.5398 437.356 56.4918C471.76 63.698 502.78 88.9558 518.599 122.668C534.419 156.381 534.655 197.747 519.209 230.975L519.209 230.975C496.94 278.941 447.739 304.702 399.955 321.513C364.785 333.888 328.613 343.207 291.841 349.365C278.335 351.622 264.621 353.439 251.115 351.314C237.616 349.19 224.154 342.665 215.833 331.031L215.563 330.653L215.167 330.894L209.172 334.536C182.209 331.332 155.125 324.804 131.356 310.574C107.539 296.316 87.2287 273.526 79.3064 245.692C71.3816 217.849 77.6654 185.078 97.9761 166.577ZM97.9761 166.577L97.6395 166.207M97.9761 166.577L97.6395 166.207M97.6395 166.207C77.1565 184.865 70.8618 217.849 78.8255 245.829C86.7893 273.809 107.196 296.693 131.099 311.003C155.003 325.314 182.229 331.852 209.284 335.053L194.132 140.577C185.264 142.206 176.07 143.137 166.871 144.069C141.622 146.626 116.332 149.188 97.6395 166.207Z" fill="#F4EBD7" stroke="#FCCB3E"/>
<path d="M0 389.011H610" stroke="#102048" stroke-width="5" stroke-miterlimit="10"/>
<path d="M503.954 25.3385H322.831V180.185H503.954V25.3385Z" fill="white"/>
<g opacity="0.6">
<path opacity="0.6" d="M374.338 134.444C357.977 124.237 351.246 107.288 351.188 90.9513C351.139 77.2207 357.099 60.265 376.794 63.2827C390.034 65.3118 401.107 73.4067 413.797 76.9827C424.07 79.8784 434.978 79.0332 445.383 78.5084C461.689 77.7059 479.426 87.183 481.15 98.0607C483.459 112.639 481.32 128.793 468.472 137.284C445.966 152.168 399.657 150.237 374.338 134.444Z" stroke="#1F3C88" stroke-width="2.5" stroke-miterlimit="10" stroke-dasharray="19.91 19.91"/>
</g>
<path d="M388.035 151.235C368.98 148.263 356.146 135.319 349.681 120.304C344.25 107.684 343.081 89.7583 362.383 84.8122C375.36 81.4833 388.718 84.5864 401.796 82.8991C412.384 81.5352 422.084 76.4915 431.454 71.9146C446.14 64.7808 463.166 61.8456 472.035 75.8812C479.914 88.3669 478.263 105.515 469.774 118.364C454.891 140.873 417.519 155.833 388.035 151.235Z" fill="#5DB3BF"/>
<path d="M361.803 45.4143C362.763 41.3469 360.244 37.2714 356.176 36.3114C352.109 35.3514 348.033 37.8704 347.073 41.9378C346.113 46.0052 348.632 50.0808 352.7 51.0408C356.767 52.0008 360.843 49.4817 361.803 45.4143Z" fill="#5DB3BF"/>
<path d="M356.095 46.9128L354.441 44.6763L352.772 46.9128H351.106L353.617 43.6358L351.213 40.4595H352.894L354.478 42.574L356.058 40.4595H357.691L355.274 43.6114L357.8 46.9128H356.095Z" fill="white"/>
<path d="M381.28 45.5539C382.312 41.504 379.865 37.3847 375.815 36.3532C371.765 35.3216 367.646 37.7684 366.614 41.8183C365.583 45.8682 368.03 49.9875 372.08 51.019C376.129 52.0506 380.249 49.6037 381.28 45.5539Z" fill="#FBC343"/>
<path d="M376.993 42.8546H370.899V44.5145H376.993V42.8546Z" fill="white"/>
<path d="M443.04 132.418C424.101 143.265 414.908 140.284 411.917 138.602C408.948 140.284 399.755 143.265 380.816 132.418C362.673 122.019 373.249 99.6626 380.395 86.0602C384.276 78.6701 387.269 70.8711 394.077 65.5467C400.484 60.5365 407.658 58.9896 416.073 59.4045C427.64 59.9751 434.82 66.8648 438.368 75.1306C441.191 81.706 444.697 87.8543 447.778 94.2954C450.668 100.328 452.996 106.894 453.213 113.591C453.484 121.384 450.122 128.366 443.04 132.418Z" fill="#6F3428"/>
<path d="M447.512 131.779C435.975 118.4 414.722 121.19 412.454 121.531C410.192 121.19 388.936 118.403 377.396 131.779C368.703 141.852 368.816 182.062 368.816 182.062C368.816 181.07 409.248 180.776 412.454 180.757C415.66 180.738 456.092 181.07 456.092 182.062C456.092 182.062 456.205 141.852 447.512 131.779Z" fill="#FCCB3E"/>
<path d="M394.336 91.7294C389.783 92.1931 385.994 103.281 398.303 103.513L401.247 100.026L394.336 91.7294Z" fill="#E28B6D"/>
<path d="M430.435 91.7294C435.567 91.9979 439.213 103.281 426.902 103.513L423.957 100.026L430.435 91.7294Z" fill="#E28B6D"/>
<path d="M402.083 108.301H422.596V121.232C422.596 123.95 421.517 126.557 419.595 128.479C417.673 130.401 415.066 131.481 412.347 131.481C411.001 131.481 409.669 131.216 408.425 130.701C407.182 130.186 406.052 129.431 405.1 128.479C404.148 127.527 403.393 126.397 402.878 125.154C402.363 123.91 402.098 122.578 402.098 121.232V108.301H402.083Z" fill="#F9B384"/>
<path d="M422.526 111.044C415.783 122.028 408.936 121.836 401.995 111.422L422.526 111.044Z" fill="#E28B6D"/>
<path d="M432.104 83.5155C432.004 84.5193 431.885 85.5048 431.76 86.4812C429.624 102.732 424.086 115.468 412.03 115.468C399.657 115.468 395.349 103.263 393.088 86.2768C392.896 84.8916 392.731 83.4575 392.566 82.0051L416.903 72.2777L432.104 83.5155Z" fill="#F9B384"/>
<path d="M390.589 91.348C396.786 93.4381 408.613 86.4446 408.613 86.4446C407.697 83.7839 408.991 81.166 411.579 78.5724C411.423 81.2087 412.033 85.3401 414.392 86.8626C414.392 86.8626 415.988 87.241 418.459 86.7101C417.849 83.6985 418.294 81.0592 420.131 78.9142C420.131 78.9142 422.908 86.4813 424.275 88.193C426.008 90.3563 432.235 93.6242 437.81 90.8903L427.436 67.3957L399.947 66.8252L387.507 78.3466L390.589 91.348Z" fill="#6F3428"/>
<path d="M405.256 94.2589C406.161 94.2589 406.895 93.2561 406.895 92.0192C406.895 90.7823 406.161 89.7796 405.256 89.7796C404.351 89.7796 403.618 90.7823 403.618 92.0192C403.618 93.2561 404.351 94.2589 405.256 94.2589Z" fill="#6F3428"/>
<path d="M419.02 94.2589C419.925 94.2589 420.659 93.2561 420.659 92.0192C420.659 90.7823 419.925 89.7796 419.02 89.7796C418.115 89.7796 417.382 90.7823 417.382 92.0192C417.382 93.2561 418.115 94.2589 419.02 94.2589Z" fill="#6F3428"/>
<path d="M414.291 98.0576C414.291 100.233 414.465 101.945 412.659 101.994C410.941 102.04 411.023 100.233 411.023 98.0576C411.023 95.8821 411.755 94.1246 412.659 94.1246C413.562 94.1246 414.291 95.8913 414.291 98.0576Z" fill="#E28B6D"/>
<path d="M407.615 105.655L417.952 105.371C417.952 105.371 413.635 113.64 407.615 105.655Z" fill="white"/>
<path opacity="0.3" d="M422.496 104.16C424.914 104.16 426.874 102.2 426.874 99.7816C426.874 97.3634 424.914 95.4031 422.496 95.4031C420.078 95.4031 418.117 97.3634 418.117 99.7816C418.117 102.2 420.078 104.16 422.496 104.16Z" fill="#FBB07D"/>
<path opacity="0.3" d="M408.024 100.954C408.409 98.5667 406.787 96.3188 404.4 95.933C402.012 95.5472 399.764 97.1696 399.379 99.5569C398.993 101.944 400.615 104.192 403.003 104.578C405.39 104.964 407.638 103.341 408.024 100.954Z" fill="#FBB07D"/>
<g opacity="0.4">
<path opacity="0.4" d="M400.237 131.42C400.986 132.272 401.895 132.969 402.913 133.47C403.924 134.001 404.989 134.423 406.089 134.727C408.294 135.344 410.581 135.611 412.869 135.518C415.144 135.441 417.382 134.922 419.46 133.992C421.533 133.028 423.342 131.576 424.732 129.76L425.181 130.065C424.584 131.126 423.838 132.096 422.965 132.945C422.07 133.785 421.069 134.503 419.987 135.081C417.798 136.204 415.384 136.82 412.924 136.885C410.484 136.984 408.047 136.628 405.738 135.835C404.583 135.442 403.476 134.919 402.44 134.276C401.383 133.631 400.481 132.763 399.797 131.731L400.237 131.42Z" fill="#6F3428"/>
</g>
<g opacity="0.4">
<path opacity="0.4" d="M388.636 148.067C388.725 150.392 388.731 152.714 388.719 155.036C388.706 157.358 388.661 159.677 388.597 161.999C388.532 164.321 388.429 166.637 388.291 168.953L388.06 172.428C387.953 173.585 387.87 174.744 387.736 175.901L387.202 175.882C387.141 174.72 387.135 173.56 387.104 172.398V168.913C387.104 166.594 387.169 164.272 387.248 161.954C387.327 159.635 387.422 157.316 387.577 155C387.733 152.684 387.883 150.365 388.111 148.052L388.636 148.067Z" fill="#6F3428"/>
</g>
<g opacity="0.4">
<path opacity="0.4" d="M437.056 146.899C437.447 149.224 437.755 151.552 438.045 153.886C438.335 156.22 438.588 158.551 438.826 160.889C439.064 163.226 439.265 165.566 439.436 167.907L439.659 171.425C439.702 172.599 439.772 173.774 439.787 174.952L439.256 175.004C439.046 173.844 438.887 172.679 438.707 171.516L438.246 168.019C437.941 165.688 437.709 163.354 437.486 161.002C437.264 158.649 437.056 156.324 436.91 153.984C436.763 151.643 436.605 149.294 436.541 146.938L437.056 146.899Z" fill="#6F3428"/>
</g>
<path d="M323.769 201.769V180.185H346.292L323.769 201.769Z" fill="white"/>
<path d="M322.831 25.3385V181.804V202.708L345.58 181.804H503.954V25.3385H322.831Z" stroke="#708CD5" stroke-width="3.5" stroke-miterlimit="10"/>
<path opacity="0.15" d="M74.2458 422.81C90.2547 422.81 103.233 420.338 103.233 417.29C103.233 414.242 90.2547 411.77 74.2458 411.77C58.2368 411.77 45.259 414.242 45.259 417.29C45.259 420.338 58.2368 422.81 74.2458 422.81Z" fill="#1F3C88"/>
<path d="M60.9485 406.547C54.6782 406.547 47.697 397.365 47.697 391.144C47.697 384.819 52.7377 379.674 58.9347 379.674C65.1318 379.674 70.1785 384.819 70.1785 391.144C70.1785 397.1 67.6704 406.547 60.9485 406.547ZM58.9347 383.488C54.84 383.488 51.5111 386.921 51.5111 391.144C51.5111 395.8 57.1558 402.739 60.9485 402.739C64.4361 402.739 66.3614 395.886 66.3614 391.144C66.3614 386.921 63.0295 383.488 58.9347 383.488Z" fill="#5DB3BF"/>
<path d="M82.6335 416.469H66.1294C64.8074 416.469 63.5337 415.972 62.561 415.077C61.5883 414.182 60.9877 412.954 60.8782 411.636L57.4639 370.502H91.9824L87.8755 411.722C87.7461 413.022 87.138 414.228 86.1693 415.105C85.2006 415.983 83.9404 416.469 82.6335 416.469Z" fill="#5DB3BF"/>
<path d="M61.4671 321.188C60.3107 325.057 59.795 329.042 60.4511 332.875C60.7771 334.785 61.3218 336.651 62.0743 338.437C62.8645 340.223 63.8153 341.934 64.915 343.548C66.0409 345.176 67.2776 346.724 68.6162 348.183C68.9396 348.533 69.2905 348.967 69.6444 349.403C69.9984 349.839 70.3584 350.236 70.6818 350.685L71.5972 352.094C71.8857 352.584 72.1385 353.094 72.3539 353.62C72.5966 354.142 72.7877 354.687 72.9245 355.246C73.0883 355.812 73.1906 356.394 73.2296 356.982C73.2663 357.277 73.2663 357.575 73.2296 357.87L73.1686 358.758C73.1259 359.063 73.0466 359.338 72.9825 359.628C72.9285 359.917 72.8446 360.201 72.7323 360.473L72.3997 361.282C72.2624 361.538 72.1159 361.785 71.9725 362.032C71.8328 362.281 71.6725 362.518 71.4935 362.74C71.3316 362.971 71.1532 363.191 70.9595 363.396C70.2201 364.234 69.3442 364.941 68.369 365.486L67.7344 364.476C69.144 363.234 70.3035 361.562 70.6941 359.838C70.7595 359.628 70.7994 359.411 70.8131 359.191C70.8344 358.972 70.8802 358.758 70.8863 358.542L70.8588 357.886C70.8651 357.667 70.8394 357.449 70.7825 357.239C70.7212 356.802 70.6128 356.373 70.4591 355.96C70.3252 355.536 70.1483 355.127 69.9312 354.74C69.7216 354.33 69.4904 353.932 69.2386 353.547L68.4209 352.402C68.1158 352.033 67.7801 351.688 67.4658 351.328L66.4528 350.227C65.7297 349.449 65.0066 348.671 64.3444 347.832C63.6579 347.009 63.0132 346.153 62.413 345.266C61.2052 343.472 60.1906 341.555 59.3862 339.548C58.6009 337.513 58.0939 335.381 57.8789 333.21C57.4334 328.853 58.4678 324.484 60.3778 320.746L61.4671 321.188Z" fill="#D3DFFF"/>
<path d="M76.4577 320.011C78.689 321.817 80.3226 324.256 81.1445 327.007C81.5481 328.406 81.7535 329.854 81.7547 331.309C81.7438 332.747 81.576 334.18 81.2543 335.581C80.9228 336.952 80.4767 338.294 79.9209 339.59L79.5609 340.475C79.4541 340.753 79.3229 341.027 79.2313 341.305L79.0269 342.126C78.9415 342.407 78.9323 342.672 78.8713 342.947C78.8278 343.212 78.8094 343.481 78.8164 343.749C78.8121 344.009 78.8346 344.269 78.8835 344.524C78.9232 344.777 78.9844 345.026 79.0666 345.269C79.1663 345.506 79.2836 345.735 79.4175 345.955C79.9484 346.871 80.9644 347.621 82.0293 348.091L81.7944 349.26C80.2447 349.111 78.8027 348.401 77.7393 347.264C77.4701 346.955 77.2272 346.625 77.0131 346.276C76.8165 345.913 76.6511 345.534 76.5188 345.144C76.39 344.756 76.303 344.356 76.2594 343.951C76.2014 343.557 76.1809 343.158 76.1984 342.761C76.202 342.372 76.2336 341.985 76.293 341.601L76.5188 340.49C76.6134 340.127 76.7415 339.789 76.8514 339.435C76.9612 339.081 77.0802 338.721 77.19 338.446C77.6445 337.277 78.0226 336.079 78.3221 334.861C78.6064 333.666 78.7881 332.449 78.8652 331.224C78.9173 330.013 78.8375 328.799 78.6272 327.605C78.2061 325.207 77.0802 322.946 75.6003 320.804L76.4577 320.011Z" fill="#D3DFFF"/>
<path opacity="0.15" d="M514.579 425.504C546.596 425.504 572.552 421.661 572.552 416.921C572.552 412.181 546.596 408.338 514.579 408.338C482.561 408.338 456.605 412.181 456.605 416.921C456.605 421.661 482.561 425.504 514.579 425.504Z" fill="#1F3C88"/>
<path d="M518.271 277.135H510.133V356.72H518.271V277.135Z" fill="#27481F"/>
<path d="M516.233 271.789C516.148 276.384 515.785 280.969 515.144 285.519C514.799 287.93 514.509 289.321 514.509 289.321C492.296 282.111 482.105 268.344 477.863 254.452C477.467 253.185 477.131 251.913 476.841 250.644C472.356 231.317 478.367 212.9 478.367 212.9C488.552 215.036 496.064 219.469 501.611 225.181C502.563 226.161 503.442 227.165 504.281 228.211C514.518 241.054 516.477 258.745 516.233 271.789Z" fill="#49883A"/>
<path d="M545.03 233.313C544.588 248.764 538.577 266.766 519.934 284.052C518.506 285.379 516.995 286.709 515.409 288.018C515.241 288.162 515.073 288.299 514.905 288.436C514.905 288.436 511.817 283.908 508.635 276.536C508.589 276.427 508.543 276.329 508.507 276.231C507.276 273.363 506.199 270.432 505.279 267.45C504.422 264.69 503.709 261.887 503.143 259.053C500.9 247.681 500.894 234.191 507.109 220.842C511.763 210.788 519.925 200.82 533.32 191.871C533.304 191.874 545.717 209.602 545.03 233.313Z" fill="#49883A"/>
<path opacity="0.5" d="M519.931 284.052C518.503 285.379 516.992 286.709 515.406 288.018C515.238 288.162 515.07 288.299 514.902 288.436C514.902 288.436 511.814 283.908 508.632 276.537C508.589 276.436 508.546 276.323 508.504 276.231C508.235 275.603 507.964 274.953 507.698 274.285C507.594 274.028 507.494 273.76 507.393 273.501C507.219 273.052 507.042 272.607 506.871 272.143C506.734 271.78 506.603 271.398 506.472 271.023C506.34 270.648 506.188 270.248 506.054 269.848C505.789 269.067 505.53 268.268 505.275 267.45C504.418 264.69 503.706 261.887 503.14 259.053C501.309 249.777 500.967 239.092 504.278 228.236C503.445 227.189 502.56 226.185 501.608 225.206C499.472 230.85 495.997 243.785 495.582 255.45C490.446 253.439 484.274 251.788 476.838 250.668C477.143 251.938 477.448 253.21 477.86 254.476C474.695 253.719 471.265 253.063 467.571 252.508C470.491 262.47 482.217 294.203 512.781 294.676C513.561 294.692 514.349 294.685 515.146 294.655C516.406 294.615 517.694 294.514 519.021 294.35C519.015 294.35 520.397 290.026 519.931 284.052Z" fill="#27481F"/>
<path d="M515.354 292.977C515.358 293.002 515.358 293.028 515.354 293.053C515.354 293.245 515.323 293.428 515.302 293.602C515.287 293.686 515.277 293.771 515.271 293.855C515.256 293.999 515.241 294.136 515.217 294.273C515.165 294.694 515.104 295.082 515.043 295.457C515.003 295.701 514.957 295.936 514.911 296.168C514.706 297.278 514.419 298.372 514.051 299.439C511.97 299.575 509.883 299.575 507.802 299.439C471.608 297.013 464.169 252.02 464.169 252.02C465.335 252.166 466.474 252.327 467.587 252.502C471.285 253.051 474.715 253.707 477.876 254.47C490.959 257.582 499.616 262.272 505.291 267.459C506.89 268.909 508.344 270.512 509.633 272.243C512.558 276.143 514.457 280.714 515.155 285.538C515.284 286.395 515.369 287.225 515.421 288.034C515.527 289.681 515.505 291.333 515.354 292.977Z" fill="#49883A"/>
<path opacity="0.38" d="M545.03 233.313C544.787 241.84 542.839 250.232 539.3 257.994C535.419 266.593 529.255 275.411 519.934 284.052C519.894 284.082 519.857 284.122 519.818 284.152C519.268 284.662 518.704 285.175 518.124 285.678C517.956 285.831 517.789 285.983 517.615 286.136C516.898 286.764 516.165 287.396 515.409 288.021C515.357 287.213 515.271 286.383 515.143 285.526C514.444 280.702 512.545 276.13 509.62 272.231C508.332 270.5 506.877 268.897 505.278 267.447C504.421 264.687 503.709 261.884 503.143 259.05C505.074 260.167 506.91 261.439 508.635 262.855C509.709 263.743 510.728 264.696 511.686 265.708C516.477 253.243 526.082 240.474 545.03 233.313Z" fill="#27481F"/>
<path opacity="0.2" d="M515.354 292.977C515.359 293.002 515.359 293.028 515.354 293.053C515.354 293.245 515.323 293.428 515.302 293.602C515.287 293.686 515.277 293.771 515.272 293.855C515.256 293.999 515.241 294.136 515.217 294.273C515.165 294.694 515.104 295.082 515.043 295.457C514.997 295.701 514.957 295.936 514.912 296.168C514.706 297.278 514.419 298.372 514.051 299.439C511.97 299.575 509.883 299.575 507.802 299.439C507.466 296.943 506.499 287.658 508.656 276.555C508.931 275.142 509.267 273.702 509.642 272.243C512.567 276.143 514.466 280.714 515.165 285.538C515.293 286.395 515.378 287.225 515.43 288.034C515.534 289.681 515.508 291.333 515.354 292.977Z" fill="#27481F"/>
<path d="M550.178 346.55L541.232 405.134C540.748 408.294 539.149 411.176 536.723 413.258C534.298 415.34 531.207 416.485 528.01 416.485H501.159C497.964 416.48 494.876 415.334 492.452 413.253C490.028 411.171 488.429 408.292 487.942 405.134L478.992 346.55H550.178Z" fill="#FBC343"/>
<path d="M513.09 299.509C513.09 299.509 503.286 241.368 565.638 232.992C565.638 232.983 569.55 296.699 513.09 299.509Z" fill="#49883A"/>
<path opacity="0.4" d="M550.177 346.55L541.231 405.134C540.748 408.294 539.148 411.176 536.723 413.258C534.298 415.34 531.207 416.485 528.01 416.485H501.159C498.344 416.485 495.6 415.596 493.32 413.946C491.039 412.295 489.339 409.966 488.46 407.291C523.342 401.701 532.703 365.794 534.586 346.572L550.177 346.55Z" fill="#C89B35"/>
<path opacity="0.15" d="M420.543 417.626C420.543 410.474 356.814 404.673 278.196 404.673C199.578 404.673 135.85 410.471 135.85 417.626C135.85 423.423 177.777 428.342 235.568 429.989C241.862 440.315 231.357 452.663 223.305 457.118C209.168 457.823 199.02 459.397 200.619 462.75C208.174 478.617 272.387 461.734 272.387 461.734C272.387 461.734 297.495 463.297 297.495 460.907C297.495 459.809 293.074 458.805 285.8 458.042L286.337 458.012L259.23 430.465C265.436 430.543 271.758 430.581 278.196 430.581C356.814 430.581 420.543 424.781 420.543 417.626Z" fill="#1F3C88"/>
<path d="M433.117 322.476C431.24 353.437 415.633 384.376 390.049 401.402C359.552 421.702 316.911 417.211 282.181 419.795C252.157 422.032 221.904 423.951 191.865 420.756C167.257 418.132 142.435 408.383 130.681 384.492C118.904 360.546 117.628 328.731 129.406 304.495C133.145 296.871 138.108 289.912 144.098 283.893C145.059 282.908 146.06 281.946 147.073 281.01C147.759 280.378 148.455 279.753 149.163 279.142C150.246 278.203 151.36 277.287 152.489 276.396C152.864 276.091 153.236 275.817 153.618 275.53C153.999 275.243 154.374 274.956 154.756 274.672C155.137 274.389 155.519 274.108 155.906 273.833L156.776 273.223C157.258 272.877 157.746 272.542 158.24 272.216C162.625 269.266 167.23 266.66 172.017 264.42C176.622 262.249 181.373 260.401 186.235 258.888C202.035 253.985 218.533 252.246 234.835 250.104C269.427 245.564 304.648 244.001 339.514 244.038C367.967 244.038 400.005 248.31 419.029 272.72C429.776 286.508 434.191 304.84 433.117 322.476Z" fill="#5DB3BF"/>
<path d="M374.542 270.181C374.542 270.181 381.865 263.288 385.771 259.297C389.677 255.306 381.173 255.178 376.992 260.148C372.812 265.119 374.542 270.181 374.542 270.181Z" fill="#F9B384"/>
<path d="M172.023 264.411C167.236 266.651 162.631 269.257 158.246 272.207C157.752 272.534 157.264 272.87 156.782 273.214L155.912 273.824C155.525 274.099 155.143 274.382 154.762 274.663C154.38 274.944 153.999 275.228 153.624 275.521C153.248 275.813 152.87 276.097 152.495 276.387C151.381 277.275 150.292 278.181 149.215 279.112L149.169 279.136C148.461 279.746 147.765 280.372 147.079 281.004C146.066 281.94 145.065 282.901 144.104 283.887C144.13 284.3 144.288 284.694 144.553 285.011C144.819 285.328 145.179 285.552 145.581 285.651C151.305 286.81 154.173 292.272 158.786 295.378C162.213 297.682 166.259 298.313 170.134 296.992C165.963 305.841 163.662 314.595 165.462 324.484C166.016 327.476 166.956 330.383 168.257 333.134C162.896 329.167 157.731 320.624 155.607 311.971C155.462 311.381 155.089 310.873 154.57 310.559C154.05 310.244 153.427 310.149 152.838 310.294C152.248 310.439 151.741 310.812 151.426 311.331C151.112 311.85 151.016 312.473 151.161 313.063C153.791 323.773 160.486 334.065 167.443 338.083C168.986 338.988 170.68 339.609 172.444 339.914C173.82 341.685 175.362 343.32 177.051 344.796L187.334 347.67L195.725 293.511L172.023 264.411Z" fill="#79B4B7"/>
<path d="M201.827 300.782C180.566 292.501 165.807 283.695 157.236 277.833C154.519 275.968 152.393 273.361 151.113 270.324C149.832 267.287 149.45 263.946 150.011 260.698L160.974 196.792C161.525 193.552 162.877 190.502 164.907 187.917C166.938 185.333 169.582 183.297 172.599 181.994C188.518 175.152 205.277 170.464 222.435 168.053C228.855 167.663 235.295 167.79 241.694 168.434C248.801 169.136 265.064 173.927 275.401 177.139C278.285 178.034 280.929 179.569 283.135 181.63C285.342 183.691 287.054 186.224 288.143 189.039C292.479 200.213 299.521 219.079 301.767 229.279C309.523 264.493 308.251 261.888 308.251 261.888L316.26 316.047L231.207 320.816L209.467 310.9L201.827 300.782Z" fill="#5DB3BF"/>
<path d="M254.473 107.22C254.473 107.22 246.94 91.772 226.917 98.8295C212.424 95.6807 201.363 112.844 212.043 136.207L232.159 140.879L254.473 107.22Z" fill="#102048"/>
<path d="M243.794 150.89V178.214C243.794 181.289 242.572 184.238 240.398 186.412C238.223 188.587 235.274 189.808 232.199 189.808C228.037 189.807 224.046 188.154 221.103 185.211C218.161 182.268 216.507 178.277 216.506 174.116V150.89H243.794Z" fill="#F9B384"/>
<path d="M243.794 162.225V177.13C231.64 177.191 223.579 161.478 223.579 161.478L243.794 162.225Z" fill="#E28B6D"/>
<path d="M255.804 147.457C255.071 151.241 254.025 155.113 252.523 158.524C249.899 164.51 245.893 169.072 239.775 169.203C225.459 169.508 214.414 149.944 214.414 149.944L216.702 123.245L227.571 111.041L257.524 129.531C257.484 135.546 256.908 141.545 255.804 147.457Z" fill="#F9B384"/>
<path d="M216.226 142.117C216.226 142.117 219.18 130.105 229.477 122.284C229.477 122.284 244.45 141.831 260.277 132.393C276.103 122.956 269.241 104.358 254.461 107.22L237.487 105.313L216.226 112.081L212.601 128.768L216.226 142.117Z" fill="#102048"/>
<path opacity="0.4" d="M231.253 280.586C216.83 249.42 198.648 264.295 194.199 252.853C187.962 236.819 189.146 218.679 189.113 213.187L180.426 262.101C180.426 262.101 199.823 263.932 206.993 275.624L231.253 280.586Z" fill="#1F3C88"/>
<path d="M189.555 212.351C189.015 216.537 188.377 220.705 187.724 224.861C187.071 229.017 186.33 233.175 185.64 237.334C184.951 241.493 184.154 245.631 183.34 249.768L182.098 255.968C181.649 258.031 181.231 260.096 180.746 262.15L180.117 262.04C180.368 259.944 180.685 257.86 180.969 255.77L181.93 249.518C182.585 245.356 183.288 241.2 184.038 237.05C184.816 232.907 185.533 228.754 186.36 224.62C187.187 220.485 188.002 216.351 188.929 212.235L189.555 212.351Z" fill="#1F3C88"/>
<path d="M273.824 204.616C274.977 210.05 276.045 215.5 277.089 220.955C278.132 226.411 279.109 231.876 280.122 237.337C281.135 242.799 282.038 248.276 282.959 253.753L284.29 261.991C284.702 264.737 285.141 267.484 285.51 270.23L284.924 270.333C284.314 267.621 283.795 264.896 283.231 262.174L281.638 253.997C280.611 248.541 279.607 243.08 278.627 237.612C277.69 232.138 276.698 226.676 275.81 221.193C274.922 215.71 274.022 210.23 273.229 204.732L273.824 204.616Z" fill="#1F3C88"/>
<path opacity="0.4" d="M277.855 229.84C278.871 239.757 277.345 291.118 253.445 291.881L253.698 303.07L291.329 300.782L277.855 229.84Z" fill="#1F3C88"/>
<path d="M228.715 290.484C245.689 283.237 248.932 283.506 251.217 283.619C259.038 284 270.288 299.638 270.288 299.638L270.099 302.5H227.189L228.715 290.484Z" fill="#E28B6D"/>
<path d="M293.999 299.702H241.176V307.711H293.999V299.702Z" fill="white"/>
<path d="M365.831 307.717H274.041L294.636 225.691H386.427L365.831 307.717Z" fill="#FBC343"/>
<path d="M374.149 274.169C365.068 272.811 335.703 266.709 275.185 303.58L273.784 308.663L365.831 307.717L374.149 274.169Z" fill="#C89B35"/>
<path d="M375.891 292.391C375.317 296.254 375.128 301.926 363.161 301.212L359.634 299.399L362.969 295.738L370.17 292.076L375.891 292.391Z" fill="#F9B384"/>
<path d="M377.02 281.965C377.02 281.965 383.568 290.508 376.986 293.154C372.519 294.892 367.762 295.766 362.969 295.729C366.02 287.146 375.937 287.719 375.937 287.719L377.02 281.965Z" fill="#F9B384"/>
<path d="M377.209 276.436C377.209 276.436 386.235 284.827 377.844 287.179C365.996 290.499 362.334 290.737 362.334 290.737C361.7 284.445 373.459 280.378 373.459 280.378L377.209 276.436Z" fill="#F9B384"/>
<path d="M375.366 269.125C375.366 269.125 387.699 276.625 376.129 280.82C364.559 285.016 361.825 284.955 361.825 284.955C361.19 278.66 373.587 276.5 373.587 276.5L375.366 269.125Z" fill="#F9B384"/>
<path d="M361.825 284.955C361.825 284.955 375.272 283.048 379.275 279.804" stroke="#E28B6D" stroke-width="2.5" stroke-miterlimit="10"/>
<path d="M362.334 290.737C362.334 290.737 376.318 288.769 380.706 285.718" stroke="#E28B6D" stroke-width="2.5" stroke-miterlimit="10"/>
<path d="M362.969 295.729C362.969 295.729 371.265 296.016 375.937 293.727" stroke="#E28B6D" stroke-width="2.5" stroke-miterlimit="10"/>
<path d="M232.721 415.966C234.118 415.203 256.24 420.033 280.778 401.854L249.121 392.828L232.721 415.966Z" fill="#102048"/>
<path d="M373.282 310.964C374.335 309.462 375.244 307.25 373.916 305.984C372.534 304.657 370.276 305.822 368.827 307.076C366.296 309.27 363.949 311.667 361.809 314.244L308.367 324.176L235.137 341.973L247.73 358.044C284.344 360.714 305.197 361.401 328.111 357.358C339.791 355.295 350.23 353.171 358.013 346.825C359.866 345.299 361.62 342.758 360.415 340.692C359.6 339.297 357.907 338.928 356.204 338.943C360.116 338.025 363.913 336.672 367.524 334.91C369.135 334.132 370.926 332.911 370.881 331.126C370.856 329.845 369.819 328.762 368.629 328.304C367.439 327.846 366.127 327.883 364.854 327.974C359.973 328.35 355.169 329.416 350.587 331.141C358.92 325.304 367.408 319.272 373.282 310.964ZM350.459 331.212C350.459 331.193 350.459 331.187 350.483 331.172C350.509 331.164 350.535 331.154 350.559 331.141C350.529 331.163 350.489 331.187 350.459 331.212Z" fill="#79B4B7"/>
<path d="M250.647 317.945C250.647 317.945 321.97 284 345.235 285.526C368.501 287.051 367.738 316.038 358.966 328.624C350.194 341.211 329.598 357.992 253.698 353.034L250.647 317.945Z" fill="#4F98A2"/>
<path d="M286.337 458.012C282.477 459.104 277 459.37 269.464 458.171C269.464 458.171 259.7 460.703 250.089 462.696C243.583 464.044 237.151 465.136 233.865 465.036C233.581 465.036 233.301 465.014 233.011 464.99C226.701 464.542 218.752 461.252 214.536 456.553C214.536 456.553 214.52 456.523 214.505 456.517C213.384 455.311 212.529 453.884 211.994 452.327C209.705 445.203 214.542 436.562 240.73 438.337C240.73 438.337 249.372 436.308 251.41 429.947C253.448 423.585 238.442 393.082 238.442 393.082L259.801 378.588L280.778 401.854C280.778 401.854 283.957 422.831 283.957 429.696C283.957 429.696 292.852 442.411 294.127 448.004C294.942 451.574 293.157 456.08 286.337 458.012Z" fill="#D3DFFF"/>
<path d="M166.25 264.82C168.691 263.877 171.186 263.117 173.707 262.415C174.97 262.071 176.239 261.75 177.533 261.5C178.177 261.369 178.83 261.256 179.492 261.168C179.824 261.122 180.154 261.088 180.499 261.061C180.856 261.041 181.214 261.047 181.57 261.079C184.316 261.384 186.793 262.229 189.262 263.142C191.73 264.054 194.119 265.122 196.478 266.257C198.837 267.392 201.146 268.622 203.414 269.918C205.681 271.215 207.905 272.6 210.071 274.068C214.374 277.04 218.514 280.302 222.075 284.137L221.623 284.589C219.707 282.856 217.711 281.219 215.634 279.679C213.574 278.123 211.444 276.665 209.263 275.279C204.92 272.484 200.417 269.946 195.776 267.679C193.463 266.535 191.111 265.476 188.719 264.53C186.327 263.639 183.88 262.681 181.445 262.351C181.154 262.312 180.862 262.295 180.569 262.3C180.264 262.3 179.959 262.339 179.654 262.373C179.025 262.44 178.393 262.531 177.762 262.641C176.499 262.861 175.232 263.117 173.972 263.401C171.455 263.975 168.944 264.64 166.478 265.403L166.25 264.82Z" fill="#1F3C88"/>
<path d="M178.943 364.668C187.523 364.095 195.956 364.708 202.08 362.569C208.628 360.281 225.727 361.806 225.727 361.806L216.333 348.268L178.192 357.803L178.943 364.668Z" fill="#B35341"/>
<path d="M179.324 339.685C170.552 325.573 170.552 297.73 181.613 285.144C194.254 270.761 221.279 265.311 235.391 282.093C249.503 298.875 275.438 360.281 280.778 401.854C280.778 401.854 252.172 392.319 232.721 415.966C232.721 415.966 207.167 357.611 201.827 336.252L187.334 347.694L179.324 339.685Z" fill="#4F98A2"/>
<path d="M201.827 336.252C201.827 336.252 198.013 334.855 192.673 338.413C192.673 338.413 150.972 337.525 141.693 346.932C132.414 356.339 139.53 368.925 153.135 370.325C164.55 371.497 186.699 362.642 193.543 359.765C194.929 359.179 196.404 358.829 197.906 358.731L209.196 357.992L201.827 336.252Z" fill="#D3DFFF"/>
<path d="M218.469 142.895C218.469 142.895 215.671 133.626 209.516 135.942C203.362 138.258 206.642 150.325 218.786 153.682L218.469 142.895Z" fill="#F9B384"/>
<path d="M211.927 194.007C214.928 196.169 218.189 197.946 221.633 199.298C225.062 200.585 228.681 201.4 232.312 201.311C235.947 201.262 239.521 200.375 242.756 198.718L243.977 198.108C244.377 197.888 244.743 197.61 245.127 197.366C245.908 196.887 246.652 196.35 247.352 195.758L248.423 194.889L248.96 194.452C249.137 194.303 249.289 194.147 249.457 193.97C250.106 193.317 250.766 192.668 251.437 192.023L251.895 192.408C251.285 193.132 250.674 193.853 250.064 194.571C249.908 194.748 249.759 194.934 249.594 195.105L249.079 195.593L248.035 196.582C247.337 197.232 246.59 197.827 245.802 198.364C245.411 198.642 245.039 198.947 244.633 199.197L243.382 199.911C240.003 201.804 236.2 202.812 232.327 202.84C228.482 202.832 224.679 202.038 221.151 200.509C217.662 199.011 214.427 196.981 211.561 194.492L211.927 194.007Z" fill="#1F3C88"/>
<path d="M195.505 311.9L198.809 323.465C199.935 327.312 200.985 331.178 202.166 335.007C203.346 338.837 204.463 342.678 205.668 346.492C206.279 348.399 206.868 350.312 207.53 352.198C207.835 353.144 208.14 354.105 208.485 355.045C208.83 355.985 209.159 356.927 209.482 357.876L208.93 358.108C208.078 356.278 207.277 354.431 206.529 352.567C205.778 350.697 205.095 348.805 204.393 346.916C203.038 343.127 201.839 339.288 200.704 335.435C199.569 331.581 198.516 327.7 197.561 323.797C196.606 319.895 195.682 315.986 194.919 312.038L195.505 311.9Z" fill="#102048"/>
<path opacity="0.1" d="M286.337 458.012C282.477 459.104 277 459.37 269.464 458.171C269.464 458.171 253.317 462.308 243.113 463.928C253.603 461.829 268.86 448.861 267.142 440.663C282.209 445.621 286.307 453.154 286.337 458.012Z" fill="#1F3C88"/>
<path opacity="0.4" d="M245.78 459.446C243.834 461.841 240.935 463.464 237.893 464.282C236.298 464.705 234.66 464.942 233.011 464.99C226.701 464.541 218.752 461.252 214.536 456.553C214.536 456.553 214.52 456.523 214.505 456.517C214.058 455.91 213.651 455.275 213.285 454.616C215.465 456.664 217.932 458.383 220.608 459.721C221.915 460.37 223.27 460.921 224.66 461.368C225.337 461.628 226.048 461.78 226.75 461.978C227.453 462.163 228.166 462.305 228.886 462.406C234.558 463.367 240.608 462.772 245.78 459.446Z" fill="#1F3C88"/>
<path d="M215.722 144.211C215.551 143.378 215.213 142.589 214.728 141.892C214.28 141.187 213.711 140.567 213.046 140.061C212.397 139.606 211.692 139.38 211.097 139.701C210.502 140.021 209.977 140.772 209.544 141.532L209.123 141.385C209.306 140.47 209.638 139.484 210.587 138.828C211.076 138.505 211.67 138.382 212.247 138.486C212.776 138.587 213.275 138.805 213.709 139.124C214.497 139.72 215.135 140.493 215.573 141.379C216.055 142.235 216.268 143.216 216.183 144.195L215.722 144.211Z" fill="#E28B6D"/>
<path d="M252.01 143.979C251.742 145.294 250.75 146.203 249.795 146.011C248.84 145.819 248.285 144.592 248.553 143.265C248.822 141.937 249.811 141.04 250.766 141.236C251.721 141.431 252.276 142.664 252.01 143.979Z" fill="#102048"/>
<path d="M237.141 143.397C237.357 142.072 236.753 140.87 235.792 140.713C234.831 140.557 233.876 141.504 233.66 142.83C233.444 144.155 234.048 145.357 235.009 145.513C235.971 145.67 236.925 144.723 237.141 143.397Z" fill="#102048"/>
<path d="M243.455 145.193C243.547 146.276 243.589 147.353 243.602 148.409C243.662 148.833 243.861 149.225 244.169 149.523C244.568 149.921 244.939 150.347 245.277 150.798C245.467 151.075 245.601 151.386 245.673 151.714C245.743 152.032 245.765 152.359 245.738 152.684C245.688 153.333 245.443 153.952 245.036 154.46C244.819 154.714 244.552 154.922 244.252 155.07C243.947 155.21 243.614 155.28 243.278 155.274C242.672 155.237 242.089 155.025 241.6 154.664L241.811 154.27C242.263 154.451 242.751 154.52 243.236 154.472C243.44 154.445 243.637 154.373 243.81 154.261C243.984 154.149 244.13 154 244.239 153.825C244.706 153.129 244.773 152.043 244.325 151.384C244.09 151.009 243.715 150.655 243.33 150.188C242.888 149.693 242.637 149.055 242.625 148.391C242.708 147.283 242.842 146.197 243.01 145.117L243.455 145.193Z" fill="#E28B6D"/>
<path d="M231.159 138.807C231.774 138.19 232.498 137.691 233.295 137.336C234.125 136.955 235.036 136.78 235.949 136.827C236.879 136.886 237.771 137.214 238.518 137.769C239.227 138.3 239.812 138.977 240.233 139.756L239.879 140.03C239.299 139.497 238.668 139.02 237.997 138.608C237.352 138.237 236.633 138.015 235.891 137.959C234.411 137.846 232.907 138.431 231.436 139.161L231.159 138.807Z" fill="#102048"/>
<path d="M246.68 140.113C246.974 139.307 247.574 138.649 248.349 138.282C249.105 137.9 249.944 137.712 250.79 137.736C251.636 137.749 252.464 137.977 253.198 138.398C253.93 138.814 254.508 139.457 254.845 140.229L254.47 140.473C253.486 139.482 252.156 138.913 250.76 138.886C249.411 138.856 247.98 139.228 247.098 140.32L246.68 140.113Z" fill="#102048"/>
<path d="M236.267 158.024L246.384 158.747C246.384 158.747 240.743 166.231 236.267 158.024Z" fill="white"/>
<path opacity="0.4" d="M255.803 147.457C255.071 151.241 254.024 155.113 252.523 158.524C251.325 157.955 250.355 156.995 249.775 155.802C249.194 154.609 249.037 153.254 249.329 151.96C249.621 150.666 250.344 149.509 251.381 148.681C252.417 147.853 253.704 147.402 255.031 147.402C255.29 147.401 255.548 147.419 255.803 147.457Z" fill="#FFAA72"/>
<path opacity="0.4" d="M232.317 157.3C235.295 156.049 236.696 152.62 235.445 149.642C234.194 146.663 230.765 145.263 227.787 146.514C224.809 147.764 223.408 151.193 224.659 154.171C225.91 157.15 229.338 158.55 232.317 157.3Z" fill="#FFAA72"/>
<path d="M147.799 140.345C154.373 133.058 158.043 123.611 158.11 113.797C158.178 103.983 154.638 94.4855 148.165 87.1092C141.691 79.7329 132.734 74.9909 122.994 73.784C113.254 72.577 103.411 74.9891 95.3322 80.5621C87.2538 86.1352 81.5035 94.481 79.1733 104.015C76.8432 113.548 78.0955 123.606 82.6924 132.277C87.2893 140.948 94.9107 147.628 104.109 151.05C113.307 154.472 123.442 154.396 132.589 150.838L154.088 159.613L147.799 140.345Z" fill="white" stroke="#5DB3BF" stroke-width="3.5" stroke-miterlimit="10"/>
<path d="M100.187 118.757C102.55 118.757 104.465 116.842 104.465 114.479C104.465 112.117 102.55 110.201 100.187 110.201C97.8247 110.201 95.9094 112.117 95.9094 114.479C95.9094 116.842 97.8247 118.757 100.187 118.757Z" fill="#5DB3BF"/>
<path d="M118.071 118.757C120.433 118.757 122.348 116.842 122.348 114.479C122.348 112.117 120.433 110.201 118.071 110.201C115.708 110.201 113.793 112.117 113.793 114.479C113.793 116.842 115.708 118.757 118.071 118.757Z" fill="#5DB3BF"/>
<path d="M135.954 118.757C138.316 118.757 140.232 116.842 140.232 114.479C140.232 112.117 138.316 110.201 135.954 110.201C133.591 110.201 131.676 112.117 131.676 114.479C131.676 116.842 133.591 118.757 135.954 118.757Z" fill="#5DB3BF"/>
<path d="M250.201 0.533966H171.427C169.276 0.540409 167.214 1.39832 165.692 2.92026C164.171 4.44219 163.314 6.50442 163.308 8.65635V42.4579C163.314 44.6099 164.171 46.6721 165.692 48.194C167.214 49.716 169.276 50.5739 171.427 50.5803H178.702L190.525 68.3507L194.04 50.5803H250.201C252.353 50.5739 254.416 49.7161 255.938 48.1942C257.459 46.6724 258.317 44.6102 258.324 42.4579V8.65635C258.317 6.50414 257.459 4.44192 255.938 2.92007C254.416 1.39822 252.353 0.540405 250.201 0.533966Z" fill="white" stroke="#5DB3BF" stroke-width="3.5" stroke-miterlimit="10"/>
<path d="M244.553 12.8396H177.078V16.7146H244.553V12.8396Z" fill="#5DB3BF"/>
<path d="M244.553 23.0582H177.078V26.9332H244.553V23.0582Z" fill="#C6EAE9"/>
<path d="M244.553 33.2798H177.078V37.1548H244.553V33.2798Z" fill="#C6EAE9"/>
</g>
<defs>
<clipPath id="clip0_105_399">
<rect width="610" height="469.549" fill="white"/>
</clipPath>
</defs>
</svg>
