<svg width="573" height="426" viewBox="0 0 573 426" fill="none" xmlns="http://www.w3.org/2000/svg">
<path d="M531.841 355.127C531.792 355.127 531.743 355.134 531.694 355.134L532.124 347.682H494.216L496.043 379.296C496.384 385.222 501.289 389.852 507.227 389.852H519.116C525.051 389.852 529.956 385.222 530.3 379.296L530.721 372C531.09 372.034 531.463 372.055 531.844 372.055C537.38 372.055 541.881 368.258 541.881 363.591C541.878 358.925 537.376 355.127 531.841 355.127ZM531.841 368.547C531.527 368.547 531.222 368.526 530.92 368.493L531.49 358.644C531.606 358.638 531.722 358.632 531.841 358.632C535.443 358.632 538.371 360.855 538.371 363.591C538.371 366.324 535.443 368.547 531.841 368.547Z" fill="#F4DB9D"/>
<path d="M517.009 344.815C513.291 344.333 509.783 342.177 507.395 339.103C506.203 337.559 505.251 335.781 504.723 333.848C504.571 333.369 504.482 332.881 504.376 332.393C504.309 331.902 504.214 331.408 504.187 330.913C504.083 329.922 504.122 328.928 504.202 327.94C504.397 325.966 504.937 324.033 505.818 322.255C506.254 321.364 506.776 320.513 507.38 319.726C507.969 318.936 508.679 318.186 509.35 317.573C510.018 316.951 510.662 316.414 511.211 315.877C511.491 315.612 511.747 315.349 511.973 315.078C512.202 314.803 512.397 314.529 512.54 314.273C512.861 313.736 513.053 313.074 513.071 312.452C513.092 311.823 512.949 311.25 512.543 310.78L513.498 309.39C514.011 309.646 514.462 310.061 514.804 310.539C515.136 311.024 515.359 311.567 515.493 312.113C515.752 313.217 515.673 314.334 515.343 315.407C514.587 317.561 513.15 318.967 512.08 320.226C511.537 320.861 511.092 321.422 510.695 322.065C510.485 322.373 510.314 322.709 510.122 323.029C509.963 323.368 509.777 323.694 509.64 324.045C509.033 325.414 508.661 326.887 508.493 328.376C508.176 331.371 508.826 334.363 510.418 336.995C512.025 339.612 514.459 341.805 517.46 343.193L517.009 344.815Z" fill="#E5ECFF"/>
<path d="M518.144 335.943C519.669 334.592 520.904 333.134 521.843 331.536C522.789 329.947 523.435 328.242 523.731 326.506C524.024 324.771 523.978 322.959 523.649 321.147C523.31 319.333 522.673 317.545 521.743 315.718L522.972 314.562C524.942 315.819 526.427 317.826 527.293 320.062C528.169 322.303 528.422 324.826 527.974 327.26C527.528 329.693 526.4 331.95 524.814 333.75C523.225 335.537 521.16 336.91 518.9 337.45L518.144 335.943Z" fill="#E5ECFF"/>
<path d="M218.899 397.376C170.489 388.003 136.296 359.797 120.423 316.103C95.1755 246.599 122.229 144.141 194.602 121.632C223.266 112.716 258.463 128.68 287.911 128.464C329.272 128.159 366.464 102.777 407.55 106.013C461.041 110.225 500.139 159.503 510.171 209.502C513.614 226.664 514.014 244.425 511.257 261.7C508.261 280.473 502.161 298.864 492.905 315.13C484.929 329.144 466.486 347.698 450.796 351.434C450.796 351.434 218.899 397.376 218.899 397.376Z" stroke="#F4DB9D" stroke-width="3.8197" stroke-miterlimit="10"/>
<path d="M348.481 389.614C396.323 377.801 432.88 342.125 445.486 301.304C465.537 236.369 430.629 145.013 356.331 129.449C341.24 126.289 325.334 127.088 310.023 128.857C285.013 131.748 259.357 135.381 234.152 134.576C209.639 133.792 185.87 126.588 161.165 127.143C79.5196 128.982 30.625 206.949 49.3642 278.347C53.7928 295.219 61.305 311.534 71.8244 325.701C80.889 337.907 100.793 353.532 116.812 355.865C116.812 355.868 348.481 389.614 348.481 389.614Z" stroke="#F4DB9D" stroke-width="3.75" stroke-miterlimit="10"/>
<path d="M468.548 311.714C455.713 348.847 440.387 385.515 387.082 399.676L156.676 397.227C104.756 372.705 76.3849 324.286 71.6665 272.048C70.1049 254.785 71.1267 237.095 74.747 219.726C75.6925 215.151 76.821 210.597 78.1325 206.086C90.0336 165.048 115.23 126.359 152.705 104.536C176.785 90.5124 207.651 95.1423 233.225 102.34C256.283 108.831 278.807 117.92 302.613 120.656C321.577 122.83 340.869 120.9 359.892 121.647C366.699 121.912 373.464 122.522 380.174 123.782C408.911 129.18 434.388 146.803 451.87 170.364C457.894 178.462 462.966 187.261 466.907 196.503C482.303 232.652 481.382 274.58 468.548 311.714Z" fill="#FFEEC7"/>
<path d="M30.2624 367.943C29.2132 355.185 36.3563 341.433 48.904 332.045C60.3323 323.499 74.4325 319.14 87.9684 315.706C163.175 296.616 242.613 298.895 319.436 301.097C388.091 303.067 459.083 305.101 527.049 291.937C536.724 290.065 546.896 287.783 555.549 282.415C564.845 276.648 570.732 267.611 570.911 258.836C571.244 242.378 553.417 231.099 542.76 225.841C502.29 205.87 452.492 198.357 386.051 202.194C336.049 205.083 285.895 213.135 236.979 226.125C225.987 229.043 214.821 232.273 204.021 235.394C165.359 246.572 125.386 258.125 84.6103 258.125C84.406 258.125 84.2016 258.125 83.9973 258.125C72.9288 258.095 58.7189 255.853 53.8755 245.352C50.4595 237.94 53.3326 229.498 56.346 223.721C66.4171 204.412 85.4704 193.157 99.6804 187.115C115.644 180.329 132.989 176.641 149.764 173.073C151.756 172.649 153.748 172.225 155.733 171.798C193.209 163.725 230.666 153.629 267.064 141.786C284.336 136.165 293.203 128.857 294.164 119.445C295.018 111.097 288.89 103.783 282.439 100.242C274.708 95.9963 265.576 95.4473 258.482 95.4412C258.448 95.4412 258.415 95.4412 258.381 95.4412C236.973 95.4412 215.733 100.693 196.939 110.636C189.957 114.33 183.22 118.722 176.708 122.971C168.083 128.595 159.165 134.411 149.554 138.69C130.964 146.962 108.958 150.009 84.1437 147.746C64.9866 145.998 50.3832 141.295 39.4978 133.365C32.9311 128.579 27.4503 122.409 22.1494 116.44C15.7078 109.188 9.04658 101.688 0.488281 96.8137L1.05558 95.8194C9.77858 100.785 16.5038 108.358 23.0064 115.681C28.2677 121.604 33.7058 127.729 40.1718 132.441C50.8834 140.246 65.3008 144.879 84.2474 146.608C108.861 148.853 130.681 145.836 149.09 137.647C158.622 133.408 167.5 127.616 176.086 122.016C182.622 117.752 189.381 113.345 196.408 109.627C215.364 99.5984 236.793 94.3005 258.384 94.3005C258.418 94.3005 258.451 94.3005 258.485 94.3005C265.713 94.3066 275.034 94.8739 282.991 99.2415C289.775 102.966 296.21 110.694 295.304 119.564C294.289 129.476 285.169 137.101 267.418 142.875C230.986 154.73 193.489 164.838 155.974 172.917C153.986 173.344 151.994 173.768 150.002 174.192C133.273 177.749 115.983 181.427 100.12 188.167C86.0804 194.133 67.268 205.238 57.3525 224.249C54.458 229.8 51.6825 237.882 54.9064 244.873C59.4966 254.825 73.2552 256.951 83.9912 256.981C84.1925 256.981 84.3999 256.981 84.6012 256.981C125.215 256.981 165.106 245.449 203.695 234.296C214.498 231.172 225.673 227.942 236.677 225.02C285.669 212.009 335.9 203.945 385.978 201.054C452.626 197.201 502.604 204.753 543.26 224.816C554.161 230.196 572.397 241.771 572.049 258.86C571.863 268.019 565.769 277.419 556.146 283.388C547.326 288.86 537.041 291.166 527.26 293.06C459.172 306.245 388.113 304.211 319.396 302.24C242.655 300.041 163.297 297.766 88.2429 316.816C74.8229 320.223 60.8508 324.536 49.5841 332.963C37.3506 342.116 30.3813 355.484 31.4 367.852L30.2624 367.943Z" fill="white"/>
<path d="M362.724 368.392C378.279 372.381 399.654 375.956 392.84 389.257L354.087 389.22L362.724 368.392Z" fill="#F4DB9D"/>
<path d="M201.825 399.679H164.337C151.536 399.679 141.16 389.303 141.16 376.502V299.941C141.16 287.14 151.536 276.764 164.337 276.764H201.825C214.625 276.764 225.002 287.14 225.002 299.941V376.502C225.002 389.303 214.622 399.679 201.825 399.679Z" fill="#102048"/>
<path opacity="0.8" d="M159.829 288.095C158.42 288.464 157.472 289.748 156.837 291.062C156.187 292.398 155.785 293.862 155.459 295.329C154.821 298.275 154.522 301.301 154.354 304.33C154.046 310.39 154.171 316.481 154.544 322.55C154.888 328.623 155.446 334.689 156.178 340.731C156.532 343.754 156.941 346.77 157.407 349.781C157.853 352.791 158.356 355.795 158.969 358.778L158.533 358.876C157.804 355.908 157.179 352.916 156.621 349.912C156.087 346.905 155.611 343.885 155.19 340.86C154.373 334.805 153.772 328.717 153.415 322.614C153.104 316.511 152.951 310.384 153.394 304.266C153.629 301.21 153.976 298.15 154.708 295.149C155.096 293.658 155.559 292.169 156.294 290.785C156.663 290.095 157.099 289.427 157.661 288.86C158.219 288.293 158.929 287.835 159.732 287.661L159.829 288.095Z" fill="white"/>
<path d="M174.171 296.195C174.171 296.195 176.544 344.303 191.477 397.227H232.283L174.171 296.195Z" fill="#1F3C88"/>
<path d="M192.888 271.637C182.634 266.058 179.822 252.239 187.31 243.262C188.029 242.399 188.831 241.524 189.716 240.642C201.157 229.248 194.029 217.844 192.43 191.626C190.832 165.433 220.012 158.28 220.07 158.265C221.445 157.93 224.108 154.001 225.233 153.025C238.403 141.603 257.295 142.445 271.733 151.14C278.602 155.276 285.513 161.648 289.231 168.952C295.127 180.542 296.195 195.811 306.122 204.836C320.277 217.7 335.976 228.622 335.341 249.372C335.116 256.743 333.27 264.53 328.781 270.438C324.864 275.586 318.902 279.042 313.522 282.373C304.774 287.786 295.539 292.575 285.77 295.79C276.312 298.904 266.75 301.7 257.164 304.369C256.258 304.622 255.352 304.872 254.443 305.12L192.888 271.637Z" fill="#6F3428"/>
<path d="M259.616 260.306C293.889 248.539 312.503 286.899 338.099 361.746L362.728 368.392L359.867 395.046L350.881 396.919L277.511 397.227L259.616 260.306Z" fill="#F4DB9D"/>
<path d="M551.618 388.394H30.4824V406.355H551.618V388.394Z" fill="#F4DB9D"/>
<path d="M211.335 254.731L287.978 273.912L320.177 370.399L212.607 373.678L205.491 302.335L211.335 254.731Z" fill="#F4DB9D"/>
<path opacity="0.3" d="M214.037 296.195C232.868 315.151 228.704 342.93 244.79 345.688C255.438 347.512 285.703 351.836 300.141 357.854C303.06 359.071 311.121 365.067 309.874 370.384C309.069 373.812 298.327 371.067 298.327 371.067L217.904 362.996L200.873 323.59L214.037 296.195Z" fill="#1F3C88"/>
<path d="M280.191 365.683C280.737 364.82 292.269 362.536 293.572 362.713C297.86 363.298 300.202 366.659 301.236 369.228L284.175 378.225L280.191 365.683Z" fill="#102048"/>
<path d="M292.956 296.11L294.935 300.621C295.585 302.127 296.195 303.653 296.826 305.171C298.04 308.221 299.215 311.293 300.316 314.389C302.545 320.571 304.519 326.839 306.37 333.143C308.188 339.456 309.822 345.822 311.268 352.23C311.964 355.442 312.641 358.656 313.238 361.886C313.824 365.119 314.327 368.367 314.754 371.625L314.33 371.686C313.794 368.453 313.177 365.235 312.488 362.036C311.829 358.827 311.094 355.634 310.338 352.446C308.819 346.072 307.151 339.737 305.327 333.445C303.536 327.144 301.545 320.9 299.443 314.697C298.406 311.589 297.278 308.514 296.137 305.443C295.555 303.912 294.996 302.371 294.396 300.846L292.562 296.284L292.956 296.11Z" fill="#102048"/>
<path d="M354.219 381.964C354.219 381.964 350.995 385.777 340.814 382.062C336.019 382.62 327.098 382.193 310.131 379.424C310.131 379.424 316.292 383.73 330.221 384.471C330.221 384.471 329.626 388.574 322.285 388.391C313.446 388.168 312.427 387.634 304.375 387.97C302.728 388.04 299.145 387.964 295.262 387.842C288.491 387.622 280.799 387.262 280.799 387.262L274.089 375.27L287.478 368.855C291.59 367.245 293.639 366.69 295.637 366.409C304.284 365.18 309.743 364.204 315.944 365.272C322.828 366.455 343.864 373.43 354.219 381.964Z" fill="#F9B384"/>
<path d="M295.637 387.637L295.265 387.845C288.494 387.625 280.802 387.265 280.802 387.265L274.092 375.273L287.481 368.859C291.593 367.248 293.642 366.693 295.64 366.412C290.714 368.416 286.685 373.678 295.637 387.637Z" fill="#F4DB9D"/>
<path d="M242.926 260.175C225.505 256.606 183.052 253.636 171.19 275.614C161.424 293.71 185.904 354.301 196.508 375.614C200.873 384.386 213.546 388.726 218.475 388.76L288.469 388.357C283.76 387.265 277.724 361.996 293.575 362.713L235.606 354.636C233.346 354.322 231.33 353.059 230.071 351.156C229.232 349.887 228.259 348.286 227.762 346.468L211.31 286.2L242.926 260.175Z" fill="#F4DB9D"/>
<path d="M397.799 388.76L329.51 388.717V382.275H398.196L397.799 388.76Z" fill="white"/>
<path d="M455.497 388.76L373.119 388.735L403.168 300.871L485.545 300.895L455.497 388.76Z" fill="#102048"/>
<path d="M435.968 349.506C433.442 353.538 428.724 355.195 425.125 353.426C424.911 353.328 424.704 353.212 424.5 353.084C420.831 350.796 420.031 345.474 422.7 341.213C425.369 336.943 430.502 335.342 434.168 337.636C435.275 338.328 436.111 339.292 436.684 340.42C437.996 343.031 437.828 346.533 435.968 349.506Z" fill="white"/>
<path d="M435.967 349.506C433.442 353.538 427.238 356.469 422.889 351.675C432.322 352.532 435.497 346.353 435.32 338.542C438.547 342.11 437.828 346.533 435.967 349.506Z" fill="#708CD5"/>
<path d="M315.978 365.052C319.479 365.568 322.868 366.547 326.226 367.59C329.584 368.642 332.884 369.871 336.129 371.234C339.387 372.564 342.568 374.098 345.654 375.797C348.726 377.523 351.715 379.442 354.359 381.793L354.075 382.138C352.675 381.098 351.233 380.122 349.738 379.231C348.256 378.316 346.731 377.475 345.182 376.679C342.092 375.071 338.926 373.592 335.69 372.281C332.497 370.872 329.212 369.676 325.921 368.508C324.274 367.928 322.615 367.382 320.943 366.873C319.278 366.351 317.594 365.873 315.898 365.497L315.978 365.052Z" fill="#6F3428"/>
<path d="M314.62 381.312L318.305 382.367C319.534 382.696 320.766 382.98 322.007 383.233C323.246 383.489 324.496 383.684 325.753 383.861C327.009 384.026 328.272 384.151 329.538 384.279L329.959 384.322L329.992 384.685C330.038 385.182 329.986 385.6 329.855 386.045C329.721 386.478 329.474 386.902 329.117 387.207C328.76 387.506 328.339 387.698 327.918 387.79C327.708 387.842 327.497 387.851 327.29 387.878L326.671 387.863V387.415L327.223 387.332C327.397 387.28 327.58 387.253 327.742 387.186C328.074 387.067 328.358 386.878 328.574 386.646C328.791 386.414 328.937 386.127 329.007 385.81C329.077 385.502 329.083 385.127 329.032 384.847L329.486 385.252C326.9 385.203 324.307 384.895 321.776 384.31C320.51 384.02 319.266 383.645 318.042 383.212C316.816 382.791 315.633 382.275 314.465 381.736L314.62 381.312Z" fill="#6F3428"/>
<path d="M311.5 372.433C314.462 372.811 317.442 373.104 320.421 373.406C323.398 373.735 326.384 374.022 329.361 374.495C332.326 374.968 335.272 375.507 338.221 376.041C341.168 376.581 344.114 377.121 347.051 377.716L347.746 377.856L347.451 378.503C347.255 378.923 347.069 379.558 346.691 380.085C346.529 380.369 346.273 380.583 346.06 380.824C345.807 381.01 345.557 381.22 345.288 381.37C344.208 382.001 343.052 382.214 341.921 382.437C339.649 382.809 337.383 382.794 335.135 382.718C334.009 382.675 332.887 382.629 331.767 382.529C330.648 382.446 329.529 382.364 328.416 382.224C326.186 381.992 323.969 381.675 321.751 381.354L321.806 380.912C324.033 381.095 326.253 381.342 328.48 381.473C329.593 381.559 330.703 381.629 331.816 381.678C332.93 381.748 334.04 381.769 335.15 381.781C337.364 381.79 339.597 381.751 341.741 381.394C342.79 381.184 343.873 380.955 344.73 380.436C344.947 380.314 345.123 380.153 345.322 380.012C345.468 379.829 345.663 379.686 345.77 379.475C346.048 379.088 346.173 378.628 346.432 378.03L346.831 378.817C340.951 377.71 335.077 376.523 329.187 375.504C326.259 374.971 323.285 374.611 320.318 374.214C317.35 373.802 314.376 373.424 311.421 372.878L311.5 372.433Z" fill="#6F3428"/>
<path d="M30.4824 388.394H551.618" stroke="#102048" stroke-width="5" stroke-miterlimit="10"/>
<path d="M234.356 283.01C236.888 284.733 239.706 285.99 242.652 286.682C245.595 287.362 248.664 287.542 251.631 287.027C254.599 286.557 257.46 285.41 259.866 283.614C262.294 281.842 264.219 279.414 265.573 276.675L265.985 276.852C265.667 277.563 265.341 278.277 265.006 278.987C264.624 279.67 264.173 280.32 263.755 280.991C263.291 281.628 262.736 282.199 262.23 282.806C261.684 283.376 261.059 283.87 260.473 284.41C257.978 286.383 254.944 287.643 251.817 288.149C248.685 288.631 245.455 288.464 242.417 287.622C239.376 286.795 236.509 285.353 234.091 283.37L234.356 283.01Z" fill="#102048"/>
<path d="M214.245 296.137L218.066 309.127L221.827 322.136L225.548 335.153L227.399 341.665L228.324 344.922C228.641 346.011 228.903 347.118 229.33 348.064C230.169 350.031 231.865 351.486 233.786 352.489C235.729 353.483 237.882 354.1 240.057 354.578C242.244 355.048 244.455 355.365 246.7 355.655L253.407 356.564L266.818 358.421L280.219 360.349L280.164 360.773L266.717 359.178L253.279 357.512L246.563 356.658C244.33 356.381 242.067 356.067 239.837 355.6C237.611 355.118 235.378 354.499 233.292 353.444C231.236 352.392 229.278 350.751 228.342 348.512C228.205 348.247 228.107 347.963 228.015 347.679C227.921 347.399 227.817 347.109 227.75 346.844L227.296 345.215L226.384 341.954L224.563 335.434L220.939 322.389L217.356 309.332L213.833 296.256L214.245 296.137Z" fill="#102048"/>
<path d="M257.777 232.926L261.209 262.474C262.23 271.268 252.961 278.639 243.564 276.203C238.193 274.809 232.593 271.091 226.801 265.503C225.609 264.356 224.886 262.868 224.724 261.285L221.064 225.673L257.777 232.926Z" fill="#F9B384"/>
<path d="M258.243 236.943L260.113 253.032C252.521 254.221 241.819 249.954 230.958 235.543L258.243 236.943Z" fill="#3C1C16"/>
<path d="M276.967 211.652C276.528 217.011 275.683 222.608 274.18 227.637C271.639 236.089 267.211 242.909 259.619 244.171C237.269 247.886 221.073 225.667 221.073 225.667L218.475 195.432L231.965 172.097L262.169 171.222L276.897 188.646C276.894 188.646 277.959 199.513 276.967 211.652Z" fill="#F9B384"/>
<path d="M217.748 206.922C229.747 206.028 232.507 195.887 233.328 182.744C233.328 182.744 265.826 174.695 277.361 197.796L286.108 198.745L259.616 163.572L218.441 168.486L210.386 195.213L217.748 206.922Z" fill="#6F3428"/>
<path d="M224.096 202.981C222.684 201.426 220.577 200.633 218.49 200.886C210.521 201.85 209.136 212.406 210.957 216.895C213.684 223.617 221.068 225.664 221.068 225.664L227.412 218.954C227.921 211.966 227.128 206.321 224.096 202.981Z" fill="#F9B384"/>
<path opacity="0.15" d="M224.227 233.774C228.607 246.23 242.082 281.4 220.073 280.515C209.465 280.088 200.144 259.516 185.025 263.399C186.694 262.594 188.569 261.862 190.68 261.215L224.227 233.774Z" fill="#3C1C16"/>
<path d="M221.067 225.664C225.313 233.728 237.189 273.622 216.959 271.316C207.208 270.206 204.814 258.461 190.677 261.212L221.067 225.664Z" fill="#6F3428"/>
<path d="M221.763 210.289C221.793 209.353 221.498 208.492 221.037 207.767C220.564 207.047 219.908 206.449 219.164 206.12C218.423 205.784 217.618 205.72 216.855 205.995C216.087 206.269 215.398 206.873 214.723 207.574L214.232 207.282C214.617 206.321 215.279 205.366 216.331 204.82C216.593 204.689 216.862 204.555 217.16 204.509C217.453 204.439 217.749 204.378 218.051 204.402L218.502 204.418L218.939 204.509C219.234 204.558 219.506 204.671 219.771 204.796C220.83 205.293 221.659 206.153 222.135 207.172C222.623 208.178 222.721 209.392 222.324 210.405L221.763 210.289Z" fill="#3C1C16"/>
<path d="M264.524 205.784C264.597 207.84 265.793 209.465 267.199 209.417C268.605 209.368 269.684 207.663 269.611 205.607C269.538 203.551 268.342 201.926 266.936 201.975C265.533 202.023 264.454 203.731 264.524 205.784Z" fill="#3C1C16"/>
<path d="M242.366 206.562C242.439 208.618 243.635 210.243 245.041 210.194C246.447 210.146 247.526 208.441 247.453 206.385C247.38 204.329 246.184 202.704 244.778 202.752C243.375 202.801 242.293 204.506 242.366 206.562Z" fill="#3C1C16"/>
<path d="M264.244 226.704C263.277 227.921 262.109 229.062 260.59 229.815C259.059 230.553 257.183 230.648 255.573 230.172C253.947 229.708 252.559 228.827 251.318 227.848C250.061 226.878 248.988 225.728 248.015 224.514L248.475 224.038C249.741 224.914 250.927 225.847 252.184 226.634C253.428 227.43 254.706 228.162 256.039 228.546C257.369 228.943 258.717 228.921 260.026 228.476C261.325 227.991 262.548 227.131 263.777 226.225L264.244 226.704Z" fill="#3C1C16"/>
<path d="M272.027 199.437C271.036 198.754 270.115 198.104 269.179 197.686C268.236 197.284 267.33 197.07 266.397 197.177C265.464 197.265 264.506 197.595 263.515 198.025C262.52 198.458 261.544 199.041 260.425 199.538L260.12 199.217C260.73 198.141 261.529 197.183 262.548 196.418C263.561 195.658 264.817 195.073 266.226 194.966C267.632 194.832 269.087 195.338 270.121 196.155C271.179 196.967 271.924 198.016 272.378 199.163L272.027 199.437Z" fill="#3C1C16"/>
<path d="M249.826 200.215C248.762 199.458 247.71 198.879 246.624 198.534C245.535 198.202 244.44 198.074 243.336 198.202C242.235 198.321 241.137 198.635 240.033 199.089C238.929 199.547 237.843 200.139 236.638 200.715L236.333 200.395C237.022 199.227 237.971 198.214 239.121 197.418C240.271 196.625 241.661 196.091 243.125 195.96C244.586 195.817 246.12 196.14 247.374 196.875C248.634 197.595 249.637 198.684 250.174 199.943L249.826 200.215Z" fill="#3C1C16"/>
<path opacity="0.5" d="M228.363 220.772C228.522 225.258 232.283 228.766 236.769 228.607C241.256 228.449 244.763 224.688 244.605 220.201C244.446 215.715 240.685 212.207 236.199 212.366C231.712 212.525 228.208 216.288 228.363 220.772Z" fill="#FC8879"/>
<path opacity="0.5" d="M276.967 211.652C276.528 217.011 275.683 222.608 274.18 227.637C270.748 226.783 268.159 223.733 268.028 220.031C267.866 215.541 271.377 211.783 275.86 211.622C276.229 211.61 276.601 211.622 276.967 211.652Z" fill="#FC8879"/>
<path opacity="0.5" d="M255.352 204.18C255.389 203.795 255.919 203.747 256.032 204.116C257.85 210.042 263.752 214.376 262.806 216.117C262.141 217.344 259.643 218.728 257.893 219.585C256.969 220.037 255.861 219.491 255.666 218.475C254.824 214.074 254.873 209.234 255.352 204.18Z" fill="#FC8879"/>
<path d="M256.616 203.579C257.021 205.314 257.814 206.891 258.775 208.374C259.742 209.859 260.873 211.234 262.017 212.686C262.307 213.049 262.585 213.427 262.859 213.827C263.13 214.236 263.405 214.647 263.615 215.221C263.713 215.504 263.811 215.858 263.722 216.322C263.594 216.846 263.374 217.023 263.204 217.267C262.825 217.691 262.429 218.002 262.02 218.28C260.392 219.366 258.662 220.034 256.878 220.589L256.625 219.976C257.406 219.512 258.205 219.076 258.958 218.582C259.718 218.109 260.474 217.618 261.133 217.084C261.456 216.813 261.767 216.535 261.984 216.261C262.072 216.136 262.173 215.956 262.13 216.023C262.133 216.032 262.118 215.922 262.06 215.782C261.822 215.175 261.212 214.428 260.684 213.723C259.58 212.287 258.418 210.792 257.531 209.115C256.625 207.455 255.994 205.571 255.96 203.661L256.616 203.579Z" fill="#3C1C16"/>
<path d="M213.967 227.878C213.452 229.013 213.284 230.27 213.36 231.505C213.446 232.746 213.772 233.969 214.232 235.134C215.215 237.449 216.526 239.715 217.676 242.055C218.85 244.382 219.878 246.862 220.348 249.521C220.573 250.851 220.647 252.214 220.543 253.572C220.451 254.246 220.387 254.92 220.21 255.606C220.015 256.277 219.796 256.945 219.46 257.564C218.829 258.814 217.865 259.934 216.639 260.696C215.422 261.48 213.915 261.816 212.479 261.672C211.024 261.489 209.804 260.962 208.587 260.477C207.376 259.973 206.193 259.443 205.015 258.915C202.664 257.878 200.285 256.872 197.814 256.411C196.588 256.182 195.332 256.109 194.16 256.414C193.584 256.579 193.038 256.841 192.556 257.198C192.071 257.558 191.681 258.031 191.33 258.543L190.836 258.256C191.174 257.671 191.577 257.103 192.108 256.649C192.642 256.204 193.264 255.862 193.923 255.636C195.255 255.212 196.649 255.225 197.973 255.405C200.629 255.813 203.097 256.774 205.509 257.741L209.09 259.226C210.271 259.693 211.481 260.166 212.61 260.288C213.754 260.382 214.903 260.12 215.867 259.485C216.837 258.869 217.618 257.939 218.17 256.896C218.463 256.378 218.652 255.81 218.826 255.24C218.981 254.67 219.045 254.05 219.137 253.443C219.241 252.217 219.189 250.976 218.994 249.75C218.585 247.289 217.627 244.919 216.56 242.585C215.498 240.237 214.254 237.977 213.302 235.479C212.872 234.213 212.585 232.886 212.561 231.535C212.534 230.19 212.808 228.812 213.455 227.619L213.967 227.878Z" fill="#3C1C16"/>
<path d="M214.379 159.955C216.569 158.967 218.859 158.259 221.171 157.652C223.48 157.036 225.829 156.578 228.189 156.209C230.553 155.856 232.935 155.605 235.329 155.535C236.528 155.505 237.727 155.508 238.928 155.569C240.127 155.648 241.329 155.782 242.509 156.029L242.43 156.594C241.256 156.557 240.09 156.517 238.916 156.588C237.745 156.615 236.574 156.694 235.406 156.807C233.069 157.021 230.733 157.301 228.406 157.646C226.079 157.988 223.761 158.408 221.449 158.854C220.293 159.076 219.143 159.333 217.999 159.607C216.846 159.854 215.718 160.181 214.58 160.486L214.379 159.955Z" fill="#3C1C16"/>
<path d="M233.197 182.488C234.173 181.973 235.201 181.662 236.235 181.409C237.272 181.168 238.318 180.957 239.367 180.82C241.472 180.533 243.595 180.417 245.714 180.42C249.96 180.42 254.206 181.012 258.32 182.125C262.419 183.272 266.387 185.078 269.797 187.692C271.487 189.006 273.055 190.494 274.369 192.187C275.669 193.886 276.776 195.725 277.614 197.677L277.099 197.921C275.116 194.276 272.399 191.074 269.035 188.716C267.366 187.53 265.594 186.481 263.728 185.621C261.861 184.754 259.906 184.096 257.927 183.522C253.965 182.372 249.829 181.823 245.69 181.656C243.619 181.573 241.542 181.625 239.477 181.805C237.428 181.988 235.323 182.253 233.453 183.001L233.197 182.488Z" fill="#3C1C16"/>
<path d="M89.5853 296.272L97.4238 298.812C98.1009 299.032 98.5645 299.63 98.6133 300.34C98.659 301.048 98.2747 301.704 97.6312 302.009L89.0698 306.068L89.0851 306.184L101.062 308.569C101.511 308.658 101.804 309.097 101.715 309.545C101.627 309.994 101.187 310.286 100.739 310.198L88.7618 307.813C88.0206 307.663 87.4808 307.087 87.3893 306.337C87.2947 305.586 87.676 304.891 88.3622 304.568L96.9236 300.508L96.9175 300.392L89.079 297.851C88.6428 297.711 88.4049 297.241 88.5452 296.805C88.6825 296.369 89.1491 296.131 89.5853 296.272Z" fill="#3C1C16"/>
<path d="M69.3451 285.472L76.3082 287.729C76.9091 287.924 77.3239 288.454 77.3635 289.086C77.4032 289.714 77.0616 290.297 76.4912 290.568L68.8876 294.173L68.8998 294.277L79.5351 296.397C79.9347 296.476 80.1939 296.863 80.1146 297.266C80.0353 297.665 79.648 297.925 79.2484 297.845L68.6131 295.726C67.9543 295.591 67.4754 295.082 67.3931 294.414C67.3107 293.746 67.6493 293.13 68.2562 292.843L75.8599 289.238L75.8538 289.138L68.8906 286.881C68.5033 286.756 68.2898 286.341 68.4148 285.95C68.5399 285.557 68.9547 285.347 69.3451 285.472Z" fill="#3C1C16"/>
<path d="M111.365 312.818L116.886 314.608C117.362 314.764 117.691 315.185 117.722 315.685C117.755 316.185 117.484 316.646 117.032 316.859L111.002 319.717L111.012 319.799L119.445 321.48C119.762 321.544 119.966 321.852 119.905 322.169C119.841 322.486 119.533 322.691 119.219 322.63L110.786 320.949C110.264 320.842 109.883 320.437 109.819 319.909C109.755 319.381 110.02 318.89 110.502 318.665L116.532 315.807L116.526 315.724L111.005 313.934C110.697 313.833 110.53 313.504 110.63 313.196C110.728 312.888 111.06 312.717 111.365 312.818Z" fill="#3C1C16"/>
<path d="M456.424 269.508H431.923C427.915 269.508 424.637 266.229 424.637 262.221V240.161C424.637 236.153 427.915 232.874 431.923 232.874H456.424C460.431 232.874 463.71 236.153 463.71 240.161V262.221C463.713 266.226 460.431 269.508 456.424 269.508Z" fill="white" stroke="#1F3C88" stroke-width="3.75" stroke-miterlimit="10"/>
<path d="M444.175 276.745L437.071 269.508H451.278L444.175 276.745Z" fill="#1F3C88"/>
<path d="M443.553 261.569C443.174 261.569 442.811 261.404 442.564 261.111L435.461 252.76C434.997 252.214 435.061 251.394 435.607 250.93C436.153 250.467 436.974 250.534 437.437 251.077L443.327 258L452.498 241.475C452.846 240.847 453.639 240.624 454.261 240.969C454.889 241.317 455.115 242.107 454.767 242.732L444.687 260.898C444.48 261.27 444.105 261.517 443.681 261.56C443.638 261.569 443.595 261.569 443.553 261.569Z" fill="#1F3C88"/>
<path d="M81.7892 349.622C70.9098 352.199 58.841 355.771 53.6804 366.739C48.8065 377.1 53.8786 387.165 63.6722 392.063C70.2998 395.378 95.5508 400.966 85.0649 413.221C78.2908 421.139 66.5239 418.689 58.7891 414.014C54.757 411.577 51.0848 417.887 55.1047 420.315C63.9009 425.631 74.03 427.58 83.5978 423.185C93.9831 418.415 98.0701 406.187 90.1462 397.242C86.0836 392.655 80.3435 390.498 74.704 388.558C69.3696 386.722 62.3851 384.673 59.7956 379.049C57.3587 373.757 60.5551 367.706 64.6177 364.223C69.8728 359.715 77.1806 358.208 83.729 356.655C88.2979 355.579 86.3642 348.539 81.7892 349.622Z" fill="#FFDF8B"/>
<path d="M181.793 362.969C194.16 363.689 195.048 347.582 195.048 347.582C195.048 347.582 186.587 343.287 178.657 348.613L181.793 362.969Z" fill="#FFDF8B"/>
<path d="M182.491 358.089C187.416 358.01 189.841 351.818 189.841 351.818C189.841 351.818 186.212 349.598 181.637 351.87L182.491 358.089Z" fill="#3C1C16"/>
<path d="M146.861 348.061C138.284 339.118 149.963 327.989 149.963 327.989C149.963 327.989 158.722 331.639 159.817 341.128L146.861 348.061Z" fill="#FFDF8B"/>
<path d="M149.911 344.318C146.919 340.695 149.911 335.104 149.911 335.104C149.911 335.104 153.769 336.364 154.952 341.091L149.911 344.318Z" fill="#3C1C16"/>
<path d="M164.563 387.613C164.143 388.589 163.228 389.254 162.178 389.412C153.812 390.703 151.769 388.391 151.769 388.391C151.769 388.391 145.111 392.096 129.464 387.689C129.077 388.415 128.29 389.001 127.39 389.29C124.996 390.074 115.699 389.266 109.645 388.635C105.985 388.247 95.2644 389.107 95.2644 389.107C85.4983 389.107 74.4024 386.5 70.108 376.703C64.6729 364.305 70.3916 349.442 79.6087 340.567C89.445 331.081 102.566 330.227 114.501 336.443C143.445 351.525 145.635 346.606 153.059 340.353L158.067 378.365C159.708 378.939 161.147 379.723 162.184 380.815C162.892 381.562 163.435 382.254 163.831 382.904C165.134 384.99 165.012 386.564 164.563 387.613Z" fill="#FFDF8B"/>
<path opacity="0.3" d="M144.646 348.061C133.041 354.88 132.66 376.487 155.065 378.594L157.633 368.798L144.646 348.061Z" fill="#3C1C16"/>
<path d="M184.837 364.122C182.482 372.403 178.593 377.145 174.604 379.784C170.892 382.263 167.107 382.91 164.377 382.91C161.922 382.91 159.482 382.519 157.149 381.781C148.273 378.991 141.021 371.213 141.021 360.996C141.021 348.094 150.393 338.206 162.188 338.206C175.696 338.203 189.031 349.354 184.837 364.122Z" fill="#FFDF8B"/>
<path opacity="0.3" d="M174.603 379.784C170.891 382.263 167.106 382.91 164.377 382.91C164.194 382.91 164.02 382.91 163.837 382.901C163.44 382.251 162.897 381.559 162.19 380.811C161.153 379.72 159.71 378.936 158.072 378.362C161.696 377.621 163.791 378.591 163.791 378.591C163.791 378.591 170.461 375.276 174.588 379.765C174.597 379.774 174.597 379.774 174.603 379.784Z" fill="#3C1C16"/>
<path d="M162.01 383.477C160.836 385.167 161.047 387.522 162.681 388.772C163.06 389.062 163.462 389.257 163.859 389.257H175.491C176.047 389.257 176.345 388.662 176.495 387.888C176.946 385.56 175.97 383.197 174.156 381.672C170.404 378.515 165.402 378.591 162.01 383.477Z" fill="#FFDF8B"/>
<path d="M141.02 377.225C143.377 377.121 145.726 377.219 148.074 377.429C150.423 377.636 152.759 378.027 155.062 378.591C156.215 378.878 157.349 379.247 158.46 379.695C159.564 380.15 160.662 380.665 161.659 381.37C162.65 382.068 163.565 382.946 164.178 384.041C164.779 385.139 164.981 386.442 164.77 387.634L164.343 387.589C164.386 386.457 164.133 385.341 163.517 384.429C162.928 383.505 162.074 382.757 161.122 382.163C159.216 380.964 157.017 380.211 154.787 379.64C152.561 379.033 150.264 378.673 147.965 378.344C145.662 378.033 143.338 377.807 141.014 377.649V377.225H141.02Z" fill="#3C1C16"/>
<path d="M102.193 354.258C104.521 354.636 106.839 355.454 108.775 356.924C109.715 357.68 110.584 358.577 111.182 359.644C111.795 360.7 112.237 361.856 112.478 363.045C112.707 364.238 112.798 365.449 112.756 366.65C112.698 367.852 112.539 369.038 112.31 370.21C111.828 372.546 111.081 374.812 110.154 376.993C109.696 378.088 109.178 379.152 108.614 380.198L108.397 380.592L108.284 380.79L108.278 380.802C108.33 380.973 107.79 379.36 108.025 380.046L108.049 380.055L108.098 380.076L108.199 380.116L109.004 380.433C109.544 380.641 110.09 380.83 110.636 381.013C112.832 381.739 115.092 382.251 117.379 382.611C119.658 382.934 122.046 383.19 124.336 383.767C125.486 384.057 126.627 384.401 127.719 384.917C128.265 385.167 128.796 385.487 129.259 385.923C129.479 386.149 129.701 386.417 129.787 386.765C129.909 387.107 129.802 387.485 129.656 387.781L129.277 387.579C129.506 387.122 129.296 386.652 128.89 386.308C128.487 385.963 127.993 385.682 127.466 385.472C126.42 385.03 125.294 384.746 124.163 384.511C121.89 384.005 119.606 383.828 117.242 383.556C114.894 383.254 112.576 382.718 110.313 382.004C109.748 381.821 109.187 381.632 108.632 381.424L107.799 381.107L107.696 381.068L107.644 381.046L107.619 381.037C107.848 381.717 107.29 380.104 107.354 380.265L107.36 380.253L107.464 380.07L107.668 379.692C108.208 378.673 108.696 377.624 109.16 376.566C110.081 374.446 110.825 372.25 111.307 370.002C111.536 368.877 111.697 367.742 111.761 366.605C111.801 365.467 111.764 364.332 111.575 363.219C111.182 361.005 110.075 358.922 108.315 357.497C106.573 356.049 104.374 355.182 102.117 354.676L102.193 354.258Z" fill="#3C1C16"/>
<path d="M168.44 357.397C169.254 358.897 170.358 360.239 171.835 360.7C172.564 360.932 173.36 360.989 174.18 360.898C174.589 360.861 174.997 360.749 175.421 360.688C175.833 360.569 176.248 360.447 176.684 360.349L176.895 360.773C176.513 361.026 176.111 361.252 175.702 361.477C175.266 361.636 174.836 361.84 174.366 361.941C173.439 362.179 172.411 362.167 171.444 361.871C170.474 361.566 169.632 360.919 169.059 360.135C168.483 359.349 168.104 358.467 167.982 357.516L168.44 357.397Z" fill="#3C1C16"/>
<path d="M155.166 351.666C155.861 353.224 156.858 354.649 158.292 355.222C159.003 355.509 159.79 355.631 160.616 355.603C161.028 355.597 161.443 355.518 161.87 355.49C162.288 355.402 162.711 355.313 163.154 355.249L163.331 355.689C162.931 355.911 162.513 356.106 162.089 356.299C161.641 356.424 161.196 356.594 160.723 356.658C159.78 356.823 158.756 356.732 157.813 356.363C156.871 355.984 156.081 355.274 155.571 354.447C155.059 353.618 154.751 352.709 154.702 351.754L155.166 351.666Z" fill="#3C1C16"/>
<path d="M436.986 173.323H449.869L439.582 106.711H426.695L436.986 173.323Z" fill="#102048"/>
<path d="M449.882 173.323H462.768L452.477 106.711H439.591L449.882 173.323Z" fill="#F4DB9D"/>
<path d="M515.163 142.722H467.61V173.314H515.163V142.722Z" fill="#102048"/>
<path d="M501.441 152.662H481.332V158.018H501.441V152.662Z" fill="white"/>
<path d="M426.692 86.5779H404.317V173.314H426.692V86.5779Z" fill="#F4DB9D"/>
<path d="M526.189 173.314H392.27V182.946H526.189V173.314Z" fill="#102048"/>
<path d="M323.197 78.4323C340.008 61.6213 340.008 34.3653 323.197 17.5542C306.386 0.743227 279.13 0.743233 262.319 17.5542C245.508 34.3653 245.508 61.6213 262.319 78.4323C279.13 95.2433 306.386 95.2433 323.197 78.4323Z" fill="white" stroke="#102048" stroke-width="5" stroke-miterlimit="10"/>
<path d="M309.786 56.9319L291.389 48.1845L311.488 30.4823L312.498 31.626L294.134 47.8002L310.442 55.5533L309.786 56.9319Z" fill="#102048"/>
<path d="M155.946 128.04H88.883C83.6858 128.04 79.4707 123.825 79.4707 118.627V80.9232C79.4707 75.726 83.6858 71.5109 88.883 71.5109H155.946C161.144 71.5109 165.359 75.726 165.359 80.9232V118.627C165.359 123.828 161.144 128.04 155.946 128.04Z" fill="#C6EAE9"/>
<path d="M154.492 85.6996H90.335V91.0432H154.492V85.6996Z" fill="#F4DB9D"/>
<path opacity="0.8" d="M154.492 97.1035H90.335V102.447H154.492V97.1035Z" fill="white"/>
<path opacity="0.8" d="M154.492 108.51H90.335V113.854H154.492V108.51Z" fill="white"/>
<path d="M101.177 185.245L88.9834 175.711H113.371L101.177 185.245Z" fill="#F4DB9D"/>
<path d="M116.659 175.717H49.593C44.3958 175.717 40.1807 171.502 40.1807 166.305V128.601C40.1807 123.404 44.3958 119.189 49.593 119.189H116.656C121.854 119.189 126.069 123.404 126.069 128.601V166.305C126.072 171.502 121.857 175.717 116.659 175.717Z" fill="#F4DB9D"/>
<g opacity="0.8">
<path opacity="0.8" d="M66.6639 151.445H58.3496V161.721H66.6639V151.445Z" fill="white"/>
<path opacity="0.8" d="M80.0135 140.005H71.6992V161.724H80.0135V140.005Z" fill="white"/>
<path opacity="0.8" d="M93.9588 144.937H85.6445V161.724H93.9588V144.937Z" fill="white"/>
<path opacity="0.8" d="M107.903 133.182H99.5889V161.724H107.903V133.182Z" fill="white"/>
</g>
</svg>
