<svg width="495" height="500" viewBox="0 0 495 500" fill="none" xmlns="http://www.w3.org/2000/svg">
<path d="M426.15 395.31L371.67 426.76C366.94 429.49 358.67 429.15 353.24 426L301.41 396.07C295.95 392.92 295.36 388.16 300.08 385.43L354.56 354C359.29 351.27 367.56 351.61 372.99 354.76L424.83 384.69C430.28 387.82 430.87 392.58 426.15 395.31Z" fill="#E0E0E0"/>
<path d="M307.53 445.36C331.251 445.36 350.48 433.424 350.48 418.7C350.48 403.976 331.251 392.04 307.53 392.04C283.809 392.04 264.58 403.976 264.58 418.7C264.58 433.424 283.809 445.36 307.53 445.36Z" fill="#E0E0E0"/>
<path d="M98.7998 412.33C121.974 412.33 140.76 401.486 140.76 388.11C140.76 374.734 121.974 363.89 98.7998 363.89C75.626 363.89 56.8398 374.734 56.8398 388.11C56.8398 401.486 75.626 412.33 98.7998 412.33Z" fill="#E0E0E0"/>
<path d="M87.4499 360.035L87.4495 360.035C86.5691 360.543 85.838 361.274 85.3296 362.155C84.8213 363.035 84.5537 364.033 84.5537 365.05C84.5537 366.066 84.8213 367.065 85.3296 367.945C85.838 368.826 86.5691 369.557 87.4495 370.065L87.4498 370.065L186.82 427.435L186.821 427.436C189.915 429.225 193.426 430.167 197 430.167C200.574 430.167 204.084 429.225 207.178 427.436L207.18 427.435L381.98 326.515L381.98 326.515C382.861 326.007 383.592 325.276 384.1 324.395C384.608 323.515 384.876 322.516 384.876 321.5C384.876 320.483 384.608 319.485 384.1 318.605C383.592 317.724 382.861 316.993 381.98 316.485L381.98 316.485L275.331 254.906L87.4499 360.035ZM87.4499 360.035L269.528 254.906M87.4499 360.035L269.528 254.906M269.528 254.906L269.53 254.905C270.412 254.397 271.412 254.13 272.43 254.13C273.448 254.13 274.448 254.397 275.33 254.905L269.528 254.906Z" stroke="#F4DB9D" stroke-width="5"/>
<path d="M214.25 424.41C213.23 424.927 212.103 425.197 210.96 425.197C209.816 425.197 208.689 424.927 207.67 424.41C205.85 423.36 205.85 421.66 207.67 420.61C208.689 420.093 209.816 419.823 210.96 419.823C212.103 419.823 213.23 420.093 214.25 420.61C216.07 421.66 216.07 423.36 214.25 424.41Z" fill="#455A64"/>
<path d="M215.629 318.13H206.319V422.4H215.629V318.13Z" fill="#455A64"/>
<path d="M105.11 361.81C104.091 362.327 102.963 362.597 101.82 362.597C100.677 362.597 99.5496 362.327 98.53 361.81C96.71 360.76 96.71 359.06 98.53 358.01C99.5496 357.493 100.677 357.223 101.82 357.223C102.963 357.223 104.091 357.493 105.11 358.01C106.93 359.06 106.93 360.76 105.11 361.81Z" fill="#455A64"/>
<path d="M106.48 255.53H97.1699V359.8H106.48V255.53Z" fill="#455A64"/>
<path d="M376.389 329.84C375.37 330.357 374.243 330.627 373.099 330.627C371.956 330.627 370.829 330.357 369.809 329.84C367.989 328.84 367.989 327.09 369.809 326.04C370.829 325.523 371.956 325.253 373.099 325.253C374.243 325.253 375.37 325.523 376.389 326.04C378.209 327.09 378.209 328.79 376.389 329.84Z" fill="#455A64"/>
<path d="M377.76 223.57H368.45V327.84H377.76V223.57Z" fill="#455A64"/>
<path d="M267.25 267.24C266.23 267.757 265.103 268.027 263.96 268.027C262.816 268.027 261.689 267.757 260.67 267.24C258.85 266.19 258.85 264.49 260.67 263.44C261.689 262.923 262.816 262.653 263.96 262.653C265.103 262.653 266.23 262.923 267.25 263.44C269.07 264.49 269.07 266.19 267.25 267.24Z" fill="#455A64"/>
<path d="M268.62 160.97H259.31V265.24H268.62V160.97Z" fill="#455A64"/>
<path d="M73.7598 256.71V262.87L197 334.03V327.86L73.7598 256.71Z" fill="#F4DB9D"/>
<path opacity="0.3" d="M73.7598 256.71V262.87L197 334.03V327.86L73.7598 256.71Z" fill="black"/>
<path d="M395.67 213.16L197 327.86V334.03L395.67 219.32V213.16Z" fill="#F4DB9D"/>
<path opacity="0.3" d="M395.67 213.16L197 327.86V334.03L395.67 219.32V213.16Z" fill="white"/>
<path d="M272.43 142.01L73.7598 256.71L197 327.86L395.67 213.16L272.43 142.01Z" fill="#F4DB9D"/>
<path d="M69.5 324.45V384.66C69.5 389.18 72.5 393.66 78.5 397.17C90.5 404.08 109.87 404.08 121.84 397.17C127.84 393.71 130.84 389.17 130.84 384.66V324.45H69.5Z" fill="#37474F"/>
<path d="M100.15 341.88C117.078 341.88 130.8 333.96 130.8 324.19C130.8 314.42 117.078 306.5 100.15 306.5C83.2225 306.5 69.5 314.42 69.5 324.19C69.5 333.96 83.2225 341.88 100.15 341.88Z" fill="#455A64"/>
<path d="M121.15 332.52C120.21 333.293 119.206 333.985 118.15 334.59C117.95 334.71 117.74 334.83 117.52 334.94C116.132 335.684 114.688 336.316 113.2 336.83C112.61 337.03 111.99 337.23 111.37 337.39C109.953 337.817 108.51 338.151 107.05 338.39C105.8 338.6 104.52 338.75 103.25 338.84C102.73 338.84 102.25 338.91 101.7 338.92C100.7 338.92 99.7 338.92 98.78 338.92C97.57 338.92 96.36 338.81 95.17 338.67C93.6485 338.504 92.1389 338.244 90.65 337.89C90.05 337.75 89.47 337.61 88.89 337.43C86.5218 336.784 84.244 335.843 82.11 334.63C81.1882 334.101 80.3059 333.506 79.47 332.85C73.66 328.23 73.1 322.1 77.76 317.18C79.036 315.851 80.5019 314.719 82.11 313.82C83.8924 312.802 85.7801 311.98 87.74 311.37C88.11 311.24 88.51 311.12 88.89 311.02C89.9334 310.717 90.9914 310.467 92.06 310.27C93.22 310.05 94.39 309.87 95.59 309.75C99.4072 309.347 103.261 309.455 107.05 310.07L107.4 310.12C108.75 310.341 110.086 310.641 111.4 311.02C113.223 311.518 114.994 312.187 116.69 313.02C117.2 313.26 117.69 313.53 118.18 313.81C118.951 314.252 119.696 314.74 120.41 315.27C121.467 316.057 122.424 316.971 123.26 317.99C127 322.63 126.33 328.21 121.15 332.52Z" fill="#263238"/>
<path d="M101.09 246.32V265H110.67V252.29C110.67 252.29 107.1 247.08 101.09 246.32Z" fill="#F4DB9D"/>
<path opacity="0.3" d="M101.09 246.32V265H110.67V252.29C110.67 252.29 107.1 247.08 101.09 246.32Z" fill="white"/>
<path d="M107.07 251V338.37C105.82 338.58 104.54 338.73 103.27 338.82C102.75 338.82 102.27 338.89 101.72 338.9C100.72 338.9 99.7202 338.9 98.8002 338.9C97.5902 338.9 96.3802 338.79 95.1902 338.65C93.6687 338.484 92.1591 338.224 90.6702 337.87C90.0702 337.73 89.4902 337.59 88.9102 337.41V251H107.07Z" fill="#F4DB9D"/>
<path opacity="0.7" d="M107.07 251V338.37C105.82 338.58 104.54 338.73 103.27 338.82C102.75 338.82 102.27 338.89 101.72 338.9C100.72 338.9 99.7202 338.9 98.8002 338.9C97.5902 338.9 96.3802 338.79 95.1902 338.65C93.6687 338.484 92.1591 338.224 90.6702 337.87C90.0702 337.73 89.4902 337.59 88.9102 337.41V251H107.07Z" fill="white"/>
<path d="M111.39 253.92V337.39C109.973 337.817 108.53 338.152 107.07 338.39C105.82 338.6 104.54 338.75 103.27 338.84C102.75 338.84 102.27 338.91 101.72 338.92V261.09C103.601 260.811 105.415 260.188 107.07 259.25C108.571 258.419 109.819 257.195 110.68 255.71C111.014 255.157 111.254 254.552 111.39 253.92V253.92Z" fill="#F4DB9D"/>
<path opacity="0.5" d="M111.39 253.92V337.39C109.973 337.817 108.53 338.152 107.07 338.39C105.82 338.6 104.54 338.75 103.27 338.84C102.75 338.84 102.27 338.91 101.72 338.92V261.09C103.601 260.811 105.415 260.188 107.07 259.25C108.571 258.419 109.819 257.195 110.68 255.71C111.014 255.157 111.254 254.552 111.39 253.92V253.92Z" fill="white"/>
<path d="M102.17 261.46C102.058 261.456 101.95 261.412 101.869 261.335C101.787 261.257 101.736 261.153 101.726 261.04C101.717 260.928 101.748 260.817 101.815 260.726C101.882 260.636 101.98 260.573 102.09 260.55C103.783 260.243 105.412 259.654 106.91 258.81C109.21 257.49 110.47 255.75 110.47 253.93C110.47 252.11 109.21 250.37 106.91 249.04C104.172 247.579 101.104 246.846 98.0003 246.91C97.9349 246.92 97.8682 246.915 97.8046 246.897C97.7411 246.878 97.6823 246.847 97.6323 246.803C97.5822 246.76 97.542 246.707 97.5145 246.647C97.4869 246.586 97.4727 246.521 97.4727 246.455C97.4727 246.389 97.4869 246.324 97.5145 246.263C97.542 246.203 97.5822 246.15 97.6323 246.107C97.6823 246.063 97.7411 246.032 97.8046 246.013C97.8682 245.995 97.9349 245.99 98.0003 246C101.268 245.933 104.498 246.708 107.38 248.25C109.97 249.75 111.38 251.76 111.38 253.93C111.38 256.1 109.95 258.11 107.38 259.61C105.789 260.498 104.063 261.12 102.27 261.45L102.17 261.46Z" fill="#F4DB9D"/>
<path opacity="0.5" d="M102.17 261.46C102.058 261.456 101.95 261.412 101.869 261.335C101.787 261.257 101.736 261.153 101.726 261.04C101.717 260.928 101.748 260.817 101.815 260.726C101.882 260.636 101.98 260.573 102.09 260.55C103.783 260.243 105.412 259.654 106.91 258.81C109.21 257.49 110.47 255.75 110.47 253.93C110.47 252.11 109.21 250.37 106.91 249.04C104.172 247.579 101.104 246.846 98.0003 246.91C97.9349 246.92 97.8682 246.915 97.8046 246.897C97.7411 246.878 97.6823 246.847 97.6323 246.803C97.5822 246.76 97.542 246.707 97.5145 246.647C97.4869 246.586 97.4727 246.521 97.4727 246.455C97.4727 246.389 97.4869 246.324 97.5145 246.263C97.542 246.203 97.5822 246.15 97.6323 246.107C97.6823 246.063 97.7411 246.032 97.8046 246.013C97.8682 245.995 97.9349 245.99 98.0003 246C101.268 245.933 104.498 246.708 107.38 248.25C109.97 249.75 111.38 251.76 111.38 253.93C111.38 256.1 109.95 258.11 107.38 259.61C105.789 260.498 104.063 261.12 102.27 261.45L102.17 261.46Z" fill="white"/>
<path d="M104.41 247.54C107.96 249.54 107.96 252.9 104.41 254.95C102.421 255.961 100.221 256.488 97.9897 256.488C95.7585 256.488 93.5588 255.961 91.5697 254.95C88.0197 252.95 88.0197 249.58 91.5697 247.54C93.5588 246.529 95.7585 246.002 97.9897 246.002C100.221 246.002 102.421 246.529 104.41 247.54V247.54Z" fill="#F4DB9D"/>
<path opacity="0.5" d="M104.41 247.54C107.96 249.54 107.96 252.9 104.41 254.95C102.421 255.961 100.221 256.488 97.9897 256.488C95.7585 256.488 93.5588 255.961 91.5697 254.95C88.0197 252.95 88.0197 249.58 91.5697 247.54C93.5588 246.529 95.7585 246.002 97.9897 246.002C100.221 246.002 102.421 246.529 104.41 247.54V247.54Z" fill="white"/>
<path d="M121.2 278.43L119.2 292.29L126.29 293.29L127.66 283.85C126.282 281.281 123.969 279.341 121.2 278.43V278.43Z" fill="#F4DB9D"/>
<path opacity="0.3" d="M121.2 278.43L119.2 292.29L126.29 293.29L127.66 283.85C126.282 281.281 123.969 279.341 121.2 278.43V278.43Z" fill="white"/>
<path d="M125.13 282.53L124.3 288.24L124.24 288.65V289.02L123.67 292.93L120.45 315.24L117.59 334.94C116.203 335.684 114.758 336.316 113.27 336.83C112.68 337.03 112.06 337.23 111.44 337.39C110.024 337.817 108.581 338.151 107.12 338.39C105.87 338.6 104.59 338.75 103.32 338.84L107.12 312.52L107.47 310.12L111.47 282.68L111.77 280.62L120.77 281.93L125.18 282.57L125.13 282.53Z" fill="#F4DB9D"/>
<path opacity="0.7" d="M125.13 282.53L124.3 288.24L124.24 288.65V289.02L123.67 292.93L120.45 315.24L117.59 334.94C116.203 335.684 114.758 336.316 113.27 336.83C112.68 337.03 112.06 337.23 111.44 337.39C110.024 337.817 108.581 338.151 107.12 338.39C105.87 338.6 104.59 338.75 103.32 338.84L107.12 312.52L107.47 310.12L111.47 282.68L111.77 280.62L120.77 281.93L125.18 282.57L125.13 282.53Z" fill="white"/>
<path d="M128 285.17L123.25 318L121.15 332.56C120.21 333.333 119.207 334.026 118.15 334.63C117.95 334.75 117.74 334.87 117.52 334.98C116.133 335.724 114.688 336.356 113.2 336.87L116.68 313L119.68 292.37L120.1 289.44C121.519 289.432 122.925 289.168 124.25 288.66C125.433 288.205 126.47 287.438 127.25 286.44C127.567 286.06 127.82 285.631 128 285.17V285.17Z" fill="#F4DB9D"/>
<path opacity="0.5" d="M128 285.17L123.25 318L121.15 332.56C120.21 333.333 119.207 334.026 118.15 334.63C117.95 334.75 117.74 334.87 117.52 334.98C116.133 335.724 114.688 336.356 113.2 336.87L116.68 313L119.68 292.37L120.1 289.44C121.519 289.432 122.925 289.168 124.25 288.66C125.433 288.205 126.47 287.438 127.25 286.44C127.567 286.06 127.82 285.631 128 285.17V285.17Z" fill="white"/>
<path d="M120.38 289.75C120.301 289.74 120.228 289.703 120.175 289.644C120.122 289.585 120.092 289.509 120.09 289.43C120.087 289.385 120.093 289.341 120.108 289.298C120.122 289.256 120.145 289.217 120.175 289.184C120.205 289.15 120.241 289.123 120.281 289.103C120.321 289.084 120.365 289.073 120.41 289.07C121.697 289.021 122.967 288.761 124.17 288.3C126.01 287.57 127.17 286.42 127.33 285.07C127.49 283.72 126.77 282.3 125.22 281.07C123.342 279.699 121.147 278.828 118.84 278.54C118.793 278.537 118.747 278.524 118.705 278.503C118.663 278.481 118.626 278.451 118.596 278.415C118.567 278.378 118.545 278.336 118.532 278.29C118.52 278.245 118.517 278.197 118.524 278.15C118.531 278.104 118.548 278.059 118.573 278.019C118.598 277.979 118.631 277.945 118.67 277.919C118.709 277.892 118.754 277.874 118.8 277.866C118.846 277.858 118.894 277.859 118.94 277.87C121.366 278.168 123.673 279.088 125.64 280.54C127.39 281.92 128.23 283.54 128 285.17C127.77 286.8 126.5 288.11 124.42 288.94C123.141 289.432 121.789 289.706 120.42 289.75H120.38Z" fill="#F4DB9D"/>
<path opacity="0.5" d="M120.38 289.75C120.301 289.74 120.228 289.703 120.175 289.644C120.122 289.585 120.092 289.509 120.09 289.43C120.087 289.385 120.093 289.341 120.108 289.298C120.122 289.256 120.145 289.217 120.175 289.184C120.205 289.15 120.241 289.123 120.281 289.103C120.321 289.084 120.365 289.073 120.41 289.07C121.697 289.021 122.967 288.761 124.17 288.3C126.01 287.57 127.17 286.42 127.33 285.07C127.49 283.72 126.77 282.3 125.22 281.07C123.342 279.699 121.147 278.828 118.84 278.54C118.793 278.537 118.747 278.524 118.705 278.503C118.663 278.481 118.626 278.451 118.596 278.415C118.567 278.378 118.545 278.336 118.532 278.29C118.52 278.245 118.517 278.197 118.524 278.15C118.531 278.104 118.548 278.059 118.573 278.019C118.598 277.979 118.631 277.945 118.67 277.919C118.709 277.892 118.754 277.874 118.8 277.866C118.846 277.858 118.894 277.859 118.94 277.87C121.366 278.168 123.673 279.088 125.64 280.54C127.39 281.92 128.23 283.54 128 285.17C127.77 286.8 126.5 288.11 124.42 288.94C123.141 289.432 121.789 289.706 120.42 289.75H120.38Z" fill="white"/>
<path d="M123.53 279.69C125.93 281.59 125.53 284.04 122.73 285.18C121.15 285.713 119.466 285.866 117.815 285.626C116.164 285.386 114.594 284.761 113.23 283.8C110.83 281.91 111.23 279.45 114.02 278.32C115.601 277.785 117.287 277.63 118.939 277.868C120.591 278.106 122.164 278.73 123.53 279.69V279.69Z" fill="#F4DB9D"/>
<path opacity="0.5" d="M123.53 279.69C125.93 281.59 125.53 284.04 122.73 285.18C121.15 285.713 119.466 285.866 117.815 285.626C116.164 285.386 114.594 284.761 113.23 283.8C110.83 281.91 111.23 279.45 114.02 278.32C115.601 277.785 117.287 277.63 118.939 277.868C120.591 278.106 122.164 278.73 123.53 279.69V279.69Z" fill="white"/>
<path d="M82.5303 268.32L84.2103 283.66L92.0603 282.8L90.9203 272.35C90.9203 272.35 87.5303 268.4 82.5303 268.32Z" fill="#F4DB9D"/>
<path opacity="0.3" d="M82.5303 268.32L84.2103 283.66L92.0603 282.8L90.9203 272.35C90.9203 272.35 87.5303 268.4 82.5303 268.32Z" fill="white"/>
<path d="M95.19 338.63C93.6686 338.464 92.159 338.204 90.67 337.85C90.07 337.71 89.49 337.57 88.91 337.39C86.5418 336.744 84.264 335.803 82.13 334.59C81.2083 334.061 80.326 333.466 79.49 332.81L77.78 317.14L73 273.23L83 272.14L87.89 271.6L88.58 277.94V278.37V278.8L88.85 281.21L89.05 283.12L92.05 310.23L95.19 338.63Z" fill="#F4DB9D"/>
<path opacity="0.7" d="M95.19 338.63C93.6686 338.464 92.159 338.204 90.67 337.85C90.07 337.71 89.49 337.57 88.91 337.39C86.5418 336.744 84.264 335.803 82.13 334.59C81.2083 334.061 80.326 333.466 79.49 332.81L77.78 317.14L73 273.23L83 272.14L87.89 271.6L88.58 277.94V278.37V278.8L88.85 281.21L89.05 283.12L92.05 310.23L95.19 338.63Z" fill="white"/>
<path d="M95.1902 338.63C93.6687 338.464 92.1591 338.204 90.6702 337.85L88.9102 321.78L87.7602 311.33L84.7602 283.61L84.4102 280.36C85.9339 279.967 87.3692 279.288 88.6402 278.36C88.7502 278.28 88.8601 278.21 88.9501 278.13C89.9594 277.337 90.7565 276.306 91.2701 275.13C91.4929 274.643 91.6347 274.123 91.6902 273.59L95.6902 309.67L98.8801 338.84C97.5901 338.85 96.3802 338.77 95.1902 338.63Z" fill="#F4DB9D"/>
<path opacity="0.5" d="M95.1902 338.63C93.6687 338.464 92.1591 338.204 90.6702 337.85L88.9102 321.78L87.7602 311.33L84.7602 283.61L84.4102 280.36C85.9339 279.967 87.3692 279.288 88.6402 278.36C88.7502 278.28 88.8601 278.21 88.9501 278.13C89.9594 277.337 90.7565 276.306 91.2701 275.13C91.4929 274.643 91.6347 274.123 91.6902 273.59L95.6902 309.67L98.8801 338.84C97.5901 338.85 96.3802 338.77 95.1902 338.63Z" fill="white"/>
<path d="M84.7804 280.63C84.6928 280.638 84.605 280.616 84.5321 280.567C84.4591 280.517 84.4055 280.444 84.3804 280.36C84.3649 280.313 84.3588 280.264 84.3625 280.215C84.3662 280.166 84.3796 280.118 84.4019 280.075C84.4242 280.031 84.4551 279.992 84.4926 279.96C84.5301 279.929 84.5736 279.905 84.6204 279.89C85.9821 279.487 87.2666 278.858 88.4204 278.03C90.1904 276.74 91.0704 275.21 90.9004 273.71C90.7304 272.21 89.5504 270.91 87.5504 270.03C85.1704 269.073 82.5838 268.746 80.0404 269.08C79.9916 269.087 79.9418 269.084 79.8942 269.071C79.8466 269.058 79.8022 269.035 79.7637 269.004C79.7253 268.973 79.6936 268.935 79.6707 268.891C79.6477 268.847 79.634 268.799 79.6304 268.75C79.6217 268.651 79.6509 268.553 79.7122 268.475C79.7736 268.397 79.8623 268.345 79.9604 268.33C82.6327 267.982 85.3495 268.326 87.8504 269.33C90.1104 270.33 91.4604 271.84 91.6504 273.62C91.8404 275.4 90.8604 277.17 88.8704 278.62C87.6568 279.503 86.3051 280.179 84.8704 280.62L84.7804 280.63Z" fill="#F4DB9D"/>
<path opacity="0.5" d="M84.7804 280.63C84.6928 280.638 84.605 280.616 84.5321 280.567C84.4591 280.517 84.4055 280.444 84.3804 280.36C84.3649 280.313 84.3588 280.264 84.3625 280.215C84.3662 280.166 84.3796 280.118 84.4019 280.075C84.4242 280.031 84.4551 279.992 84.4926 279.96C84.5301 279.929 84.5736 279.905 84.6204 279.89C85.9821 279.487 87.2666 278.858 88.4204 278.03C90.1904 276.74 91.0704 275.21 90.9004 273.71C90.7304 272.21 89.5504 270.91 87.5504 270.03C85.1704 269.073 82.5838 268.746 80.0404 269.08C79.9916 269.087 79.9418 269.084 79.8942 269.071C79.8466 269.058 79.8022 269.035 79.7637 269.004C79.7253 268.973 79.6936 268.935 79.6707 268.891C79.6477 268.847 79.634 268.799 79.6304 268.75C79.6217 268.651 79.6509 268.553 79.7122 268.475C79.7736 268.397 79.8623 268.345 79.9604 268.33C82.6327 267.982 85.3495 268.326 87.8504 269.33C90.1104 270.33 91.4604 271.84 91.6504 273.62C91.8404 275.4 90.8604 277.17 88.8704 278.62C87.6568 279.503 86.3051 280.179 84.8704 280.62L84.7804 280.63Z" fill="white"/>
<path d="M85.3599 269C88.4499 270.36 88.7499 273.08 86.0299 275.07C84.4888 276.076 82.7321 276.705 80.9025 276.905C79.0728 277.105 77.2218 276.87 75.4999 276.22C72.4099 274.87 72.1199 272.14 74.8399 270.15C76.379 269.144 78.1341 268.515 79.9621 268.315C81.7902 268.115 83.6396 268.35 85.3599 269V269Z" fill="#F4DB9D"/>
<path opacity="0.5" d="M85.3599 269C88.4499 270.36 88.7499 273.08 86.0299 275.07C84.4888 276.076 82.7321 276.705 80.9025 276.905C79.0728 277.105 77.2218 276.87 75.4999 276.22C72.4099 274.87 72.1199 272.14 74.8399 270.15C76.379 269.144 78.1341 268.515 79.9621 268.315C81.7902 268.115 83.6396 268.35 85.3599 269V269Z" fill="white"/>
<path d="M326.57 204.37L314.57 211.28C314.095 211.496 313.576 211.596 313.055 211.574C312.533 211.551 312.025 211.406 311.57 211.15L270.81 187.62C269.92 187.11 269.81 186.34 270.6 185.89L282.6 178.98C283.075 178.765 283.594 178.665 284.116 178.688C284.637 178.71 285.145 178.855 285.6 179.11L326.35 202.64C327.24 203.15 327.33 203.92 326.57 204.37Z" fill="#263238"/>
<path d="M291.799 185.88L282.579 191.2L274.979 186.82L284.199 181.5L291.799 185.88Z" fill="#F4DB9D"/>
<path d="M301.81 191.66L292.59 196.98L285 192.6L294.21 187.28L301.81 191.66Z" fill="#F4DB9D"/>
<path d="M311.82 197.44L302.61 202.77L295.01 198.38L304.23 193.06L311.82 197.44Z" fill="#F4DB9D"/>
<path d="M321.839 203.23L312.619 208.55L305.029 204.16L314.239 198.84L321.839 203.23Z" fill="#F4DB9D"/>
<path opacity="0.4" d="M291.799 185.88L282.579 191.2L274.979 186.82L284.199 181.5L291.799 185.88Z" fill="black"/>
<path opacity="0.5" d="M301.81 191.66L292.59 196.98L285 192.6L294.21 187.28L301.81 191.66Z" fill="black"/>
<path opacity="0.6" d="M311.82 197.44L302.61 202.77L295.01 198.38L304.23 193.06L311.82 197.44Z" fill="black"/>
<path opacity="0.8" d="M321.839 203.23L312.619 208.55L305.029 204.16L314.239 198.84L321.839 203.23Z" fill="black"/>
<path d="M328.889 191.67L318.739 201.05C318.317 201.369 317.825 201.585 317.304 201.679C316.783 201.772 316.247 201.742 315.739 201.59L270.799 187.59C269.799 187.29 269.559 186.59 270.209 185.95L280.359 176.57C280.781 176.249 281.273 176.033 281.794 175.939C282.316 175.845 282.852 175.876 283.359 176.03L328.299 190.03C329.269 190.33 329.539 191.06 328.889 191.67Z" fill="#37474F"/>
<path d="M290.889 181.3L283.079 188.53L274.699 185.92L282.519 178.7L290.889 181.3Z" fill="#F4DB9D"/>
<path d="M301.94 184.74L294.12 191.96L285.75 189.35L293.56 182.13L301.94 184.74Z" fill="#F4DB9D"/>
<path d="M312.98 188.17L305.17 195.39L296.79 192.78L304.61 185.56L312.98 188.17Z" fill="#F4DB9D"/>
<path d="M324.02 191.6L316.21 198.82L307.83 196.22L315.65 188.99L324.02 191.6Z" fill="#F4DB9D"/>
<path opacity="0.1" d="M290.889 181.3L283.079 188.53L274.699 185.92L282.519 178.7L290.889 181.3Z" fill="white"/>
<path opacity="0.1" d="M312.98 188.17L305.17 195.39L296.79 192.78L304.61 185.56L312.98 188.17Z" fill="black"/>
<path opacity="0.2" d="M324.02 191.6L316.21 198.82L307.83 196.22L315.65 188.99L324.02 191.6Z" fill="black"/>
<path d="M328.48 179.64L320.48 190.91C320.137 191.303 319.707 191.61 319.224 191.806C318.741 192.002 318.219 192.082 317.7 192.04L270.85 187.62C269.85 187.53 269.42 186.86 269.94 186.14L277.94 174.87C278.283 174.477 278.713 174.17 279.195 173.972C279.678 173.774 280.2 173.691 280.72 173.73L327.57 178.15C328.58 178.25 329 178.91 328.48 179.64Z" fill="#455A64"/>
<path d="M289.17 177.31L283 185.99L274.27 185.17L280.43 176.49L289.17 177.31Z" fill="#F4DB9D"/>
<path d="M300.679 178.4L294.519 187.07L285.779 186.25L291.949 177.57L300.679 178.4Z" fill="#F4DB9D"/>
<path d="M312.19 179.48L306.03 188.16L297.3 187.34L303.46 178.66L312.19 179.48Z" fill="#F4DB9D"/>
<path d="M323.7 180.57L317.54 189.25L308.81 188.42L314.97 179.75L323.7 180.57Z" fill="#F4DB9D"/>
<path opacity="0.8" d="M289.17 177.31L283 185.99L274.27 185.17L280.43 176.49L289.17 177.31Z" fill="white"/>
<path opacity="0.6" d="M300.679 178.4L294.519 187.07L285.779 186.25L291.949 177.57L300.679 178.4Z" fill="white"/>
<path opacity="0.4" d="M312.19 179.48L306.03 188.16L297.3 187.34L303.46 178.66L312.19 179.48Z" fill="white"/>
<path opacity="0.2" d="M323.7 180.57L317.54 189.25L308.81 188.42L314.97 179.75L323.7 180.57Z" fill="white"/>
<path d="M268.37 190.27C267.49 190.275 266.632 189.99 265.931 189.458C265.229 188.927 264.723 188.179 264.49 187.33C264.347 186.821 264.306 186.288 264.37 185.763C264.433 185.237 264.599 184.73 264.859 184.269C265.118 183.808 265.466 183.402 265.882 183.076C266.299 182.749 266.775 182.508 267.285 182.365C267.794 182.223 268.327 182.182 268.852 182.245C269.377 182.309 269.885 182.475 270.346 182.734C270.807 182.994 271.212 183.342 271.539 183.758C271.866 184.174 272.107 184.651 272.25 185.16L271.47 185.37C271.239 184.547 270.69 183.848 269.945 183.429C269.2 183.01 268.318 182.904 267.495 183.135C266.671 183.366 265.973 183.914 265.554 184.66C265.135 185.405 265.029 186.287 265.26 187.11C265.375 187.52 265.57 187.903 265.834 188.237C266.097 188.572 266.424 188.851 266.795 189.059C267.167 189.267 267.576 189.4 267.999 189.45C268.421 189.5 268.85 189.466 269.26 189.35C269.668 189.236 270.05 189.042 270.383 188.78C270.716 188.517 270.994 188.191 271.2 187.82L271.9 188.22C271.547 188.841 271.037 189.357 270.42 189.717C269.804 190.077 269.103 190.268 268.39 190.27H268.37Z" fill="#E0E0E0"/>
<path d="M211.69 284.5L177.83 304.05L135.1 279.38L169 259.79C169.44 259.534 169.94 259.4 170.45 259.4C170.959 259.4 171.459 259.534 171.9 259.79L211.66 282.74C211.82 282.823 211.955 282.948 212.05 283.101C212.145 283.254 212.197 283.431 212.2 283.611C212.203 283.791 212.157 283.969 212.067 284.126C211.977 284.282 211.847 284.412 211.69 284.5V284.5Z" fill="#F4DB9D"/>
<path opacity="0.7" d="M211.69 284.5L177.83 304.05L135.1 279.38L169 259.79C169.44 259.534 169.94 259.4 170.45 259.4C170.959 259.4 171.459 259.534 171.9 259.79L211.66 282.74C211.82 282.823 211.955 282.948 212.05 283.101C212.145 283.254 212.197 283.431 212.2 283.611C212.203 283.791 212.157 283.969 212.067 284.126C211.977 284.282 211.847 284.412 211.69 284.5V284.5Z" fill="black"/>
<path d="M209.35 283.78L177.83 302L138.06 279L169.64 260.77C170.05 260.534 170.516 260.41 170.99 260.41C171.463 260.41 171.929 260.534 172.34 260.77L209.34 282.14C209.486 282.221 209.608 282.339 209.693 282.483C209.779 282.626 209.824 282.79 209.825 282.957C209.826 283.124 209.783 283.288 209.699 283.433C209.615 283.578 209.495 283.697 209.35 283.78V283.78Z" fill="white"/>
<path d="M177.829 301.98V298.43L209.819 279.96V282.99L177.829 301.98Z" fill="white"/>
<path d="M177.83 301.98V298.43L138.06 275.46V279.01L177.83 301.98Z" fill="#E0E0E0"/>
<path d="M211.69 278.88L177.83 298.43L135.1 273.76L169 254.17C169.44 253.914 169.94 253.78 170.45 253.78C170.959 253.78 171.459 253.914 171.9 254.17L211.66 277.17C211.808 277.257 211.932 277.38 212.019 277.528C212.106 277.676 212.153 277.845 212.156 278.017C212.159 278.188 212.118 278.358 212.036 278.509C211.954 278.661 211.835 278.788 211.69 278.88Z" fill="#F4DB9D"/>
<path opacity="0.5" d="M211.69 278.88L177.83 298.43L135.1 273.76L169 254.17C169.44 253.914 169.94 253.78 170.45 253.78C170.959 253.78 171.459 253.914 171.9 254.17L211.66 277.17C211.808 277.257 211.932 277.38 212.019 277.528C212.106 277.676 212.153 277.845 212.156 278.017C212.159 278.188 212.118 278.358 212.036 278.509C211.954 278.661 211.835 278.788 211.69 278.88Z" fill="black"/>
<path d="M173.42 301.5C173.32 301.547 173.211 301.571 173.1 301.571C172.99 301.571 172.88 301.547 172.78 301.5C172.658 301.437 172.555 301.34 172.485 301.222C172.414 301.104 172.378 300.968 172.38 300.83V297.62C172.38 296.892 172.568 296.177 172.928 295.544C173.287 294.911 173.805 294.383 174.43 294.01L174.55 293.94C174.607 293.903 174.673 293.884 174.74 293.884C174.807 293.884 174.873 293.903 174.93 293.94C174.989 293.972 175.039 294.019 175.072 294.078C175.106 294.136 175.122 294.203 175.12 294.27C175.12 294.448 175.191 294.618 175.316 294.744C175.442 294.869 175.612 294.94 175.79 294.94C175.968 294.94 176.138 294.869 176.264 294.744C176.389 294.618 176.46 294.448 176.46 294.27C176.459 293.967 176.379 293.67 176.227 293.409C176.075 293.147 175.856 292.93 175.593 292.78C175.331 292.63 175.033 292.552 174.73 292.554C174.428 292.555 174.131 292.637 173.87 292.79L173.75 292.87C172.926 293.36 172.243 294.055 171.768 294.887C171.293 295.72 171.042 296.661 171.04 297.62V300.83C171.041 301.21 171.145 301.582 171.341 301.908C171.536 302.233 171.816 302.5 172.15 302.68C172.459 302.839 172.802 302.922 173.15 302.92C173.566 302.924 173.974 302.802 174.32 302.57C174.445 302.479 174.537 302.349 174.58 302.2L173.42 301.5Z" fill="white"/>
<path d="M167.09 297.85C166.977 297.888 166.856 297.898 166.738 297.881C166.62 297.863 166.507 297.818 166.41 297.749C166.312 297.679 166.233 297.588 166.177 297.482C166.122 297.377 166.092 297.259 166.09 297.14V293.93C166.086 293.207 166.268 292.496 166.619 291.864C166.969 291.232 167.475 290.7 168.09 290.32L168.22 290.25C168.278 290.218 168.343 290.201 168.41 290.201C168.476 290.201 168.542 290.218 168.6 290.25C168.657 290.285 168.704 290.333 168.737 290.391C168.77 290.448 168.788 290.513 168.79 290.58C168.778 290.674 168.787 290.77 168.815 290.86C168.843 290.951 168.89 291.035 168.953 291.106C169.016 291.177 169.093 291.234 169.18 291.273C169.266 291.311 169.36 291.332 169.455 291.332C169.55 291.332 169.644 291.311 169.73 291.273C169.817 291.234 169.894 291.177 169.957 291.106C170.02 291.035 170.067 290.951 170.095 290.86C170.123 290.77 170.132 290.674 170.12 290.58C170.12 290.278 170.04 289.982 169.888 289.722C169.736 289.461 169.518 289.246 169.256 289.096C168.995 288.947 168.698 288.87 168.396 288.872C168.095 288.875 167.799 288.957 167.54 289.11L167.42 289.18C166.595 289.671 165.912 290.368 165.437 291.202C164.962 292.037 164.711 292.98 164.71 293.94V297.15C164.71 297.53 164.814 297.903 165.009 298.228C165.205 298.554 165.485 298.821 165.82 299C166.129 299.159 166.472 299.242 166.82 299.24C167.232 299.238 167.635 299.116 167.98 298.89C168.111 298.804 168.204 298.672 168.24 298.52L167.09 297.85Z" fill="white"/>
<path d="M160.76 294.2C160.661 294.246 160.554 294.27 160.445 294.27C160.336 294.27 160.228 294.246 160.13 294.2C160.005 294.135 159.901 294.038 159.829 293.918C159.756 293.798 159.719 293.66 159.72 293.52V290.31C159.722 289.583 159.913 288.869 160.274 288.238C160.635 287.607 161.154 287.08 161.78 286.71L161.9 286.64C161.957 286.605 162.022 286.586 162.09 286.586C162.157 286.586 162.223 286.605 162.28 286.64C162.338 286.673 162.386 286.721 162.419 286.779C162.452 286.837 162.47 286.903 162.47 286.97C162.458 287.064 162.467 287.16 162.495 287.25C162.523 287.341 162.57 287.425 162.633 287.496C162.696 287.567 162.773 287.624 162.859 287.662C162.946 287.701 163.04 287.722 163.135 287.722C163.23 287.722 163.323 287.701 163.41 287.662C163.496 287.624 163.574 287.567 163.636 287.496C163.699 287.425 163.746 287.341 163.775 287.25C163.803 287.16 163.811 287.064 163.8 286.97C163.799 286.668 163.719 286.372 163.568 286.112C163.416 285.851 163.198 285.636 162.936 285.486C162.674 285.337 162.378 285.26 162.076 285.262C161.775 285.265 161.479 285.347 161.22 285.5L161.1 285.57C160.276 286.06 159.594 286.756 159.119 287.588C158.644 288.42 158.393 289.362 158.39 290.32V293.53C158.389 293.91 158.492 294.283 158.687 294.609C158.883 294.935 159.164 295.202 159.5 295.38C159.806 295.547 160.15 295.633 160.5 295.63C160.912 295.63 161.316 295.508 161.66 295.28C161.788 295.192 161.881 295.061 161.92 294.91L160.76 294.2Z" fill="white"/>
<path d="M154.44 290.54C154.34 290.587 154.23 290.612 154.12 290.612C154.009 290.612 153.9 290.587 153.8 290.54C153.678 290.473 153.576 290.375 153.506 290.255C153.436 290.135 153.399 289.999 153.4 289.86V286.65C153.395 285.929 153.577 285.218 153.927 284.587C154.277 283.957 154.785 283.427 155.4 283.05L155.52 282.97C155.578 282.937 155.643 282.919 155.71 282.919C155.776 282.919 155.842 282.937 155.9 282.97C155.959 283.002 156.008 283.049 156.042 283.108C156.076 283.166 156.092 283.233 156.09 283.3C156.09 283.478 156.16 283.648 156.286 283.774C156.412 283.899 156.582 283.97 156.76 283.97C156.847 283.97 156.934 283.953 157.015 283.919C157.095 283.885 157.169 283.836 157.23 283.773C157.291 283.711 157.34 283.637 157.372 283.556C157.405 283.474 157.421 283.387 157.42 283.3C157.423 282.997 157.344 282.699 157.194 282.437C157.043 282.175 156.824 281.957 156.561 281.807C156.298 281.658 156 281.581 155.698 281.585C155.395 281.589 155.099 281.673 154.84 281.83L154.72 281.9C153.896 282.39 153.214 283.086 152.739 283.918C152.264 284.75 152.013 285.692 152.01 286.65V289.86C152.009 290.24 152.112 290.613 152.308 290.939C152.503 291.265 152.784 291.532 153.12 291.71C153.426 291.877 153.771 291.963 154.12 291.96C154.535 291.959 154.942 291.838 155.29 291.61C155.413 291.517 155.504 291.387 155.55 291.24L154.44 290.54Z" fill="white"/>
<path d="M148.109 286.89C148.009 286.935 147.899 286.958 147.789 286.958C147.679 286.958 147.57 286.935 147.469 286.89C147.347 286.823 147.246 286.725 147.176 286.605C147.105 286.485 147.068 286.349 147.069 286.21V283C147.072 282.273 147.262 281.558 147.621 280.926C147.98 280.294 148.496 279.765 149.119 279.39L149.249 279.32C149.307 279.287 149.373 279.269 149.44 279.269C149.506 279.269 149.572 279.287 149.63 279.32C149.687 279.354 149.735 279.402 149.769 279.46C149.802 279.517 149.819 279.583 149.819 279.65C149.839 279.812 149.918 279.962 150.04 280.07C150.163 280.178 150.321 280.238 150.484 280.238C150.648 280.238 150.806 280.178 150.928 280.07C151.051 279.962 151.129 279.812 151.149 279.65C151.151 279.347 151.073 279.05 150.922 278.788C150.77 278.526 150.552 278.309 150.289 278.16C150.029 278.005 149.732 277.923 149.429 277.923C149.127 277.923 148.829 278.005 148.569 278.16L148.449 278.23C147.626 278.72 146.944 279.416 146.469 280.248C145.994 281.08 145.742 282.022 145.739 282.98V286.19C145.737 286.57 145.84 286.944 146.036 287.27C146.231 287.596 146.513 287.863 146.849 288.04C147.183 288.221 147.561 288.306 147.94 288.286C148.319 288.267 148.685 288.144 148.999 287.93C149.127 287.846 149.22 287.718 149.259 287.57L148.109 286.89Z" fill="white"/>
<path d="M141.779 283.24C141.666 283.275 141.546 283.284 141.429 283.266C141.311 283.247 141.2 283.202 141.103 283.133C141.006 283.064 140.927 282.974 140.87 282.869C140.814 282.765 140.783 282.649 140.779 282.53V279.32C140.781 278.591 140.972 277.876 141.333 277.243C141.694 276.61 142.213 276.082 142.839 275.71L142.959 275.64C143.016 275.604 143.082 275.586 143.149 275.586C143.216 275.586 143.282 275.604 143.339 275.64C143.399 275.672 143.448 275.719 143.481 275.778C143.515 275.836 143.532 275.903 143.529 275.97C143.549 276.132 143.628 276.282 143.75 276.39C143.873 276.498 144.031 276.558 144.194 276.558C144.358 276.558 144.516 276.498 144.638 276.39C144.761 276.282 144.839 276.132 144.859 275.97C144.862 275.667 144.784 275.369 144.633 275.107C144.482 274.845 144.263 274.629 143.999 274.48C143.738 274.328 143.441 274.248 143.139 274.248C142.837 274.248 142.54 274.328 142.279 274.48L142.159 274.56C141.336 275.05 140.653 275.746 140.179 276.578C139.704 277.41 139.452 278.352 139.449 279.31V282.52C139.451 282.9 139.555 283.272 139.75 283.598C139.945 283.923 140.225 284.19 140.559 284.37C140.868 284.532 141.211 284.618 141.559 284.62C141.974 284.623 142.379 284.497 142.719 284.26C142.847 284.176 142.94 284.048 142.979 283.9L141.779 283.24Z" fill="white"/>
<path d="M216.06 270.04L179.45 291.18L131.81 263.68L168.42 242.54L216.06 270.04Z" fill="#E6E6E6"/>
<path d="M218.16 269.35L179.91 287.35L134.75 255.95L173 237.96L218.16 269.35Z" fill="#FAFAFA"/>
<path d="M169.41 256.9C167.955 258.324 166.969 260.159 166.585 262.159C166.201 264.158 166.436 266.228 167.26 268.09C168.97 272.09 173.26 274.35 177.44 274.49C179.59 274.578 181.723 274.063 183.596 273.002C185.469 271.942 187.008 270.379 188.04 268.49C189.036 266.589 189.244 264.373 188.62 262.32C187.922 260.235 186.563 258.434 184.75 257.19C182.348 255.623 179.537 254.802 176.67 254.83C174.24 254.78 171.31 255 169.67 257C169.34 257.39 169.91 258 170.24 257.57C171.62 255.92 173.92 255.67 175.94 255.64C178.35 255.541 180.75 256.017 182.94 257.03C186.61 258.85 189.22 262.93 187.82 267.03C187.091 268.879 185.85 270.482 184.241 271.65C182.633 272.817 180.724 273.501 178.74 273.62C176.787 273.803 174.822 273.461 173.046 272.63C171.27 271.798 169.749 270.507 168.64 268.89C167.539 267.114 167.074 265.017 167.321 262.942C167.568 260.867 168.512 258.938 170 257.47C170.38 257.13 169.81 256.56 169.43 256.9H169.41Z" fill="#F4DB9D"/>
<path d="M175.05 268.75C175.985 269.023 176.969 269.09 177.932 268.945C178.896 268.8 179.817 268.447 180.63 267.91C181.412 267.373 182.042 266.644 182.461 265.793C182.879 264.941 183.072 263.997 183.02 263.05C182.968 261.977 182.571 260.95 181.89 260.12C181.56 259.72 180.99 260.29 181.32 260.69C181.938 261.523 182.256 262.541 182.221 263.578C182.187 264.615 181.802 265.61 181.13 266.4C180.395 267.182 179.456 267.745 178.419 268.024C177.383 268.303 176.288 268.288 175.26 267.98C175.16 267.96 175.057 267.979 174.971 268.032C174.885 268.085 174.822 268.169 174.795 268.267C174.769 268.365 174.78 268.469 174.827 268.559C174.875 268.648 174.954 268.717 175.05 268.75V268.75Z" fill="#F4DB9D"/>
<path d="M167.33 270.68C166.17 270.439 165.075 269.95 164.122 269.245C163.169 268.541 162.38 267.638 161.81 266.6C161.38 265.76 161.05 264.46 161.73 263.6C162.73 262.44 164.29 263.43 164.92 264.39C165.245 264.816 165.465 265.313 165.56 265.84C165.56 266.68 164.24 265.47 163.98 265.22C163.117 264.373 162.513 263.298 162.24 262.12C161.74 259.89 162.73 257.12 165.24 256.76C166.24 256.64 167.6 257 167.91 258.1C168.07 258.68 167.77 259.35 167.07 258.94C166.824 258.757 166.618 258.526 166.463 258.262C166.308 257.997 166.209 257.704 166.17 257.4C166.056 256.87 166.049 256.322 166.15 255.789C166.25 255.256 166.456 254.749 166.755 254.296C167.054 253.844 167.44 253.455 167.89 253.154C168.341 252.852 168.847 252.644 169.38 252.54C170.461 252.369 171.567 252.62 172.47 253.24C172.81 253.47 173.71 254.17 173.31 254.62C172.71 255.27 172.07 254.21 172 253.71C171.977 253.14 172.141 252.578 172.465 252.109C172.79 251.64 173.258 251.289 173.8 251.11C174.406 250.927 175.047 250.887 175.671 250.993C176.296 251.099 176.887 251.348 177.4 251.72C178.039 252.088 178.594 252.585 179.03 253.18C179.52 253.99 178.52 254.5 177.92 253.97C176.75 252.97 178 251.54 179.13 251.32C180.61 251.03 182.13 251.99 183.28 252.79C184.491 253.636 185.561 254.669 186.45 255.85C186.76 256.26 187.45 255.85 187.15 255.44C185.991 253.898 184.548 252.591 182.9 251.59C181.42 250.7 179.49 249.94 177.9 250.95C177.601 251.119 177.344 251.352 177.147 251.633C176.95 251.914 176.818 252.235 176.761 252.574C176.705 252.912 176.725 253.259 176.82 253.589C176.914 253.919 177.082 254.223 177.31 254.48C178.26 255.48 180.38 254.87 179.99 253.29C179.678 252.521 179.128 251.872 178.42 251.44C177.681 250.851 176.82 250.434 175.9 250.22C175.123 250.031 174.307 250.083 173.561 250.369C172.814 250.655 172.172 251.161 171.72 251.82C170.97 252.94 170.95 255.1 172.54 255.55C172.842 255.63 173.161 255.608 173.449 255.487C173.737 255.365 173.976 255.152 174.13 254.88C174.49 254.16 173.96 253.45 173.45 252.98C172.883 252.46 172.2 252.081 171.459 251.876C170.717 251.671 169.937 251.645 169.183 251.8C168.429 251.956 167.723 252.288 167.123 252.769C166.522 253.251 166.045 253.868 165.73 254.57C165.401 255.28 165.258 256.061 165.314 256.841C165.37 257.621 165.623 258.374 166.05 259.03C166.245 259.347 166.538 259.591 166.884 259.727C167.231 259.862 167.612 259.881 167.97 259.78C168.232 259.667 168.452 259.475 168.601 259.232C168.75 258.988 168.819 258.705 168.8 258.42C168.8 256.86 167.19 255.97 165.8 255.94C165.008 255.927 164.228 256.136 163.548 256.542C162.868 256.949 162.314 257.536 161.95 258.24C161.566 259.013 161.351 259.858 161.319 260.72C161.286 261.581 161.436 262.44 161.76 263.24C162.059 264.017 162.488 264.738 163.03 265.37C163.549 266.063 164.238 266.61 165.03 266.96C165.184 267.01 165.348 267.023 165.508 266.996C165.668 266.968 165.819 266.903 165.948 266.804C166.077 266.706 166.18 266.578 166.248 266.431C166.316 266.283 166.348 266.122 166.34 265.96C166.241 265.148 165.919 264.38 165.41 263.74C164.49 262.48 162.59 261.67 161.28 262.86C160.17 263.86 160.43 265.59 161 266.8C161.812 268.379 163.089 269.671 164.66 270.5C165.421 270.91 166.236 271.213 167.08 271.4C167.58 271.51 167.8 270.73 167.29 270.62L167.33 270.68Z" fill="#F4DB9D"/>
<path d="M172.71 264C172.682 264.05 172.649 264.097 172.61 264.14C172.68 264.09 172.61 264.14 172.61 264.14L172.55 264.2C172.518 264.238 172.481 264.272 172.44 264.3C172.44 264.3 172.37 264.38 172.44 264.3L172.34 264.36L172.2 264.45H172.14C172.087 264.477 172.029 264.494 171.97 264.5H171.79C171.79 264.5 171.89 264.5 171.79 264.5H171.46C171.46 264.5 171.54 264.5 171.46 264.5H171.29C171.29 264.5 171.23 264.5 171.21 264.5C171.19 264.5 171.21 264.5 171.21 264.5L171.09 264.42L171.03 264.37V264.32C170.96 264.24 171.03 264.37 171.03 264.32L170.96 264.22V264.15C170.96 264.15 170.96 264.05 170.96 264.01C170.955 263.963 170.955 263.916 170.96 263.87C170.96 263.96 170.96 263.92 170.96 263.87V263.67C170.96 263.67 170.96 263.62 170.96 263.6C170.96 263.58 170.96 263.66 170.96 263.6C170.955 263.543 170.955 263.486 170.96 263.43C170.96 263.43 170.96 263.43 170.96 263.43C170.96 263.43 170.96 263.38 170.96 263.43L171.02 263.31V263.25C171.02 263.2 171.07 263.25 171.02 263.25C170.97 263.25 171.09 263.18 171.12 263.15H171.17C171.12 263.22 171.12 263.15 171.17 263.15L171.29 263.08C171.29 263.08 171.19 263.08 171.29 263.08H171.37H171.47H171.63C171.73 263.08 171.55 263.08 171.63 263.08L171.86 263.15C171.96 263.15 171.79 263.15 171.86 263.15L171.98 263.22L172.16 263.33C172.16 263.33 172.26 263.41 172.16 263.33L172.27 263.43L172.43 263.58L172.61 263.77L172.67 263.85V263.9C172.726 263.99 172.813 264.055 172.915 264.083C173.017 264.11 173.126 264.099 173.22 264.05C173.265 264.023 173.305 263.988 173.336 263.945C173.368 263.903 173.391 263.855 173.404 263.804C173.417 263.753 173.42 263.7 173.412 263.648C173.405 263.595 173.387 263.545 173.36 263.5C172.982 262.88 172.375 262.434 171.67 262.26C171.366 262.204 171.052 262.249 170.776 262.388C170.499 262.527 170.276 262.753 170.14 263.03C170.016 263.279 169.952 263.552 169.952 263.83C169.952 264.107 170.016 264.381 170.14 264.63C170.289 264.887 170.506 265.097 170.767 265.239C171.028 265.38 171.323 265.446 171.62 265.43C171.965 265.419 172.303 265.321 172.601 265.147C172.9 264.972 173.15 264.726 173.33 264.43C173.361 264.384 173.383 264.333 173.393 264.279C173.404 264.225 173.403 264.169 173.391 264.115C173.379 264.061 173.355 264.011 173.323 263.966C173.29 263.922 173.249 263.885 173.201 263.857C173.153 263.829 173.1 263.812 173.046 263.805C172.991 263.799 172.935 263.804 172.882 263.821C172.83 263.837 172.781 263.864 172.739 263.9C172.697 263.936 172.664 263.98 172.64 264.03L172.71 264Z" fill="#F4DB9D"/>
<path d="M174.68 259.48C174.707 259.788 174.827 260.08 175.023 260.319C175.219 260.558 175.483 260.733 175.78 260.82C176.068 260.921 176.381 260.925 176.672 260.831C176.963 260.737 177.215 260.55 177.39 260.3C177.53 260.053 177.604 259.774 177.604 259.49C177.604 259.206 177.53 258.927 177.39 258.68C177.245 258.41 177.012 258.199 176.729 258.082C176.447 257.965 176.132 257.951 175.84 258.04C175.49 258.146 175.184 258.364 174.97 258.66C174.762 258.949 174.676 259.308 174.73 259.66C174.762 259.761 174.832 259.847 174.925 259.898C175.017 259.95 175.126 259.965 175.23 259.94C175.33 259.906 175.413 259.836 175.465 259.743C175.517 259.651 175.533 259.543 175.51 259.44C175.51 259.44 175.51 259.53 175.51 259.49V259.38C175.514 259.353 175.514 259.326 175.51 259.3C175.514 259.273 175.514 259.246 175.51 259.22C175.51 259.22 175.51 259.12 175.59 259.08C175.67 259.04 175.65 258.99 175.59 259.08C175.53 259.17 175.59 259.08 175.59 259.08L175.71 258.96C175.71 258.96 175.76 258.96 175.78 258.96L175.92 258.88H176H176.07C176.13 258.88 176.07 258.88 176.07 258.88C176.12 258.885 176.17 258.885 176.22 258.88C176.29 258.88 176.22 258.88 176.22 258.88H176.3H176.38C176.45 258.88 176.31 258.88 176.38 258.88C176.42 258.909 176.463 258.933 176.51 258.95C176.44 258.95 176.45 258.95 176.51 258.95V259V259.05C176.537 259.088 176.56 259.128 176.58 259.17C176.58 259.17 176.58 259.25 176.58 259.17C176.58 259.09 176.58 259.17 176.58 259.17C176.584 259.217 176.584 259.263 176.58 259.31C176.575 259.33 176.575 259.35 176.58 259.37C176.58 259.26 176.58 259.37 176.58 259.37V259.58C176.58 259.65 176.58 259.48 176.58 259.58V259.71C176.576 259.733 176.576 259.757 176.58 259.78C176.58 259.86 176.58 259.72 176.58 259.78C176.562 259.826 176.539 259.87 176.51 259.91V259.96C176.51 259.96 176.57 259.9 176.51 259.96V260.01C176.51 260.01 176.43 260.07 176.51 260.01C176.59 259.95 176.51 260.01 176.51 260.01H176.43H176.36H176.3H176.25C176.25 260.01 176.35 260.01 176.3 260.01H176.08H175.92C175.893 260.005 175.866 260.005 175.84 260.01L175.7 259.92C175.62 259.87 175.7 259.92 175.7 259.92L175.63 259.86L175.57 259.8C175.57 259.8 175.5 259.71 175.57 259.8C175.64 259.89 175.57 259.8 175.57 259.8L175.52 259.72C175.52 259.67 175.52 259.72 175.52 259.72C175.52 259.72 175.52 259.72 175.52 259.64C175.514 259.614 175.514 259.586 175.52 259.56C175.52 259.56 175.52 259.5 175.52 259.56C175.52 259.62 175.52 259.56 175.52 259.56C175.515 259.454 175.47 259.353 175.393 259.279C175.317 259.205 175.216 259.162 175.11 259.16C175.004 259.163 174.904 259.205 174.83 259.28C174.755 259.354 174.712 259.455 174.71 259.56L174.68 259.48Z" fill="#F4DB9D"/>
<path d="M235.91 220.74L219.69 230C218.429 230.721 217.002 231.1 215.55 231.1C214.097 231.1 212.67 230.721 211.41 230L201.01 224L199.83 223.32C198.6 222.61 197.578 221.59 196.865 220.362C196.153 219.134 195.775 217.74 195.77 216.32V186.3L220.12 172.44V203C220.12 204.228 220.444 205.435 221.058 206.499C221.672 207.562 222.556 208.446 223.62 209.06L235.93 216.17C236.334 216.399 236.671 216.733 236.904 217.135C237.138 217.538 237.26 217.995 237.258 218.461C237.256 218.926 237.13 219.383 236.893 219.783C236.656 220.184 236.316 220.514 235.91 220.74V220.74Z" fill="#E0E0E0"/>
<path d="M216.22 231C217.441 230.906 218.625 230.544 219.69 229.94L235.91 220.7C236.311 220.471 236.645 220.14 236.877 219.74C237.109 219.341 237.231 218.887 237.231 218.425C237.231 217.963 237.109 217.509 236.877 217.11C236.645 216.71 236.311 216.379 235.91 216.15L227.5 211.3H216.2L216.22 231Z" fill="#E6E6E6"/>
<path d="M235.62 214.18L236.07 214.54C236.435 214.83 236.729 215.198 236.931 215.617C237.134 216.035 237.239 216.495 237.24 216.96V218.47H235.61L235.62 214.18Z" fill="#E6E6E6"/>
<path d="M222 174.76V202.26C221.999 203.452 222.311 204.622 222.906 205.655C223.502 206.687 224.358 207.544 225.39 208.14L235.63 214.14C236.019 214.362 236.342 214.683 236.566 215.07C236.791 215.458 236.909 215.897 236.909 216.345C236.909 216.793 236.791 217.232 236.566 217.62C236.342 218.007 236.019 218.328 235.63 218.55L234.47 219.21L219.92 227.49C218.702 228.186 217.323 228.553 215.92 228.553C214.517 228.553 213.138 228.186 211.92 227.49L201.84 221.54C200.809 220.946 199.953 220.09 199.358 219.06C198.762 218.029 198.449 216.86 198.45 215.67V188.17L222 174.76Z" fill="#F0F0F0"/>
<path d="M222 202.26V174.76L198.43 188.17V215.68C198.429 216.87 198.742 218.039 199.337 219.07C199.932 220.1 200.789 220.956 201.82 221.55L225 207.92C224.072 207.297 223.312 206.454 222.789 205.467C222.266 204.479 221.995 203.378 222 202.26V202.26Z" fill="#E6E6E6"/>
<path d="M147.41 236.16L144.73 237.71V242.61C143.011 242.608 141.325 242.141 139.85 241.26L139.64 241.14C139.025 240.775 138.491 240.289 138.07 239.711C137.649 239.134 137.349 238.477 137.19 237.78C137.096 237.479 137.049 237.165 137.05 236.85V230.18L147.41 236.16Z" fill="#E0E0E0"/>
<path d="M263.81 56.2L263.6 56.08C262.125 55.1973 260.439 54.7307 258.72 54.73V54.73C258.168 54.7229 257.625 54.8682 257.15 55.15L141.72 121.53C140.3 122.347 139.12 123.525 138.301 124.943C137.481 126.362 137.049 127.972 137.05 129.61V230.18L147.41 236.18L257.07 173.18C258.49 172.36 259.669 171.181 260.489 169.761C261.309 168.341 261.74 166.73 261.74 165.09V60.76H266.4C266.401 59.8405 266.162 58.9367 265.708 58.1372C265.254 57.3377 264.6 56.6701 263.81 56.2V56.2Z" fill="#37474F"/>
<path d="M138 125.42C137.345 126.72 137.003 128.155 137 129.61V230.18L147.36 236.18L151.24 233.94V133.63L138 125.42Z" fill="#263238"/>
<path d="M141.71 232.87V239.54C141.71 240.077 141.851 240.605 142.12 241.07C142.389 241.535 142.775 241.921 143.24 242.19C143.705 242.459 144.233 242.6 144.77 242.6C145.307 242.6 145.835 242.459 146.3 242.19L261.73 175.81C263.15 174.993 264.329 173.815 265.149 172.397C265.969 170.978 266.4 169.368 266.4 167.73V160.88L141.71 232.87Z" fill="#F0F0F0"/>
<path d="M266.4 60.49C266.399 59.9543 266.257 59.4283 265.989 58.9645C265.721 58.5008 265.336 58.1155 264.872 57.8472C264.409 57.5789 263.883 57.4371 263.347 57.4358C262.811 57.4345 262.285 57.5739 261.82 57.84L146.38 124.22C144.96 125.04 143.781 126.219 142.961 127.639C142.141 129.059 141.71 130.67 141.71 132.31V232.87L266.4 160.87" fill="#455A64"/>
<path d="M259.71 65.12C259.183 65.1173 258.662 65.2371 258.19 65.47L149.68 127.84C148.428 128.565 147.388 129.606 146.665 130.859C145.942 132.112 145.561 133.533 145.56 134.98V220.67C145.558 221.038 145.633 221.402 145.78 221.74V221.74C145.933 222.089 146.158 222.403 146.44 222.659C146.722 222.916 147.055 223.111 147.417 223.23C147.779 223.35 148.162 223.392 148.542 223.354C148.921 223.316 149.288 223.199 149.62 223.01L258.1 160.64C259.351 159.915 260.391 158.874 261.114 157.621C261.837 156.368 262.218 154.947 262.22 153.5V67.81C262.219 67.1274 261.959 66.4704 261.494 65.9713C261.028 65.4722 260.391 65.168 259.71 65.12V65.12Z" fill="#F4DB9D"/>
<path opacity="0.5" d="M259.71 65.12C259.183 65.1173 258.662 65.2371 258.19 65.47L149.68 127.84C148.428 128.565 147.388 129.606 146.665 130.859C145.942 132.112 145.561 133.533 145.56 134.98V220.67C145.558 221.038 145.633 221.402 145.78 221.74V221.74C145.933 222.089 146.158 222.403 146.44 222.659C146.722 222.916 147.055 223.111 147.417 223.23C147.779 223.35 148.162 223.392 148.542 223.354C148.921 223.316 149.288 223.199 149.62 223.01L258.1 160.64C259.351 159.915 260.391 158.874 261.114 157.621C261.837 156.368 262.218 154.947 262.22 153.5V67.81C262.219 67.1274 261.959 66.4704 261.494 65.9713C261.028 65.4722 260.391 65.168 259.71 65.12V65.12Z" fill="white"/>
<path d="M305.1 238.21L304.25 238.69C303.896 238.322 303.492 238.005 303.05 237.75L269.94 218.64C267.46 217.2 263.7 217.05 261.55 218.29L203.11 252C202.956 252.096 202.809 252.203 202.67 252.32L201.67 251.75V254.22C201.762 254.787 201.993 255.323 202.342 255.78C202.691 256.237 203.147 256.601 203.67 256.84L236.82 276C239.3 277.43 243.06 277.59 245.21 276.35L303.65 242.61C304.051 242.423 304.394 242.133 304.646 241.769C304.897 241.405 305.047 240.981 305.08 240.54V240.54L305.1 238.21Z" fill="#263238"/>
<path d="M303.65 240.27L245.21 274C243.06 275.25 239.3 275.09 236.82 273.66L203.71 254.54C201.23 253.11 200.96 250.94 203.11 249.7L261.55 216C263.7 214.75 267.46 214.91 269.94 216.34L303.05 235.46C305.54 236.86 305.81 239 303.65 240.27Z" fill="#37474F"/>
<path d="M296.59 239.09L250.74 265.56C250.093 265.855 249.385 265.993 248.675 265.963C247.964 265.934 247.27 265.737 246.65 265.39L218 248.87C216.79 248.18 216.66 247.12 217.71 246.52L263.6 220C264.248 219.708 264.955 219.571 265.665 219.6C266.375 219.63 267.068 219.825 267.69 220.17L296.3 236.69C297.51 237.43 297.64 238.48 296.59 239.09Z" fill="#455A64"/>
<path d="M226.43 262.88C228.534 262.88 230.24 261.895 230.24 260.68C230.24 259.465 228.534 258.48 226.43 258.48C224.326 258.48 222.62 259.465 222.62 260.68C222.62 261.895 224.326 262.88 226.43 262.88Z" fill="#263238"/>
<path d="M235.16 263.39L231.16 265.69C230.909 265.802 230.635 265.854 230.361 265.841C230.087 265.829 229.819 265.753 229.58 265.62V265.62C229.12 265.35 229.07 264.94 229.47 264.71L233.47 262.41C233.72 262.298 233.994 262.247 234.268 262.259C234.542 262.271 234.81 262.347 235.05 262.48V262.48C235.51 262.75 235.57 263.16 235.16 263.39Z" fill="#263238"/>
<path d="M238.94 265.57L234.94 267.87C234.689 267.982 234.416 268.033 234.142 268.021C233.867 268.009 233.6 267.933 233.36 267.8V267.8C232.9 267.53 232.85 267.13 233.25 266.89L237.25 264.6C237.499 264.485 237.772 264.43 238.047 264.44C238.322 264.451 238.59 264.526 238.83 264.66C239.29 264.93 239.34 265.34 238.94 265.57Z" fill="#263238"/>
<path d="M219.65 254.44L215.65 256.73C215.402 256.846 215.131 256.901 214.857 256.891C214.584 256.881 214.318 256.805 214.08 256.67V256.67C213.61 256.4 213.56 255.99 213.96 255.76L217.96 253.46C218.211 253.348 218.484 253.297 218.758 253.309C219.032 253.321 219.3 253.397 219.54 253.53C220 253.8 220.06 254.2 219.65 254.44Z" fill="#263238"/>
<path d="M223.43 256.62L219.43 258.92C219.179 259.032 218.906 259.084 218.632 259.071C218.358 259.059 218.09 258.983 217.85 258.85V258.85C217.39 258.58 217.34 258.17 217.74 257.94L221.74 255.64C221.991 255.528 222.264 255.477 222.538 255.489C222.812 255.501 223.08 255.577 223.32 255.71V255.71C223.79 256 223.84 256.39 223.43 256.62Z" fill="#263238"/>
<path d="M258.88 198.22L252.1 197.64L245.31 198.2L247.02 207.89V207.99C247.13 208.361 247.315 208.705 247.565 209.001C247.814 209.297 248.122 209.539 248.47 209.71C249.588 210.274 250.822 210.568 252.075 210.568C253.327 210.568 254.562 210.274 255.68 209.71C256.049 209.534 256.373 209.278 256.63 208.959C256.886 208.64 257.067 208.268 257.16 207.87V207.87L258.88 198.22Z" fill="#37474F"/>
<path d="M256.91 195.15C259.57 196.69 259.57 199.15 256.91 200.71C255.42 201.469 253.772 201.865 252.1 201.865C250.428 201.865 248.78 201.469 247.29 200.71C244.63 199.18 244.63 196.71 247.29 195.15C248.781 194.395 250.429 194.002 252.1 194.002C253.771 194.002 255.419 194.395 256.91 195.15V195.15Z" fill="#455A64"/>
<path d="M252.1 176.63C251.851 176.629 251.605 176.677 251.375 176.771C251.145 176.866 250.936 177.005 250.761 177.181C250.585 177.356 250.446 177.565 250.351 177.795C250.257 178.025 250.209 178.271 250.21 178.52V197.24C250.224 197.406 250.283 197.565 250.38 197.7C250.476 197.836 250.608 197.943 250.76 198.01C251.173 198.222 251.631 198.333 252.095 198.333C252.559 198.333 253.017 198.222 253.43 198.01C253.583 197.943 253.716 197.837 253.815 197.701C253.913 197.566 253.974 197.407 253.99 197.24V178.52C253.99 178.019 253.791 177.538 253.436 177.184C253.082 176.829 252.601 176.63 252.1 176.63V176.63Z" fill="#263238"/>
<path d="M201.6 47C201.208 47.0002 200.822 47.089 200.47 47.26L120.35 93.33C119.433 93.8722 118.673 94.6447 118.147 95.5709C117.621 96.4971 117.346 97.5448 117.35 98.61V161.88C117.348 162.153 117.406 162.422 117.52 162.67V162.67C117.632 162.928 117.797 163.16 118.004 163.35C118.212 163.54 118.457 163.684 118.724 163.773C118.992 163.862 119.274 163.893 119.554 163.865C119.834 163.837 120.105 163.75 120.35 163.61L200.46 117.55C201.386 117.014 202.155 116.244 202.69 115.318C203.226 114.391 203.508 113.34 203.51 112.27V49C203.51 48.4848 203.312 47.9893 202.956 47.6167C202.6 47.2441 202.114 47.0232 201.6 47Z" fill="#E0E0E0"/>
<path d="M201.56 48C201.813 48.0177 202.049 48.1309 202.222 48.3165C202.395 48.5022 202.49 48.7465 202.49 49V112.27C202.49 113.17 202.253 114.053 201.804 114.833C201.355 115.612 200.708 116.259 199.93 116.71L119.81 162.77C119.655 162.862 119.479 162.91 119.3 162.91C119.089 162.926 118.878 162.874 118.699 162.763C118.519 162.651 118.379 162.486 118.3 162.29C118.248 162.159 118.221 162.02 118.22 161.88V98.61C118.22 97.7104 118.456 96.8267 118.905 96.0474C119.355 95.2681 120.001 94.6206 120.78 94.17L201 48.11C201.191 48.0226 201.399 47.9782 201.61 47.98M201.61 46.98C201.218 46.9801 200.832 47.069 200.48 47.24L120.35 93.33C119.433 93.8722 118.673 94.6447 118.147 95.5709C117.621 96.4971 117.346 97.5447 117.35 98.61V161.88C117.348 162.153 117.406 162.422 117.52 162.67V162.67C117.674 163.028 117.929 163.333 118.254 163.548C118.579 163.763 118.96 163.879 119.35 163.88C119.7 163.875 120.044 163.782 120.35 163.61L200.46 117.55C201.386 117.014 202.155 116.244 202.69 115.318C203.226 114.391 203.508 113.34 203.51 112.27V49C203.511 48.4929 203.32 48.0043 202.974 47.633C202.629 47.2618 202.155 47.0355 201.65 47V47L201.61 46.98Z" fill="#E0E0E0"/>
<path d="M118.18 163.53L120.99 165.5V160.94L118.18 163.53Z" fill="#E0E0E0"/>
<path d="M202.5 47.31L205.35 49.3L201.84 51.79L202.5 47.31Z" fill="#E0E0E0"/>
<path d="M204.34 48.94C203.951 48.9362 203.567 49.0254 203.22 49.2L123.09 95.26C122.173 95.7998 121.414 96.5704 120.887 97.495C120.361 98.4197 120.086 99.4661 120.09 100.53V163.81C120.091 164.081 120.145 164.35 120.25 164.6V164.6C120.363 164.857 120.529 165.088 120.737 165.277C120.945 165.466 121.19 165.609 121.457 165.697C121.724 165.785 122.007 165.815 122.286 165.786C122.566 165.758 122.836 165.67 123.08 165.53L203.2 119.53C204.117 118.989 204.877 118.216 205.404 117.29C205.93 116.363 206.204 115.315 206.2 114.25V50.93C206.199 50.4247 206.006 49.9386 205.661 49.5694C205.316 49.2002 204.844 48.9754 204.34 48.94V48.94Z" fill="white"/>
<path d="M204.3 49.91C204.553 49.9277 204.79 50.0409 204.962 50.2265C205.135 50.4122 205.231 50.6565 205.23 50.91V114.2C205.228 115.099 204.991 115.982 204.541 116.761C204.092 117.54 203.447 118.188 202.67 118.64L122.55 164.7C122.396 164.792 122.219 164.84 122.04 164.84C121.829 164.856 121.619 164.804 121.439 164.693C121.259 164.581 121.12 164.416 121.04 164.22C120.988 164.089 120.961 163.95 120.96 163.81V100.53C120.962 99.6321 121.199 98.7504 121.648 97.9731C122.097 97.1957 122.743 96.5498 123.52 96.1L203.68 50C203.874 49.9092 204.086 49.8647 204.3 49.87M204.3 48.87C203.911 48.8662 203.527 48.9553 203.18 49.13L123.09 95.26C122.173 95.7998 121.414 96.5704 120.887 97.495C120.361 98.4197 120.086 99.466 120.09 100.53V163.81C120.091 164.081 120.145 164.35 120.25 164.6V164.6C120.406 164.958 120.663 165.262 120.99 165.475C121.317 165.688 121.7 165.801 122.09 165.8C122.442 165.803 122.788 165.71 123.09 165.53L203.21 119.53C204.128 118.989 204.887 118.216 205.414 117.29C205.94 116.363 206.215 115.315 206.21 114.25V50.93C206.211 50.4246 206.021 49.9373 205.678 49.5663C205.335 49.1952 204.864 48.9679 204.36 48.93L204.3 48.87Z" fill="#E0E0E0"/>
<path d="M160.2 118C160.205 117.137 160.266 116.275 160.38 115.42C154.79 117.34 150.45 114.62 149.56 108.59C143.29 113.68 138.56 122.81 138.56 130.49C138.56 139.25 144.71 142.8 152.3 138.42C156.7 135.88 160.6 131.23 163.12 126.07C161.29 124.47 160.2 121.72 160.2 118Z" fill="#F4DB9D"/>
<path opacity="0.7" d="M160.2 118C160.205 117.137 160.266 116.275 160.38 115.42C154.79 117.34 150.45 114.62 149.56 108.59C143.29 113.68 138.56 122.81 138.56 130.49C138.56 139.25 144.71 142.8 152.3 138.42C156.7 135.88 160.6 131.23 163.12 126.07C161.29 124.47 160.2 121.72 160.2 118Z" fill="white"/>
<path d="M176.67 93C175.509 100.533 171.667 107.394 165.85 112.32C165.972 113.101 166.036 113.89 166.04 114.68C165.927 118.666 164.929 122.577 163.12 126.13C165.63 128.39 169.54 128.53 173.93 125.99C181.52 121.61 187.67 110.99 187.67 102.19C187.67 94.5 183 90.82 176.67 93Z" fill="#F4DB9D"/>
<path opacity="0.3" d="M176.67 93C175.509 100.533 171.667 107.394 165.85 112.32C165.972 113.101 166.036 113.89 166.04 114.68C165.927 118.666 164.929 122.577 163.12 126.13C165.63 128.39 169.54 128.53 173.93 125.99C181.52 121.61 187.67 110.99 187.67 102.19C187.67 94.5 183 90.82 176.67 93Z" fill="black"/>
<path d="M165.849 112.3C164.988 112.998 164.076 113.63 163.119 114.19C162.246 114.696 161.329 115.121 160.379 115.46C160.265 116.315 160.205 117.177 160.199 118.04C160.199 121.72 161.289 124.47 163.119 126.11C164.915 122.553 165.898 118.643 165.999 114.66C166.008 113.871 165.958 113.082 165.849 112.3V112.3Z" fill="#F4DB9D"/>
<path opacity="0.5" d="M165.849 112.3C164.988 112.998 164.076 113.63 163.119 114.19C162.246 114.696 161.329 115.121 160.379 115.46C160.265 116.315 160.205 117.177 160.199 118.04C160.199 121.72 161.289 124.47 163.119 126.11C164.915 122.553 165.898 118.643 165.999 114.66C166.008 113.871 165.958 113.082 165.849 112.3V112.3Z" fill="black"/>
<path d="M163.12 106.59C165.63 101.43 169.54 96.78 173.93 94.24C174.801 93.74 175.719 93.3248 176.67 93C176.784 92.1446 176.844 91.2829 176.85 90.42C176.85 81.66 170.7 78.11 163.12 82.49C155.54 86.87 149.38 97.49 149.38 106.28C149.381 107.073 149.441 107.866 149.56 108.65C150.421 107.945 151.338 107.31 152.3 106.75C156.7 104.19 160.6 104.33 163.12 106.59Z" fill="#F4DB9D"/>
<path d="M160.38 115.46C160.805 112.374 161.73 109.378 163.12 106.59C160.6 104.33 156.7 104.19 152.3 106.73C151.337 107.29 150.421 107.925 149.56 108.63C150.45 114.66 154.79 117.38 160.38 115.46Z" fill="#F4DB9D"/>
<path opacity="0.3" d="M160.38 115.46C160.805 112.374 161.73 109.378 163.12 106.59C160.6 104.33 156.7 104.19 152.3 106.73C151.337 107.29 150.421 107.925 149.56 108.63C150.45 114.66 154.79 117.38 160.38 115.46Z" fill="white"/>
<path d="M163.12 106.59C164.67 108.115 165.637 110.136 165.85 112.3C171.663 107.379 175.505 100.526 176.67 93C175.719 93.3312 174.801 93.7532 173.93 94.26C169.54 96.78 165.63 101.43 163.12 106.59Z" fill="#F4DB9D"/>
<path opacity="0.7" d="M163.12 106.59C164.67 108.115 165.637 110.136 165.85 112.3C171.663 107.379 175.505 100.526 176.67 93C175.719 93.3312 174.801 93.7532 173.93 94.26C169.54 96.78 165.63 101.43 163.12 106.59Z" fill="black"/>
<path d="M163.12 106.59C161.731 109.378 160.805 112.374 160.38 115.46C161.33 115.121 162.247 114.696 163.12 114.19C164.076 113.63 164.989 112.998 165.85 112.3C165.636 110.136 164.67 108.115 163.12 106.59V106.59Z" fill="#263238"/>
<path d="M250.589 98C250.267 97.9963 249.949 98.0682 249.659 98.21L183.459 136.27C182.691 136.709 182.053 137.344 181.611 138.11C181.168 138.876 180.936 139.745 180.939 140.63V192.92C180.94 193.146 180.984 193.37 181.069 193.58V193.58C181.163 193.792 181.301 193.982 181.473 194.138C181.645 194.294 181.848 194.412 182.068 194.485C182.289 194.557 182.522 194.583 182.753 194.56C182.984 194.536 183.208 194.465 183.409 194.35L249.619 156.29C250.386 155.85 251.022 155.215 251.463 154.449C251.904 153.683 252.134 152.814 252.129 151.93V99.66C252.135 99.2383 251.979 98.8306 251.692 98.5215C251.405 98.2124 251.01 98.0256 250.589 98Z" fill="#E0E0E0"/>
<path d="M250.559 98.82C250.768 98.84 250.961 98.9372 251.102 99.0926C251.243 99.248 251.32 99.4504 251.319 99.66V152C251.319 152.741 251.124 153.47 250.754 154.112C250.384 154.755 249.851 155.288 249.209 155.66L182.999 193.67C182.873 193.749 182.728 193.79 182.579 193.79C182.413 193.791 182.251 193.744 182.112 193.653C181.973 193.562 181.864 193.433 181.799 193.28C181.751 193.173 181.727 193.057 181.729 192.94V140.65C181.729 139.909 181.924 139.18 182.295 138.538C182.665 137.895 183.198 137.362 183.839 136.99L250.049 98.92C250.209 98.8485 250.384 98.8143 250.559 98.82M250.559 98.02C250.237 98.0163 249.919 98.0882 249.629 98.23L183.429 136.29C182.661 136.729 182.023 137.364 181.58 138.13C181.138 138.896 180.906 139.765 180.909 140.65V192.94C180.91 193.166 180.954 193.39 181.039 193.6C181.132 193.813 181.269 194.005 181.441 194.161C181.613 194.318 181.816 194.437 182.037 194.509C182.258 194.582 182.491 194.607 182.723 194.583C182.954 194.559 183.178 194.487 183.379 194.37L249.589 156.31C250.356 155.87 250.992 155.235 251.433 154.469C251.873 153.703 252.103 152.834 252.099 151.95V99.66C252.106 99.2432 251.953 98.8397 251.673 98.5313C251.392 98.223 251.005 98.033 250.589 98V98L250.559 98.02Z" fill="#E0E0E0"/>
<path d="M181.659 194.3L183.979 195.93V192.16L181.659 194.3Z" fill="#E0E0E0"/>
<path d="M251.33 98.27L253.69 99.91L250.79 101.96L251.33 98.27Z" fill="#E0E0E0"/>
<path d="M252.849 99.61C252.526 99.6071 252.207 99.6826 251.919 99.83L185.719 137.89C184.952 138.328 184.315 138.961 183.873 139.725C183.43 140.489 183.198 141.357 183.199 142.24V194.53C183.198 194.757 183.246 194.983 183.339 195.19V195.19C183.433 195.402 183.571 195.592 183.743 195.748C183.915 195.904 184.118 196.022 184.338 196.095C184.559 196.167 184.792 196.193 185.023 196.17C185.254 196.146 185.478 196.075 185.679 195.96L251.889 157.9C252.656 157.46 253.292 156.825 253.733 156.059C254.173 155.293 254.403 154.424 254.399 153.54V101.25C254.4 100.83 254.239 100.426 253.951 100.121C253.663 99.8159 253.268 99.633 252.849 99.61V99.61Z" fill="white"/>
<path d="M252.82 100.41C253.029 100.428 253.224 100.524 253.366 100.68C253.507 100.836 253.583 101.04 253.58 101.25V153.54C253.579 154.283 253.383 155.012 253.013 155.656C252.643 156.299 252.111 156.835 251.47 157.21L185.26 195.27C185.131 195.341 184.987 195.379 184.84 195.38C184.674 195.38 184.512 195.332 184.374 195.241C184.235 195.151 184.126 195.022 184.06 194.87C184.012 194.763 183.988 194.647 183.99 194.53V142.24C183.991 141.498 184.187 140.768 184.56 140.126C184.932 139.484 185.466 138.95 186.11 138.58L252.31 100.52C252.47 100.446 252.644 100.408 252.82 100.41ZM252.82 99.61C252.497 99.6071 252.178 99.6826 251.89 99.83L185.69 137.89C184.923 138.328 184.286 138.961 183.843 139.725C183.401 140.489 183.168 141.357 183.17 142.24V194.53C183.169 194.757 183.217 194.983 183.31 195.19C183.441 195.485 183.653 195.736 183.923 195.914C184.192 196.091 184.507 196.187 184.83 196.19C185.118 196.19 185.401 196.114 185.65 195.97L251.86 157.91C252.626 157.47 253.262 156.835 253.703 156.069C254.144 155.303 254.374 154.434 254.37 153.55V101.25C254.371 100.833 254.213 100.432 253.929 100.128C253.645 99.823 253.256 99.6379 252.84 99.61V99.61H252.82Z" fill="#E0E0E0"/>
<path d="M246.11 151.86L196.17 180.69L210.93 142.3L221.14 154.44L231.59 139.56L246.11 151.86Z" fill="#F4DB9D"/>
<path opacity="0.4" d="M246.11 151.86L196.17 180.69L210.93 142.3L221.14 154.44L231.59 139.56L246.11 151.86Z" fill="white"/>
<path d="M228.79 127.91C228.704 129.49 228.247 131.027 227.457 132.398C226.666 133.769 225.564 134.934 224.24 135.8C221.72 137.25 219.68 136.07 219.68 133.17C219.764 131.589 220.222 130.05 221.014 128.678C221.806 127.307 222.912 126.143 224.24 125.28C226.75 123.83 228.79 125 228.79 127.91Z" fill="#F4DB9D"/>
<path d="M348.89 279.45L363.89 359.19C364.015 359.814 364.378 360.364 364.902 360.725C365.426 361.086 366.069 361.228 366.697 361.123C367.324 361.018 367.886 360.673 368.263 360.161C368.641 359.649 368.805 359.01 368.72 358.38L357.72 284.5L348.89 279.45Z" fill="#263238"/>
<path d="M377.7 331.15L362.44 424.26C362.328 424.938 361.979 425.555 361.456 426C360.932 426.445 360.267 426.69 359.58 426.69V426.69C359.171 426.691 358.767 426.606 358.394 426.44C358.02 426.274 357.686 426.031 357.414 425.727C357.141 425.423 356.935 425.065 356.81 424.676C356.686 424.287 356.645 423.876 356.69 423.47L367.4 327.41L377.7 331.15Z" fill="#455A64"/>
<path d="M325 299.83L309.74 392.94C309.631 393.62 309.283 394.239 308.759 394.686C308.235 395.133 307.569 395.379 306.88 395.38V395.38C306.471 395.38 306.067 395.293 305.694 395.126C305.321 394.959 304.987 394.715 304.714 394.41C304.441 394.106 304.236 393.747 304.111 393.357C303.987 392.968 303.945 392.556 303.99 392.15L314.7 296.15L325 299.83Z" fill="#455A64"/>
<path d="M402.16 309.38L417.16 389.61C417.289 390.229 417.652 390.774 418.174 391.131C418.696 391.489 419.335 391.63 419.959 391.527C420.583 391.424 421.142 391.083 421.521 390.577C421.899 390.071 422.068 389.437 421.99 388.81L410.87 314.44L402.16 309.38Z" fill="#263238"/>
<path d="M352.2 273.38C355.647 271.852 358.629 269.439 360.844 266.387C363.058 263.335 364.426 259.751 364.81 256C367.24 231.57 375.81 181.23 405 198C441 218.68 428.1 278.75 422.87 298C421.699 302.344 419.422 306.31 416.26 309.51C409.75 316.06 396.26 327.34 373.4 336.94C370.588 338.116 367.461 338.303 364.53 337.47C353.16 334.23 323.45 324.28 308.63 305.33C307.789 304.255 307.406 302.891 307.566 301.535C307.725 300.179 308.413 298.941 309.48 298.09C315.49 293.28 329.05 283.7 352.2 273.38Z" fill="#F4DB9D"/>
<path opacity="0.3" d="M352.2 273.38C355.647 271.852 358.629 269.439 360.844 266.387C363.058 263.335 364.426 259.751 364.81 256C367.24 231.57 375.81 181.23 405 198C441 218.68 428.1 278.75 422.87 298C421.699 302.344 419.422 306.31 416.26 309.51C409.75 316.06 396.26 327.34 373.4 336.94C370.588 338.116 367.461 338.303 364.53 337.47C353.16 334.23 323.45 324.28 308.63 305.33C307.789 304.255 307.406 302.891 307.566 301.535C307.725 300.179 308.413 298.941 309.48 298.09C315.49 293.28 329.05 283.7 352.2 273.38Z" fill="black"/>
<path d="M307.56 301.84C307.486 303.082 307.866 304.308 308.63 305.29C309.42 306.29 310.26 307.29 311.13 308.29C311.61 308.81 312.13 309.29 312.59 309.84C313.09 310.34 313.59 310.84 314.1 311.33H314.15C314.66 311.82 315.15 312.33 315.71 312.78C316.24 313.26 316.79 313.78 317.34 314.19C325.74 321.25 335.94 326.62 345.05 330.49L346.74 331.19L346.91 331.26C347.44 331.48 347.91 331.69 348.47 331.89L348.74 332L350.19 332.56L350.52 332.69L351.87 333.2L352.26 333.35L353.51 333.8L353.96 333.96L355.11 334.37L355.59 334.54L356.65 334.9L357.16 335.08L358.16 335.4L358.71 335.58L359.58 335.86L360.16 336.04L360.91 336.28L361.54 336.47L362.18 336.67L362.95 336.9L363.34 337.01L364.43 337.33C367.361 338.163 370.489 337.976 373.3 336.8C396.19 327.2 409.65 315.92 416.16 309.37C419.338 306.22 421.649 302.304 422.87 298C428.1 278.7 441 218.63 405 198C404.36 197.63 403.74 197.31 403.12 197L402.71 196.81C402.103 196.517 401.503 196.257 400.91 196.03L400.74 195.97C400.17 195.75 399.62 195.57 399.07 195.41L398.82 195.34C398.22 195.17 397.64 195.04 397.07 194.93H396.93C395.792 194.724 394.635 194.644 393.48 194.69H393.41C392.304 194.736 391.207 194.907 390.14 195.2V195.2C395.89 192.66 402.91 192.77 409.87 196.77C445.87 217.46 432.97 277.53 427.74 296.77L426.85 300.08C425.065 306.764 421.116 312.668 415.62 316.87L406.28 324C396.183 331.622 385.145 337.911 373.44 342.71C370.62 343.894 367.482 344.085 364.54 343.25C353.18 340 323.45 330 308.63 311.07C308 310.258 307.627 309.276 307.56 308.25V308.25V301.83V301.84Z" fill="#F4DB9D"/>
<path opacity="0.5" d="M307.56 301.84C307.486 303.082 307.866 304.308 308.63 305.29C309.42 306.29 310.26 307.29 311.13 308.29C311.61 308.81 312.13 309.29 312.59 309.84C313.09 310.34 313.59 310.84 314.1 311.33H314.15C314.66 311.82 315.15 312.33 315.71 312.78C316.24 313.26 316.79 313.78 317.34 314.19C325.74 321.25 335.94 326.62 345.05 330.49L346.74 331.19L346.91 331.26C347.44 331.48 347.91 331.69 348.47 331.89L348.74 332L350.19 332.56L350.52 332.69L351.87 333.2L352.26 333.35L353.51 333.8L353.96 333.96L355.11 334.37L355.59 334.54L356.65 334.9L357.16 335.08L358.16 335.4L358.71 335.58L359.58 335.86L360.16 336.04L360.91 336.28L361.54 336.47L362.18 336.67L362.95 336.9L363.34 337.01L364.43 337.33C367.361 338.163 370.489 337.976 373.3 336.8C396.19 327.2 409.65 315.92 416.16 309.37C419.338 306.22 421.649 302.304 422.87 298C428.1 278.7 441 218.63 405 198C404.36 197.63 403.74 197.31 403.12 197L402.71 196.81C402.103 196.517 401.503 196.257 400.91 196.03L400.74 195.97C400.17 195.75 399.62 195.57 399.07 195.41L398.82 195.34C398.22 195.17 397.64 195.04 397.07 194.93H396.93C395.792 194.724 394.635 194.644 393.48 194.69H393.41C392.304 194.736 391.207 194.907 390.14 195.2V195.2C395.89 192.66 402.91 192.77 409.87 196.77C445.87 217.46 432.97 277.53 427.74 296.77L426.85 300.08C425.065 306.764 421.116 312.668 415.62 316.87L406.28 324C396.183 331.622 385.145 337.911 373.44 342.71C370.62 343.894 367.482 344.085 364.54 343.25C353.18 340 323.45 330 308.63 311.07C308 310.258 307.627 309.276 307.56 308.25V308.25V301.83V301.84Z" fill="black"/>
<path d="M417.11 158.29C417.11 158.29 425.11 150.02 434.24 155.29C443.37 160.56 439.04 177.29 436.41 182.04C433.78 186.79 428.91 203.87 443.18 200.41C443.18 200.41 438.3 207.41 428.18 205.5C418.06 203.59 416.1 191.41 418.8 181.33C421.5 171.25 417.15 166.67 417.15 166.67L417.11 158.29Z" fill="#263238"/>
<path d="M375.32 198.86C375.32 198.86 364.73 197.76 360.52 199.65C356.31 201.54 329.61 239.41 329.61 239.41C329.61 239.41 339.61 242.57 355.8 229.16C371.99 215.75 375.32 198.86 375.32 198.86Z" fill="#945959"/>
<path d="M410.58 237.67L411.84 208.67L398.47 202L382.54 198.9H375.32C375.32 198.9 361.24 210.9 356.89 222.47C352.54 234.04 362.38 242.67 362.38 242.67C362.38 252.42 356.89 263.1 356.89 263.1C356.89 263.1 366.32 276.88 387.07 275.36C393.751 274.724 400.25 272.824 406.22 269.76C405.338 264.683 404.112 259.671 402.55 254.76L410.58 237.67Z" fill="#F4DB9D"/>
<path opacity="0.5" d="M410.58 237.67L411.84 208.67L398.47 202L382.54 198.9H375.32C375.32 198.9 361.24 210.9 356.89 222.47C352.54 234.04 362.38 242.67 362.38 242.67C362.38 252.42 356.89 263.1 356.89 263.1C356.89 263.1 366.32 276.88 387.07 275.36C393.751 274.724 400.25 272.824 406.22 269.76C405.338 264.683 404.112 259.671 402.55 254.76L410.58 237.67Z" fill="white"/>
<path d="M384.08 140.29C384.08 140.29 373.23 134.51 368.6 145.82C363.97 157.13 370.81 169.87 357.24 171.74C357.24 171.74 363.86 179.27 372.42 168.48C371.21 170.01 372.63 175.01 373.17 176.65C374.142 179.624 375.864 182.296 378.17 184.41C380.801 186.654 383.864 188.335 387.17 189.35C389.558 190.238 392.083 190.698 394.63 190.71C398.49 190.62 403.35 188.86 406.7 186.93C410.313 184.807 413.258 181.713 415.2 178C418.644 171.209 419.633 163.437 418 156C417.104 151.844 415.044 148.029 412.06 145C404.41 138.2 393.57 137.89 384.08 140.29Z" fill="#263238"/>
<path d="M384.09 189L382.54 198.91C382.54 198.91 370.54 208.72 380.36 211.19C390.18 213.66 398.47 202 398.47 202L401.55 182.35L384.09 189Z" fill="#945959"/>
<path d="M401.89 179L401.8 179.57C396 193.1 386.27 194.71 383.16 195L386.46 173.18L402 175.49L401.89 179Z" fill="#703838"/>
<path d="M392 145.31C386 144.87 373 147.31 370.4 162.84C367.8 178.37 368.3 190.67 376.3 192.43C384.3 194.19 403.52 189.72 407.53 169.61C411.54 149.5 397.81 145.74 392 145.31Z" fill="#945959"/>
<path d="M380.31 170.81L379.02 179.99L373.87 177.58L380.31 170.81Z" fill="#703838"/>
<path d="M388.39 171.82C388.337 172.188 388.176 172.531 387.928 172.808C387.68 173.084 387.355 173.281 386.996 173.373C386.636 173.465 386.257 173.449 385.906 173.325C385.556 173.202 385.249 172.978 385.026 172.681C384.803 172.384 384.673 172.027 384.652 171.656C384.632 171.286 384.721 170.917 384.91 170.597C385.099 170.277 385.378 170.02 385.713 169.858C386.047 169.697 386.422 169.638 386.79 169.69C387.035 169.724 387.271 169.807 387.484 169.932C387.698 170.058 387.884 170.225 388.033 170.423C388.181 170.621 388.289 170.846 388.351 171.086C388.412 171.325 388.426 171.575 388.39 171.82V171.82Z" fill="#263238"/>
<path d="M376.28 168.77C376.228 169.141 376.068 169.488 375.819 169.767C375.57 170.047 375.243 170.246 374.881 170.34C374.519 170.434 374.137 170.418 373.783 170.294C373.43 170.171 373.121 169.945 372.896 169.645C372.672 169.346 372.541 168.987 372.52 168.613C372.5 168.239 372.591 167.868 372.782 167.546C372.973 167.224 373.255 166.966 373.593 166.805C373.931 166.643 374.309 166.586 374.68 166.64C375.174 166.712 375.619 166.976 375.919 167.375C376.218 167.774 376.348 168.276 376.28 168.77Z" fill="#263238"/>
<path d="M372.69 164.29L376.69 162.64C376.69 162.64 375.5 160.98 373.97 161.64C372.44 162.3 372.69 164.29 372.69 164.29Z" fill="#F4DB9D"/>
<path d="M380.2 182.27C382.221 181.621 384.204 180.86 386.14 179.99C386.14 179.99 386.49 181.23 383.86 182.13C381.23 183.03 380.2 182.27 380.2 182.27Z" fill="#703838"/>
<path d="M372.69 164.29L376.69 162.64C376.69 162.64 375.5 160.98 373.97 161.64C372.44 162.3 372.69 164.29 372.69 164.29Z" fill="#263238"/>
<path d="M397.72 172.42C397.72 172.42 396.32 178.93 400.1 179.52L407.51 180.68L409.51 168.16C411.7 154.16 403.35 137.8 378.88 145.84C378.84 145.84 374.81 164.41 397.72 172.42Z" fill="#263238"/>
<path d="M400.18 178.75C400.365 177.324 400.867 175.957 401.65 174.75C402.059 173.98 402.686 173.346 403.452 172.929C404.218 172.511 405.09 172.327 405.96 172.4C410.39 173.01 410.27 177.35 409.96 178.85C409.14 182.78 405.22 186.53 399.22 185.7L400.18 178.75Z" fill="#945959"/>
<path d="M282.58 398.3C282.58 398.3 270.36 407.85 269.1 410.55C267.84 413.25 271.04 420.87 288.35 418.1C293.19 417.33 300.15 412.39 303.64 407.65C307.13 402.91 314.18 399.65 315.24 397.95C316.77 395.56 315.91 383.01 313.24 382.78C308.91 382.42 282.58 398.3 282.58 398.3Z" fill="#F4DB9D"/>
<path d="M306.34 306.14C306.34 306.14 298.66 369.37 297.39 378.68C296.8 383.04 284.73 396.06 280.56 400.45C280.388 400.632 280.258 400.849 280.178 401.085C280.098 401.322 280.069 401.573 280.095 401.822C280.121 402.07 280.2 402.311 280.326 402.526C280.453 402.741 280.625 402.927 280.83 403.07L281.19 403.32C283.635 405.008 286.566 405.85 289.534 405.716C292.503 405.583 295.346 404.481 297.63 402.58C301.03 399.77 304.56 396.38 306.34 393.24C307.868 390.292 309.837 387.594 312.18 385.24C312.764 384.702 313.122 383.962 313.18 383.17C313.4 380.08 314.11 372.31 315.88 367.96C318.13 362.44 329.59 340.2 329.59 320.08L306.34 306.14Z" fill="#945959"/>
<path d="M329.61 320.11L329.53 320.06L324.36 319.48C326.36 333.37 322.46 352.56 322.45 352.61C326 343.32 329.61 331.38 329.61 320.11Z" fill="#703838"/>
<path d="M305.36 411.64C305.36 411.64 293.14 421.19 291.88 423.89C290.62 426.59 293.83 434.21 311.13 431.44C315.97 430.67 322.93 425.73 326.42 420.99C329.91 416.25 336.96 412.99 338.03 411.29C339.55 408.9 338.69 396.35 336.03 396.12C331.69 395.76 305.36 411.64 305.36 411.64Z" fill="#F4DB9D"/>
<path d="M329.13 319.48C329.13 319.48 321.44 382.72 320.13 392.02C319.54 396.38 307.47 409.4 303.3 413.79C303.129 413.972 302.998 414.189 302.918 414.425C302.838 414.662 302.81 414.913 302.835 415.162C302.861 415.41 302.94 415.651 303.067 415.866C303.193 416.081 303.365 416.267 303.57 416.41L303.93 416.66C306.375 418.348 309.306 419.19 312.274 419.056C315.243 418.923 318.086 417.821 320.37 415.92C323.77 413.11 327.3 409.72 329.09 406.58C330.616 403.633 332.582 400.935 334.92 398.58C335.505 398.042 335.862 397.302 335.92 396.51C336.14 393.42 336.85 385.65 338.62 381.3C340.87 375.78 352.33 353.55 352.33 333.42L329.13 319.48Z" fill="#945959"/>
<path d="M356.89 263.06C356.89 263.06 320.18 283.06 312.66 291.97C305.14 300.88 301.94 321.4 301.94 321.4C314.76 337.94 353.94 339.75 353.94 339.75C357.24 328.96 365.33 327.06 377.94 320.96C390.55 314.86 404.64 302.53 406.94 289.23C407.94 283.15 407.33 275.96 406.25 269.72C400.28 272.784 393.781 274.684 387.1 275.32C366.32 276.84 356.89 263.06 356.89 263.06Z" fill="#263238"/>
<path d="M377.061 244.34C377.061 244.34 393.171 248.68 400.131 237.15C400.131 237.15 394.481 252.18 377.061 244.34Z" fill="#F4DB9D"/>
<path opacity="0.2" d="M400.131 237.15C400.131 237.15 394.481 252.15 377.061 244.34C377.061 244.34 393.171 248.68 400.131 237.15Z" fill="white"/>
<path d="M410.09 207.77C410.09 207.77 397.88 213.11 409.47 240.03C417.26 258.13 418.56 263.03 418.56 263.03C418.56 263.03 414.5 265.03 391.28 282.33L398.28 293.94C398.28 293.94 439.53 279.23 438.62 267.79C437.71 256.35 425.7 226.9 423.82 222.69C421.94 218.48 421 212.56 410.09 207.77Z" fill="#945959"/>
<path d="M329.61 239.41C333.61 241.13 342.09 233.7 349.15 223.93C353.305 218.203 357.086 212.214 360.47 206C363.358 206.223 366.253 205.677 368.862 204.417C371.47 203.158 373.698 201.23 375.32 198.83C376.24 197.49 368.87 188.49 368.87 188.49L372.76 186.75C372.76 186.75 378.95 185.06 378.57 182.31C378.41 181.13 368.19 183.26 364.34 184.11C363.399 184.309 362.549 184.812 361.92 185.54L350.51 198.54C350.51 198.54 338.81 208.54 332.51 214.45C322.84 223.54 321.29 235.83 329.61 239.41Z" fill="#945959"/>
<path d="M368.87 188.89C368.799 188.89 368.731 188.869 368.672 188.83C368.613 188.79 368.567 188.735 368.54 188.67C368.502 188.582 368.5 188.483 368.533 188.394C368.567 188.304 368.634 188.231 368.72 188.19L372.61 186.45C374.28 185.99 378.39 184.45 378.22 182.45C377.98 182.33 376.65 182.06 369.45 183.45C369.356 183.469 369.258 183.449 369.178 183.396C369.099 183.342 369.043 183.259 369.025 183.165C369.006 183.071 369.026 182.973 369.079 182.894C369.133 182.814 369.216 182.759 369.31 182.74C377.63 181.13 378.39 181.68 378.67 181.88C378.74 181.926 378.8 181.986 378.845 182.057C378.89 182.127 378.919 182.207 378.93 182.29C379.34 185.29 373.12 187.06 372.85 187.13L369 188.85C368.961 188.874 368.916 188.888 368.87 188.89Z" fill="#703838"/>
<path d="M344.73 229.89C344.642 229.889 344.557 229.857 344.49 229.8C344.455 229.767 344.428 229.728 344.409 229.684C344.39 229.64 344.38 229.593 344.38 229.545C344.38 229.497 344.39 229.45 344.409 229.406C344.428 229.362 344.455 229.323 344.49 229.29C345.99 227.56 347.49 225.68 348.89 223.72C353.028 218.015 356.799 212.053 360.18 205.87L360.3 205.64H360.55C363.367 205.852 366.19 205.324 368.74 204.11C368.826 204.068 368.926 204.061 369.017 204.092C369.062 204.107 369.103 204.131 369.139 204.163C369.175 204.194 369.204 204.232 369.225 204.275C369.246 204.318 369.259 204.364 369.262 204.412C369.265 204.459 369.258 204.507 369.243 204.552C369.228 204.597 369.204 204.638 369.172 204.674C369.141 204.71 369.103 204.739 369.06 204.76C366.46 206.002 363.587 206.563 360.71 206.39C357.337 212.524 353.587 218.442 349.48 224.11C348.04 226.11 346.55 227.99 345.03 229.74C344.996 229.787 344.951 229.826 344.899 229.852C344.846 229.878 344.789 229.891 344.73 229.89Z" fill="#703838"/>
<path d="M392.49 282.46C392.49 282.46 386.69 281.39 382.14 282.36C380.051 282.775 377.906 282.826 375.8 282.51C373.85 282.25 370.97 281.77 372.24 284.78C373.34 287.4 377.08 288.02 379.53 288.26C379.53 288.26 378.66 291.36 371.98 291.17C365.3 290.98 363.47 291.26 363.98 293.39C364.49 295.52 370.98 303.19 377.73 303.3C382.79 303.38 391.84 299.87 398.28 293.97L392.49 282.46Z" fill="#945959"/>
<path d="M394.34 73.25C395.006 67.7509 393.461 62.2123 390.044 57.8523C386.627 53.4923 381.619 50.6678 376.12 50C375.81 50 375.5 49.95 375.18 49.93C375.267 49.5505 375.333 49.1666 375.38 48.78C375.837 44.9956 374.773 41.1845 372.422 38.1843C370.07 35.1841 366.624 33.2402 362.84 32.78C362.05 32.6921 361.254 32.6686 360.46 32.71C358.408 29.3623 355.526 26.6025 352.092 24.699C348.658 22.7954 344.79 21.813 340.864 21.8472C336.937 21.8815 333.087 22.9312 329.687 24.8943C326.287 26.8574 323.452 29.6671 321.46 33.05V33.05C317.735 32.5888 313.956 33.1409 310.519 34.648C307.082 36.1551 304.115 38.5614 301.932 41.6133C299.748 44.6652 298.428 48.2497 298.111 51.989C297.794 55.7283 298.491 59.4839 300.13 62.86C296.535 63.8572 293.469 66.2121 291.578 69.4277C289.687 72.6432 289.12 76.4676 289.996 80.0936C290.872 83.7195 293.123 86.8632 296.273 88.8608C299.423 90.8585 303.226 91.5538 306.88 90.8C307.256 94.1913 308.497 97.4291 310.483 100.203C312.469 102.978 315.134 105.196 318.223 106.645C321.312 108.094 324.722 108.726 328.125 108.48C331.528 108.234 334.811 107.118 337.66 105.24C340.343 108.61 343.962 111.111 348.063 112.429C352.164 113.747 356.563 113.823 360.707 112.647C364.851 111.471 368.554 109.096 371.352 105.821C374.149 102.546 375.916 98.5167 376.43 94.24C376.539 93.2974 376.589 92.3489 376.58 91.4C381.122 90.7444 385.322 88.6118 388.532 85.3315C391.742 82.0512 393.783 77.8056 394.34 73.25Z" fill="white"/>
<path d="M354.76 114.44C353.82 114.443 352.882 114.386 351.95 114.27C346.312 113.598 341.131 110.836 337.43 106.53C334.498 108.287 331.181 109.299 327.768 109.479C324.355 109.659 320.949 109 317.849 107.561C314.749 106.122 312.049 103.946 309.983 101.223C307.918 98.5003 306.55 95.3132 306 91.94C304.672 92.1212 303.327 92.1212 302 91.94C298.554 91.52 295.352 89.9468 292.913 87.476C290.475 85.0053 288.944 81.7824 288.57 78.3314C288.196 74.8805 289 71.4044 290.852 68.4683C292.704 65.5323 295.494 63.309 298.77 62.16C297.327 58.6779 296.809 54.8822 297.265 51.1408C297.721 47.3994 299.135 43.8392 301.371 40.8052C303.608 37.7712 306.59 35.3664 310.029 33.8237C313.467 32.281 317.247 31.6528 321 32C323.123 28.629 326.06 25.8462 329.541 23.9079C333.021 21.9696 336.934 20.938 340.918 20.9081C344.901 20.8783 348.829 21.851 352.338 23.7369C355.847 25.6228 358.826 28.3612 361 31.7C363.189 31.6711 365.359 32.1123 367.363 32.9938C369.367 33.8754 371.158 35.1768 372.616 36.8101C374.074 38.4434 375.164 40.3706 375.814 42.4614C376.463 44.5523 376.656 46.7582 376.38 48.93C376.38 48.93 376.38 49.01 376.38 49.05C382.121 49.7797 387.341 52.7504 390.9 57.314C394.46 61.8776 396.07 67.6637 395.38 73.41V73.41C394.808 78.0374 392.776 82.3621 389.579 85.7556C386.381 89.149 382.185 91.4346 377.6 92.28C377.586 92.9855 377.536 93.6897 377.45 94.39C376.774 99.9232 374.1 105.019 369.931 108.719C365.761 112.419 360.384 114.467 354.81 114.48L354.76 114.44ZM337.63 104.21C337.781 104.209 337.932 104.243 338.068 104.309C338.205 104.375 338.325 104.471 338.42 104.59C340.981 107.802 344.434 110.186 348.345 111.443C352.256 112.699 356.452 112.772 360.404 111.653C364.357 110.533 367.891 108.271 370.562 105.15C373.234 102.029 374.923 98.1882 375.42 94.11C375.523 93.2105 375.569 92.3054 375.56 91.4C375.557 91.1574 375.643 90.9221 375.801 90.7381C375.96 90.5542 376.179 90.434 376.42 90.4C381.181 89.7052 385.528 87.3072 388.656 83.6508C391.784 79.9944 393.479 75.3278 393.428 70.5165C393.376 65.7052 391.582 61.0757 388.377 57.4868C385.172 53.8979 380.774 51.5932 376 51H375.48H375.11C374.968 50.9883 374.831 50.9466 374.706 50.8776C374.582 50.8086 374.474 50.714 374.39 50.6C374.305 50.487 374.245 50.3572 374.214 50.2193C374.183 50.0814 374.181 49.9385 374.21 49.8C374.28 49.45 374.35 49.09 374.39 48.73C374.816 45.207 373.826 41.6588 371.638 38.8649C369.45 36.0711 366.242 34.2602 362.72 33.83C361.983 33.7396 361.24 33.7162 360.5 33.76C360.322 33.7663 360.146 33.7252 359.989 33.6408C359.833 33.5564 359.702 33.4319 359.61 33.28C357.645 30.0857 354.889 27.4533 351.607 25.6381C348.326 23.8229 344.631 22.8864 340.881 22.9196C337.132 22.9528 333.454 23.9545 330.205 25.8276C326.957 27.7006 324.247 30.3815 322.34 33.61C322.239 33.7798 322.09 33.916 321.912 34.0014C321.734 34.0868 321.535 34.1176 321.34 34.09C317.802 33.659 314.214 34.1865 310.951 35.6175C307.688 37.0486 304.869 39.3304 302.79 42.2243C300.711 45.1181 299.447 48.5177 299.132 52.0671C298.818 55.6165 299.462 59.1853 301 62.4C301.062 62.533 301.094 62.6781 301.094 62.825C301.094 62.9719 301.062 63.117 301 63.25C300.938 63.3839 300.848 63.5026 300.736 63.5977C300.624 63.6927 300.492 63.7618 300.35 63.8C297.352 64.6081 294.729 66.4334 292.929 68.9631C291.13 71.4928 290.266 74.5696 290.486 77.6663C290.706 80.763 291.996 83.6868 294.134 85.937C296.273 88.1871 299.128 89.6235 302.21 90C303.691 90.1812 305.193 90.1067 306.65 89.78C306.786 89.7518 306.926 89.7524 307.063 89.7817C307.199 89.8109 307.327 89.8683 307.44 89.95C307.553 90.0316 307.648 90.136 307.719 90.2566C307.789 90.3771 307.834 90.5112 307.85 90.65C308.209 93.8708 309.388 96.9457 311.275 99.5803C313.162 102.215 315.694 104.321 318.628 105.698C321.561 107.075 324.799 107.675 328.032 107.443C331.264 107.21 334.383 106.152 337.09 104.37C337.251 104.266 337.438 104.211 337.63 104.21Z" fill="#E0E0E0"/>
<path d="M336.635 86.3376L346.635 86.2521L346.682 91.8019C346.692 92.9874 346.231 94.1283 345.4 94.9737C344.569 95.8192 343.436 96.2998 342.251 96.3099L341.171 96.3192C339.985 96.3293 338.844 95.8681 337.999 95.037C337.153 94.2059 336.673 93.073 336.663 91.8876L336.615 86.3378L336.635 86.3376Z" fill="#263238"/>
<path d="M341.705 92.1748C346.024 92.1378 349.509 90.1962 349.488 87.8381C349.468 85.4799 345.951 83.5982 341.632 83.6351C337.314 83.672 333.829 85.6136 333.849 87.9718C333.869 90.33 337.387 92.2117 341.705 92.1748Z" fill="#37474F"/>
<path d="M341.685 89.685C346.003 89.6481 349.488 87.7065 349.468 85.3483C349.448 82.9901 345.93 81.1084 341.612 81.1453C337.293 81.1823 333.808 83.1239 333.829 85.4821C333.849 87.8402 337.366 89.722 341.685 89.685Z" fill="#455A64"/>
<path d="M358.11 63.46C358.086 60.5762 357.314 57.748 355.869 55.2523C354.424 52.7566 352.355 50.6792 349.866 49.2233C347.376 47.7675 344.551 46.9832 341.668 46.9473C338.784 46.9114 335.941 47.6251 333.416 49.0185C330.891 50.412 328.771 52.4373 327.264 54.8962C325.757 57.3551 324.915 60.1633 324.82 63.0456C324.724 65.9279 325.379 68.7856 326.72 71.3387C328.061 73.8918 330.043 76.0528 332.47 77.61C333.368 78.1676 334.113 78.9408 334.637 79.8594C335.161 80.7779 335.447 81.8128 335.47 82.87V82.87C335.467 83.4123 335.572 83.9497 335.778 84.4513C335.984 84.9529 336.287 85.4088 336.67 85.7927C337.053 86.1766 337.508 86.4809 338.009 86.6881C338.511 86.8953 339.048 87.0013 339.59 87H341.66H343.73C344.27 86.9961 344.803 86.8859 345.301 86.6757C345.798 86.4655 346.249 86.1595 346.627 85.775C347.006 85.3906 347.306 84.9353 347.509 84.4351C347.712 83.935 347.814 83.3997 347.81 82.86V82.68C347.819 81.6819 348.078 80.702 348.561 79.8289C349.045 78.9559 349.739 78.2173 350.58 77.68C352.935 76.1398 354.861 74.0275 356.178 71.5407C357.495 69.0538 358.16 66.2736 358.11 63.46V63.46Z" fill="#F4DB9D"/>
<path d="M342.499 87C342.499 86.94 342.379 85.45 342.379 72.25C342.379 71.35 342.379 70.49 342.429 69.68C342.019 69.68 341.579 69.74 341.119 69.74C340.659 69.74 340.429 69.74 340.119 69.74C340.33 71.1504 340.44 72.574 340.449 74L340.559 87H339.839L339.729 74C339.73 72.5496 339.613 71.1016 339.379 69.67C335.479 69.23 333.659 67.2 333.649 65.28C333.62 64.9974 333.65 64.7118 333.737 64.4412C333.823 64.1706 333.965 63.9208 334.153 63.7076C334.341 63.4944 334.571 63.3224 334.828 63.2024C335.086 63.0823 335.365 63.0168 335.649 63.01V63.01C337.709 63.01 339.269 65.25 339.989 69.01C340.349 69.01 340.729 69.01 341.119 69.01C341.509 69.01 342.049 69.01 342.479 68.94C342.769 63.94 343.819 60.94 345.589 60.24C346.085 60.0709 346.619 60.0528 347.125 60.1881C347.631 60.3234 348.085 60.6061 348.429 61C348.922 61.6597 349.226 62.4415 349.307 63.261C349.388 64.0805 349.244 64.9066 348.889 65.65C348.349 66.94 346.889 68.99 343.149 69.57C343.149 70.38 343.099 71.27 343.099 72.23C343.099 85.3 343.219 86.86 343.219 86.92L342.499 87ZM335.639 63.71C335.451 63.7206 335.268 63.7702 335.1 63.8555C334.932 63.9409 334.783 64.0602 334.664 64.2059C334.544 64.3517 334.457 64.5206 334.406 64.7021C334.355 64.8835 334.343 65.0735 334.369 65.26C334.369 66.83 335.929 68.5 339.249 68.93C338.559 65.66 337.259 63.66 335.639 63.66V63.71ZM346.409 60.81C346.218 60.8092 346.029 60.8431 345.849 60.91C344.959 61.28 343.559 62.83 343.179 68.91C346.499 68.36 347.749 66.58 348.179 65.45C348.479 64.8349 348.609 64.1513 348.556 63.4693C348.503 62.7874 348.27 62.1318 347.879 61.57C347.513 61.1197 346.986 60.8293 346.409 60.76V60.81Z" fill="#263238"/>
<path opacity="0.4" d="M351.559 55.63C350.949 56.71 349.059 56.8 347.349 55.82C345.639 54.84 344.729 53.19 345.349 52.11C345.969 51.03 347.849 50.95 349.559 51.93C351.269 52.91 352.169 54.56 351.559 55.63Z" fill="white"/>
<path opacity="0.4" d="M355.26 60C355.52 61.16 355.07 62.24 354.26 62.42C353.45 62.6 352.58 61.8 352.33 60.65C352.08 59.5 352.53 58.41 353.33 58.23C354.13 58.05 355 58.86 355.26 60Z" fill="white"/>
<path d="M340.73 43.91C340.547 43.9102 340.371 43.8395 340.238 43.7128C340.106 43.5861 340.028 43.4131 340.02 43.23L339.74 35.44C339.736 35.3468 339.75 35.2536 339.782 35.166C339.814 35.0783 339.863 34.9978 339.926 34.929C339.99 34.8603 340.066 34.8047 340.15 34.7654C340.235 34.7261 340.327 34.7039 340.42 34.7C340.609 34.6972 340.791 34.7674 340.929 34.896C341.067 35.0247 341.15 35.2017 341.16 35.39L341.44 43.18C341.444 43.2728 341.429 43.3654 341.397 43.4525C341.365 43.5396 341.316 43.6195 341.253 43.6874C341.19 43.7554 341.113 43.81 341.029 43.8482C340.944 43.8865 340.853 43.9075 340.76 43.91H340.73Z" fill="#F4DB9D"/>
<path d="M324.11 52.16C323.992 52.1621 323.875 52.1346 323.77 52.08L316.9 48.42C316.733 48.3312 316.608 48.1796 316.553 47.9986C316.497 47.8176 316.516 47.6221 316.605 47.455C316.694 47.2879 316.845 47.163 317.026 47.1077C317.207 47.0523 317.403 47.0712 317.57 47.16L324.44 50.83C324.585 50.8999 324.701 51.0174 324.769 51.1629C324.838 51.3084 324.854 51.473 324.815 51.6291C324.777 51.7851 324.685 51.923 324.557 52.0197C324.428 52.1164 324.271 52.1659 324.11 52.16V52.16Z" fill="#F4DB9D"/>
<path d="M356.689 51C356.569 51.003 356.45 50.974 356.345 50.916C356.239 50.8581 356.151 50.7732 356.089 50.67C356.037 50.5899 356.001 50.4999 355.984 50.4055C355.967 50.3111 355.969 50.2143 355.991 50.1209C356.012 50.0274 356.052 49.9393 356.109 49.8618C356.165 49.7843 356.237 49.7191 356.319 49.67L362.939 45.56C363.019 45.5073 363.109 45.4714 363.204 45.4545C363.298 45.4375 363.395 45.4399 363.488 45.4614C363.582 45.4829 363.67 45.5231 363.748 45.5795C363.825 45.636 363.89 45.7076 363.939 45.79C363.991 45.8705 364.025 45.9605 364.042 46.0546C364.058 46.1487 364.055 46.2451 364.034 46.3382C364.012 46.4312 363.973 46.5191 363.917 46.5967C363.861 46.6742 363.791 46.74 363.709 46.79L357.089 50.9C356.968 50.97 356.829 51.0047 356.689 51V51Z" fill="#F4DB9D"/>
<path d="M383.28 106.74C383.022 108.84 382.147 110.816 380.765 112.418C379.384 114.02 377.558 115.176 375.519 115.74C373.48 116.304 371.32 116.25 369.312 115.586C367.303 114.921 365.537 113.676 364.237 112.007C362.937 110.339 362.161 108.322 362.008 106.212C361.854 104.102 362.33 101.994 363.376 100.155C364.421 98.3156 365.988 96.828 367.88 95.8801C369.771 94.9322 371.901 94.5668 374 94.8301C376.808 95.1823 379.362 96.6339 381.102 98.8666C382.842 101.099 383.625 103.931 383.28 106.74V106.74Z" fill="white"/>
<path d="M372.69 117.14C371.03 117.143 369.389 116.792 367.875 116.112C366.361 115.432 365.009 114.437 363.909 113.194C362.81 111.952 361.987 110.489 361.495 108.904C361.004 107.319 360.855 105.647 361.06 104C361.508 100.984 363.117 98.2619 365.543 96.4143C367.969 94.5666 371.021 93.7391 374.048 94.108C377.075 94.4769 379.838 96.0132 381.749 98.3894C383.661 100.766 384.568 103.794 384.28 106.83V106.83C383.933 109.662 382.564 112.27 380.43 114.163C378.295 116.056 375.543 117.104 372.69 117.11V117.14ZM372.69 95.75C370.324 95.7523 368.041 96.6199 366.27 98.1893C364.5 99.7588 363.365 101.922 363.08 104.27C362.925 105.533 363.021 106.815 363.362 108.041C363.703 109.267 364.282 110.414 365.066 111.417C365.851 112.419 366.825 113.257 367.933 113.883C369.041 114.509 370.261 114.911 371.525 115.065C372.788 115.219 374.069 115.123 375.296 114.782C376.522 114.442 377.669 113.862 378.671 113.078C379.674 112.294 380.512 111.32 381.138 110.212C381.764 109.104 382.165 107.883 382.32 106.62C382.627 104.069 381.911 101.5 380.326 99.4773C378.742 97.4544 376.42 96.1426 373.87 95.83C373.468 95.7775 373.064 95.7508 372.66 95.75H372.69Z" fill="#E0E0E0"/>
<path d="M388.409 129.64C390.74 129.64 392.629 127.751 392.629 125.42C392.629 123.089 390.74 121.2 388.409 121.2C386.079 121.2 384.189 123.089 384.189 125.42C384.189 127.751 386.079 129.64 388.409 129.64Z" fill="white"/>
<path d="M388.409 130.64C387.377 130.64 386.368 130.334 385.509 129.76C384.651 129.187 383.982 128.371 383.587 127.418C383.192 126.464 383.088 125.414 383.29 124.402C383.491 123.389 383.988 122.459 384.718 121.729C385.448 120.999 386.378 120.502 387.391 120.3C388.404 120.099 389.453 120.202 390.407 120.597C391.361 120.992 392.176 121.662 392.75 122.52C393.323 123.378 393.629 124.388 393.629 125.42C393.629 126.106 393.494 126.784 393.232 127.418C392.97 128.051 392.585 128.626 392.101 129.111C391.616 129.596 391.04 129.98 390.407 130.243C389.774 130.505 389.095 130.64 388.409 130.64ZM388.409 122.21C387.772 122.21 387.149 122.399 386.619 122.753C386.09 123.108 385.677 123.611 385.434 124.2C385.19 124.789 385.127 125.437 385.252 126.062C385.377 126.687 385.685 127.261 386.136 127.71C386.587 128.16 387.162 128.466 387.787 128.589C388.413 128.712 389.06 128.647 389.649 128.402C390.237 128.157 390.739 127.743 391.092 127.212C391.444 126.681 391.631 126.057 391.629 125.42C391.629 124.998 391.546 124.579 391.384 124.189C391.222 123.799 390.985 123.445 390.686 123.147C390.387 122.848 390.032 122.612 389.641 122.451C389.25 122.291 388.832 122.209 388.409 122.21V122.21Z" fill="#E0E0E0"/>
</svg>
