<svg width="610" height="470" viewBox="0 0 610 470" fill="none" xmlns="http://www.w3.org/2000/svg">
<g clip-path="url(#clip0_1209_1934)">
<path d="M447.781 298.536C451.574 295.824 455.55 293.377 459.681 291.213C481.1 280.207 501.156 268.908 517.886 251.571C537.701 231.033 551.59 203.298 551.593 174.198C551.596 145.099 535.928 115.279 510.145 103.214C478.058 88.1929 441.352 102.476 406.44 106.076C361.431 110.717 316.684 97.0171 272.271 87.5583C227.857 78.0995 179.586 73.2846 139.237 94.1093C106.759 110.891 82.8439 144.07 76.5919 181.045C70.3399 218.02 81.9041 257.903 106.882 285.513C142.914 325.35 199.593 336.078 252.151 338.605C290.876 340.479 329.69 339.134 368.192 334.583C385.542 332.53 401.78 329 417.104 320.371C428.137 314.167 437.547 305.716 447.781 298.536Z" stroke="#FCCB3E" stroke-width="2.6" stroke-miterlimit="10"/>
<path d="M97.9763 166.577C110.622 155.062 126.331 150.202 143.077 147.466C150.882 146.191 158.897 145.379 166.925 144.566C167.511 144.507 168.097 144.447 168.683 144.388C177.292 143.513 185.898 142.598 194.222 141.068C229.229 134.651 260.735 116.515 291.971 98.534C299.027 94.4724 306.069 90.4187 313.134 86.5098C351.526 65.2703 394.614 47.5398 437.356 56.4918C471.76 63.698 502.78 88.9558 518.599 122.668C534.419 156.381 534.655 197.747 519.209 230.975L519.209 230.975C496.94 278.941 447.739 304.702 399.955 321.513C364.785 333.888 328.613 343.207 291.842 349.365C278.336 351.622 264.621 353.439 251.115 351.314C237.616 349.19 224.154 342.665 215.833 331.031L215.563 330.653L215.167 330.894L209.172 334.536C182.209 331.332 155.125 324.804 131.356 310.574C107.539 296.316 87.2289 273.526 79.3067 245.692C71.3819 217.849 77.6657 185.078 97.9763 166.577ZM97.9763 166.577L97.6397 166.207M97.9763 166.577L97.6397 166.207M97.6397 166.207C77.1568 184.865 70.8621 217.849 78.8258 245.829C86.7895 273.809 107.196 296.693 131.1 311.003C155.003 325.314 182.229 331.852 209.284 335.053L194.132 140.577C185.265 142.206 176.071 143.137 166.871 144.069C141.622 146.626 116.332 149.188 97.6397 166.207Z" fill="#F4EBD7" stroke="#FCCB3E"/>
<path d="M0 389.011H610" stroke="#102048" stroke-width="5" stroke-miterlimit="10"/>
<path d="M503.953 25.3384H322.83V180.185H503.953V25.3384Z" fill="white"/>
<g opacity="0.6">
<path opacity="0.6" d="M374.338 134.444C357.977 124.237 351.246 107.288 351.188 90.9513C351.139 77.2207 357.098 60.265 376.794 63.2827C390.033 65.3117 401.106 73.4067 413.796 76.9827C424.07 79.8783 434.978 79.0331 445.383 78.5083C461.688 77.7059 479.425 87.183 481.149 98.0606C483.459 112.639 481.32 128.793 468.471 137.284C445.965 152.168 399.657 150.237 374.338 134.444Z" stroke="#1F3C88" stroke-width="2.5" stroke-miterlimit="10" stroke-dasharray="19.91 19.91"/>
</g>
<path d="M388.034 151.235C368.979 148.263 356.145 135.319 349.68 120.304C344.249 107.684 343.08 89.7583 362.382 84.8122C375.359 81.4833 388.717 84.5864 401.795 82.8991C412.383 81.5352 422.083 76.4915 431.453 71.9146C446.139 64.7808 463.165 61.8456 472.034 75.8812C479.913 88.3669 478.262 105.515 469.774 118.364C454.89 140.873 417.518 155.833 388.034 151.235Z" fill="#F4DB9D"/>
<path d="M361.802 45.4142C362.762 41.3468 360.243 37.2713 356.175 36.3113C352.108 35.3513 348.032 37.8703 347.072 41.9378C346.112 46.0052 348.631 50.0807 352.699 51.0407C356.766 52.0007 360.842 49.4816 361.802 45.4142Z" fill="#F4DB9D"/>
<path d="M356.094 46.9128L354.44 44.6763L352.771 46.9128H351.105L353.617 43.6358L351.212 40.4595H352.894L354.477 42.574L356.058 40.4595H357.69L355.273 43.6114L357.8 46.9128H356.094Z" fill="white"/>
<path d="M381.28 45.5538C382.311 41.5039 379.864 37.3846 375.815 36.3531C371.765 35.3216 367.645 37.7684 366.614 41.8182C365.582 45.8681 368.029 49.9874 372.079 51.019C376.129 52.0505 380.248 49.6037 381.28 45.5538Z" fill="#FBC343"/>
<path d="M376.992 42.8546H370.898V44.5145H376.992V42.8546Z" fill="white"/>
<path d="M443.038 132.418C424.099 143.265 414.906 140.284 411.915 138.602C408.947 140.284 399.753 143.265 380.814 132.418C362.671 122.019 373.247 99.6626 380.393 86.0602C384.274 78.6701 387.268 70.8711 394.075 65.5467C400.482 60.5365 407.656 58.9896 416.071 59.4045C427.638 59.9751 434.818 66.8648 438.367 75.1306C441.189 81.706 444.695 87.8543 447.777 94.2954C450.666 100.328 452.994 106.894 453.211 113.591C453.482 121.384 450.12 128.366 443.038 132.418Z" fill="#6F3428"/>
<path d="M447.511 131.779C435.974 118.4 414.721 121.19 412.453 121.531C410.191 121.19 388.935 118.403 377.395 131.779C368.702 141.852 368.815 182.062 368.815 182.062C368.815 181.07 409.247 180.776 412.453 180.757C415.659 180.738 456.091 181.07 456.091 182.062C456.091 182.062 456.204 141.852 447.511 131.779Z" fill="#FCCB3E"/>
<path d="M394.334 91.7293C389.781 92.1931 385.992 103.281 398.301 103.513L401.245 100.026L394.334 91.7293Z" fill="#E28B6D"/>
<path d="M430.435 91.7293C435.567 91.9978 439.213 103.281 426.902 103.513L423.957 100.026L430.435 91.7293Z" fill="#E28B6D"/>
<path d="M402.082 108.301H422.596V121.232C422.596 123.95 421.516 126.557 419.594 128.479C417.672 130.401 415.065 131.481 412.346 131.481C411 131.481 409.668 131.216 408.424 130.701C407.181 130.186 406.051 129.431 405.099 128.479C404.147 127.527 403.392 126.397 402.877 125.154C402.362 123.91 402.097 122.578 402.097 121.232V108.301H402.082Z" fill="#F9B384"/>
<path d="M422.526 111.044C415.783 122.028 408.936 121.836 401.994 111.422L422.526 111.044Z" fill="#E28B6D"/>
<path d="M432.102 83.5154C432.002 84.5193 431.883 85.5048 431.758 86.4812C429.622 102.732 424.084 115.468 412.028 115.468C399.656 115.468 395.347 103.263 393.086 86.2768C392.894 84.8915 392.729 83.4574 392.564 82.0051L416.901 72.2777L432.102 83.5154Z" fill="#F9B384"/>
<path d="M390.588 91.3479C396.785 93.438 408.611 86.4446 408.611 86.4446C407.696 83.7839 408.99 81.166 411.577 78.5724C411.421 81.2087 412.032 85.34 414.39 86.8626C414.39 86.8626 415.986 87.241 418.458 86.7101C417.847 83.6985 418.293 81.0592 420.13 78.9141C420.13 78.9141 422.906 86.4812 424.273 88.193C426.006 90.3563 432.234 93.6242 437.809 90.8903L427.434 67.3957L399.946 66.8251L387.506 78.3466L390.588 91.3479Z" fill="#6F3428"/>
<path d="M405.256 94.2588C406.161 94.2588 406.894 93.2561 406.894 92.0192C406.894 90.7823 406.161 89.7796 405.256 89.7796C404.351 89.7796 403.617 90.7823 403.617 92.0192C403.617 93.2561 404.351 94.2588 405.256 94.2588Z" fill="#6F3428"/>
<path d="M419.019 94.2588C419.924 94.2588 420.658 93.2561 420.658 92.0192C420.658 90.7823 419.924 89.7796 419.019 89.7796C418.114 89.7796 417.381 90.7823 417.381 92.0192C417.381 93.2561 418.114 94.2588 419.019 94.2588Z" fill="#6F3428"/>
<path d="M414.29 98.0576C414.29 100.233 414.464 101.945 412.658 101.994C410.94 102.039 411.022 100.233 411.022 98.0576C411.022 95.8821 411.754 94.1246 412.658 94.1246C413.561 94.1246 414.29 95.8912 414.29 98.0576Z" fill="#E28B6D"/>
<path d="M407.613 105.655L417.951 105.371C417.951 105.371 413.633 113.64 407.613 105.655Z" fill="white"/>
<path opacity="0.3" d="M422.496 104.16C424.914 104.16 426.874 102.2 426.874 99.7816C426.874 97.3634 424.914 95.4031 422.496 95.4031C420.078 95.4031 418.117 97.3634 418.117 99.7816C418.117 102.2 420.078 104.16 422.496 104.16Z" fill="#FBB07D"/>
<path opacity="0.3" d="M408.023 100.954C408.409 98.5667 406.786 96.3187 404.399 95.9329C402.012 95.5471 399.764 97.1696 399.378 99.5568C398.992 101.944 400.615 104.192 403.002 104.578C405.389 104.964 407.637 103.341 408.023 100.954Z" fill="#FBB07D"/>
<g opacity="0.4">
<path opacity="0.4" d="M400.236 131.42C400.985 132.272 401.895 132.969 402.912 133.47C403.923 134.001 404.988 134.423 406.089 134.727C408.293 135.344 410.581 135.611 412.868 135.518C415.143 135.441 417.382 134.922 419.459 133.992C421.532 133.028 423.341 131.575 424.732 129.76L425.18 130.065C424.584 131.126 423.838 132.096 422.965 132.945C422.07 133.785 421.069 134.503 419.987 135.081C417.797 136.204 415.383 136.82 412.923 136.885C410.484 136.984 408.047 136.628 405.738 135.835C404.583 135.442 403.476 134.919 402.439 134.276C401.383 133.631 400.481 132.763 399.797 131.731L400.236 131.42Z" fill="#6F3428"/>
</g>
<g opacity="0.4">
<path opacity="0.4" d="M388.635 148.067C388.724 150.392 388.73 152.714 388.718 155.036C388.705 157.358 388.66 159.677 388.596 161.999C388.531 164.321 388.428 166.637 388.29 168.953L388.059 172.428C387.952 173.585 387.869 174.744 387.735 175.901L387.201 175.882C387.14 174.72 387.134 173.56 387.104 172.398V168.913C387.104 166.594 387.168 164.272 387.247 161.954C387.326 159.635 387.421 157.316 387.576 155C387.732 152.684 387.882 150.365 388.11 148.052L388.635 148.067Z" fill="#6F3428"/>
</g>
<g opacity="0.4">
<path opacity="0.4" d="M437.055 146.899C437.445 149.224 437.753 151.552 438.043 153.886C438.333 156.22 438.586 158.551 438.824 160.889C439.062 163.226 439.264 165.566 439.435 167.906L439.657 171.425C439.7 172.599 439.77 173.774 439.786 174.952L439.255 175.004C439.044 173.844 438.886 172.679 438.705 171.516L438.245 168.019C437.94 165.688 437.708 163.354 437.485 161.001C437.262 158.649 437.055 156.324 436.908 153.984C436.762 151.643 436.603 149.294 436.539 146.938L437.055 146.899Z" fill="#6F3428"/>
</g>
<path d="M323.77 201.769V180.185H346.293L323.77 201.769Z" fill="white"/>
<path d="M322.83 25.3384V181.804V202.708L345.58 181.804H503.953V25.3384H322.83Z" stroke="#708CD5" stroke-width="3.5" stroke-miterlimit="10"/>
<path opacity="0.15" d="M74.2465 422.81C90.2554 422.81 103.233 420.338 103.233 417.29C103.233 414.242 90.2554 411.77 74.2465 411.77C58.2376 411.77 45.2598 414.242 45.2598 417.29C45.2598 420.338 58.2376 422.81 74.2465 422.81Z" fill="#1F3C88"/>
<path d="M60.9488 406.547C54.6785 406.547 47.6973 397.365 47.6973 391.144C47.6973 384.819 52.7379 379.674 58.935 379.674C65.132 379.674 70.1788 384.819 70.1788 391.144C70.1788 397.1 67.6706 406.547 60.9488 406.547ZM58.935 383.488C54.8402 383.488 51.5113 386.921 51.5113 391.144C51.5113 395.8 57.1561 402.739 60.9488 402.739C64.4363 402.739 66.3617 395.886 66.3617 391.144C66.3617 386.921 63.0297 383.488 58.935 383.488V383.488Z" fill="#F4DB9D"/>
<path d="M82.6345 416.469H66.1303C64.8084 416.469 63.5347 415.972 62.562 415.077C61.5893 414.182 60.9886 412.954 60.8792 411.636L57.4648 370.502H91.9834L87.8765 411.722C87.7471 413.022 87.139 414.228 86.1703 415.106C85.2016 415.983 83.9414 416.469 82.6345 416.469Z" fill="#F4DB9D"/>
<path d="M61.4664 321.188C60.31 325.057 59.7943 329.042 60.4503 332.875C60.7764 334.785 61.3211 336.651 62.0736 338.437C62.8637 340.223 63.8146 341.934 64.9143 343.548C66.0402 345.176 67.2769 346.724 68.6154 348.183C68.9389 348.533 69.2898 348.967 69.6437 349.403C69.9976 349.839 70.3577 350.236 70.6811 350.685L71.5965 352.094C71.8849 352.584 72.1378 353.094 72.3532 353.62C72.5959 354.142 72.787 354.687 72.9238 355.246C73.0876 355.812 73.1899 356.394 73.2289 356.982C73.2655 357.277 73.2655 357.575 73.2289 357.87L73.1679 358.758C73.1252 359.063 73.0458 359.338 72.9818 359.628C72.9277 359.917 72.8439 360.201 72.7315 360.473L72.399 361.282C72.2617 361.538 72.1152 361.785 71.9718 362.032C71.832 362.281 71.6718 362.518 71.4927 362.74C71.3309 362.971 71.1524 363.191 70.9588 363.396C70.2194 364.234 69.3435 364.941 68.3683 365.486L67.7336 364.476C69.1433 363.234 70.3028 361.562 70.6933 359.838C70.7588 359.628 70.7987 359.411 70.8123 359.191C70.8337 358.972 70.8795 358.758 70.8856 358.542L70.8581 357.886C70.8644 357.667 70.8387 357.449 70.7818 357.239C70.7205 356.802 70.6121 356.373 70.4584 355.96C70.3245 355.536 70.1476 355.127 69.9305 354.74C69.7209 354.33 69.4897 353.932 69.2379 353.547L68.4202 352.402C68.115 352.033 67.7794 351.688 67.4651 351.328L66.4521 350.227C65.729 349.449 65.0058 348.671 64.3437 347.832C63.6571 347.009 63.0125 346.153 62.4123 345.266C61.2045 343.472 60.1899 341.555 59.3854 339.548C58.6002 337.513 58.0932 335.381 57.8781 333.21C57.4326 328.853 58.467 324.484 60.3771 320.746L61.4664 321.188Z" fill="#D3DFFF"/>
<path d="M76.457 320.011C78.6883 321.817 80.3219 324.256 81.1437 327.007C81.5474 328.406 81.7528 329.854 81.754 331.309C81.743 332.747 81.5752 334.18 81.2536 335.581C80.922 336.952 80.476 338.294 79.9202 339.59L79.5601 340.475C79.4533 340.753 79.3221 341.028 79.2306 341.305L79.0262 342.126C78.9407 342.407 78.9316 342.672 78.8705 342.947C78.827 343.212 78.8087 343.481 78.8156 343.749C78.8114 344.009 78.8339 344.269 78.8828 344.524C78.9225 344.777 78.9837 345.026 79.0658 345.269C79.1656 345.506 79.2829 345.735 79.4167 345.955C79.9476 346.871 80.9637 347.621 82.0286 348.091L81.7936 349.26C80.244 349.111 78.802 348.401 77.7385 347.264C77.4694 346.955 77.2265 346.625 77.0123 346.276C76.8158 345.913 76.6504 345.534 76.518 345.144C76.3893 344.756 76.3023 344.356 76.2587 343.951C76.2006 343.557 76.1802 343.158 76.1977 342.761C76.2012 342.372 76.2328 341.985 76.2922 341.601L76.518 340.49C76.6126 340.127 76.7408 339.789 76.8506 339.435C76.9605 339.081 77.0795 338.721 77.1893 338.446C77.6437 337.277 78.0219 336.079 78.3213 334.861C78.6057 333.666 78.7874 332.45 78.8644 331.224C78.9166 330.013 78.8368 328.799 78.6264 327.605C78.2054 325.207 77.0795 322.946 75.5996 320.804L76.457 320.011Z" fill="#D3DFFF"/>
<path opacity="0.15" d="M514.579 425.504C546.597 425.504 572.553 421.661 572.553 416.921C572.553 412.181 546.597 408.338 514.579 408.338C482.561 408.338 456.605 412.181 456.605 416.921C456.605 421.661 482.561 425.504 514.579 425.504Z" fill="#1F3C88"/>
<path d="M518.271 277.135H510.133V356.72H518.271V277.135Z" fill="#27481F"/>
<path d="M516.232 271.789C516.147 276.384 515.784 280.969 515.143 285.519C514.798 287.93 514.508 289.321 514.508 289.321C492.295 282.111 482.104 268.344 477.862 254.452C477.466 253.185 477.13 251.913 476.84 250.644C472.355 231.317 478.366 212.9 478.366 212.9C488.551 215.036 496.063 219.469 501.61 225.181C502.562 226.161 503.441 227.165 504.28 228.211C514.517 241.054 516.476 258.745 516.232 271.789Z" fill="#49883A"/>
<path d="M545.03 233.313C544.588 248.764 538.577 266.766 519.934 284.052C518.506 285.379 516.995 286.709 515.409 288.018C515.241 288.162 515.073 288.299 514.905 288.436C514.905 288.436 511.817 283.908 508.635 276.537C508.589 276.427 508.543 276.329 508.507 276.231C507.276 273.363 506.199 270.432 505.279 267.45C504.422 264.69 503.709 261.887 503.143 259.053C500.9 247.681 500.894 234.191 507.109 220.842C511.763 210.789 519.925 200.82 533.32 191.871C533.304 191.874 545.717 209.602 545.03 233.313Z" fill="#49883A"/>
<path opacity="0.5" d="M519.932 284.052C518.504 285.379 516.993 286.709 515.407 288.018C515.239 288.162 515.071 288.299 514.903 288.436C514.903 288.436 511.815 283.908 508.633 276.537C508.59 276.436 508.547 276.323 508.505 276.231C508.236 275.603 507.965 274.953 507.699 274.285C507.595 274.028 507.495 273.76 507.394 273.501C507.22 273.052 507.043 272.607 506.872 272.143C506.735 271.78 506.604 271.398 506.473 271.023C506.341 270.648 506.189 270.248 506.054 269.848C505.79 269.067 505.531 268.268 505.276 267.45C504.419 264.69 503.707 261.887 503.141 259.053C501.31 249.777 500.968 239.092 504.279 228.236C503.446 227.189 502.561 226.185 501.609 225.206C499.473 230.85 495.998 243.785 495.583 255.45C490.447 253.439 484.275 251.788 476.839 250.668C477.144 251.938 477.449 253.21 477.861 254.476C474.696 253.719 471.266 253.063 467.572 252.508C470.492 262.47 482.218 294.203 512.782 294.676C513.562 294.692 514.35 294.685 515.147 294.655C516.407 294.615 517.695 294.514 519.022 294.35C519.016 294.35 520.398 290.026 519.932 284.052Z" fill="#27481F"/>
<path d="M515.354 292.977C515.359 293.002 515.359 293.028 515.354 293.053C515.354 293.245 515.324 293.428 515.302 293.602C515.288 293.686 515.278 293.77 515.272 293.855C515.257 293.999 515.241 294.136 515.217 294.273C515.165 294.694 515.104 295.082 515.043 295.457C515.003 295.701 514.958 295.936 514.912 296.168C514.707 297.278 514.419 298.372 514.051 299.439C511.971 299.575 509.883 299.575 507.803 299.439C471.609 297.013 464.17 252.02 464.17 252.02C465.335 252.166 466.475 252.327 467.587 252.502C471.285 253.051 474.715 253.707 477.876 254.47C490.96 257.582 499.616 262.272 505.291 267.459C506.89 268.909 508.344 270.512 509.633 272.243C512.558 276.143 514.457 280.714 515.156 285.538C515.284 286.395 515.37 287.225 515.421 288.034C515.528 289.681 515.505 291.333 515.354 292.977Z" fill="#49883A"/>
<path opacity="0.38" d="M545.03 233.313C544.787 241.84 542.839 250.232 539.3 257.994C535.419 266.593 529.255 275.411 519.934 284.052C519.894 284.082 519.857 284.122 519.818 284.152C519.268 284.662 518.704 285.175 518.124 285.678C517.956 285.831 517.789 285.983 517.615 286.136C516.898 286.764 516.165 287.396 515.409 288.021C515.357 287.213 515.271 286.383 515.143 285.526C514.444 280.702 512.545 276.131 509.62 272.231C508.332 270.5 506.877 268.897 505.278 267.447C504.421 264.687 503.709 261.884 503.143 259.05C505.074 260.167 506.91 261.439 508.635 262.855C509.709 263.743 510.728 264.696 511.686 265.708C516.477 253.243 526.082 240.474 545.03 233.313Z" fill="#27481F"/>
<path opacity="0.2" d="M515.353 292.977C515.358 293.002 515.358 293.028 515.353 293.053C515.353 293.245 515.322 293.428 515.301 293.602C515.286 293.686 515.276 293.771 515.271 293.855C515.255 293.999 515.24 294.136 515.216 294.273C515.164 294.695 515.103 295.082 515.042 295.457C514.996 295.701 514.956 295.936 514.911 296.168C514.705 297.278 514.418 298.372 514.05 299.439C511.969 299.575 509.882 299.575 507.801 299.439C507.465 296.943 506.498 287.658 508.655 276.555C508.93 275.142 509.266 273.702 509.641 272.244C512.566 276.143 514.465 280.714 515.164 285.538C515.292 286.395 515.377 287.225 515.429 288.034C515.533 289.681 515.507 291.334 515.353 292.977Z" fill="#27481F"/>
<path d="M550.178 346.55L541.232 405.134C540.748 408.294 539.149 411.176 536.723 413.258C534.298 415.34 531.207 416.485 528.01 416.484H501.159C497.964 416.48 494.876 415.334 492.452 413.253C490.028 411.171 488.429 408.292 487.942 405.134L478.992 346.55H550.178Z" fill="#FBC343"/>
<path d="M513.09 299.509C513.09 299.509 503.287 241.368 565.639 232.992C565.639 232.983 569.55 296.699 513.09 299.509Z" fill="#49883A"/>
<path opacity="0.4" d="M550.178 346.55L541.232 405.134C540.749 408.294 539.149 411.176 536.724 413.258C534.299 415.34 531.208 416.485 528.011 416.484H501.16C498.345 416.485 495.601 415.596 493.321 413.946C491.04 412.295 489.34 409.966 488.461 407.291C523.343 401.701 532.704 365.794 534.587 346.572L550.178 346.55Z" fill="#C89B35"/>
<path opacity="0.15" d="M420.542 417.626C420.542 410.474 356.814 404.673 278.196 404.673C199.578 404.673 135.85 410.471 135.85 417.626C135.85 423.423 177.777 428.342 235.567 429.989C241.862 440.315 231.356 452.663 223.304 457.118C209.168 457.823 199.019 459.397 200.618 462.75C208.173 478.617 272.386 461.734 272.386 461.734C272.386 461.734 297.495 463.297 297.495 460.907C297.495 459.809 293.074 458.805 285.8 458.042L286.337 458.012L259.229 430.465C265.436 430.543 271.758 430.581 278.196 430.581C356.814 430.581 420.542 424.781 420.542 417.626Z" fill="#1F3C88"/>
<path d="M433.116 322.476C431.239 353.437 415.632 384.376 390.048 401.402C359.551 421.702 316.91 417.211 282.18 419.795C252.156 422.032 221.903 423.951 191.864 420.756C167.256 418.132 142.434 408.384 130.68 384.492C118.903 360.546 117.627 328.731 129.405 304.495C133.144 296.871 138.107 289.912 144.097 283.893C145.058 282.908 146.059 281.946 147.072 281.01C147.758 280.378 148.454 279.753 149.162 279.142C150.245 278.203 151.359 277.287 152.488 276.396C152.863 276.091 153.235 275.817 153.617 275.53C153.998 275.243 154.373 274.956 154.755 274.672C155.136 274.389 155.518 274.108 155.905 273.833L156.775 273.223C157.257 272.877 157.745 272.542 158.239 272.216C162.624 269.266 167.229 266.66 172.016 264.42C176.621 262.249 181.372 260.401 186.234 258.888C202.034 253.985 218.532 252.246 234.834 250.104C269.426 245.564 304.647 244.001 339.513 244.038C367.966 244.038 400.004 248.31 419.028 272.72C429.775 286.508 434.19 304.84 433.116 322.476Z" fill="#F4DB9D"/>
<path d="M374.542 270.181C374.542 270.181 381.865 263.288 385.771 259.297C389.677 255.306 381.173 255.178 376.992 260.148C372.812 265.119 374.542 270.181 374.542 270.181Z" fill="#F9B384"/>
<path d="M172.022 264.411C167.236 266.651 162.63 269.257 158.246 272.207C157.752 272.534 157.263 272.87 156.781 273.214L155.912 273.824C155.524 274.099 155.143 274.382 154.761 274.663C154.38 274.944 153.999 275.228 153.623 275.521C153.248 275.813 152.87 276.097 152.494 276.387C151.381 277.275 150.291 278.181 149.214 279.112L149.169 279.136C148.461 279.747 147.765 280.372 147.078 281.004C146.065 281.94 145.065 282.901 144.104 283.887C144.13 284.3 144.287 284.694 144.553 285.011C144.819 285.328 145.179 285.552 145.58 285.651C151.304 286.81 154.173 292.272 158.786 295.378C162.213 297.682 166.259 298.313 170.134 296.992C165.963 305.841 163.662 314.595 165.462 324.484C166.016 327.476 166.956 330.383 168.257 333.134C162.896 329.167 157.73 320.624 155.607 311.971C155.462 311.381 155.089 310.873 154.569 310.559C154.05 310.244 153.427 310.149 152.838 310.294C152.248 310.439 151.74 310.812 151.426 311.331C151.111 311.85 151.016 312.473 151.161 313.063C153.791 323.773 160.486 334.065 167.442 338.083C168.986 338.988 170.68 339.609 172.443 339.914C173.819 341.685 175.362 343.32 177.051 344.796L187.333 347.67L195.724 293.511L172.022 264.411Z" fill="#79B4B7"/>
<path d="M201.827 300.782C180.566 292.501 165.808 283.695 157.237 277.833C154.519 275.968 152.394 273.361 151.113 270.324C149.832 267.287 149.45 263.946 150.011 260.698L160.974 196.792C161.526 193.552 162.878 190.502 164.908 187.917C166.938 185.333 169.582 183.297 172.6 181.994C188.518 175.152 205.278 170.464 222.435 168.053C228.855 167.663 235.296 167.79 241.695 168.434C248.801 169.136 265.064 173.927 275.402 177.139C278.285 178.034 280.929 179.569 283.136 181.63C285.342 183.691 287.054 186.224 288.144 189.039C292.48 200.213 299.522 219.079 301.768 229.279C309.524 264.493 308.251 261.888 308.251 261.888L316.261 316.047L231.208 320.816L209.468 310.9L201.827 300.782Z" fill="#F4DB9D"/>
<path d="M254.473 107.22C254.473 107.22 246.94 91.7721 226.917 98.8296C212.424 95.6807 201.363 112.844 212.043 136.207L232.159 140.879L254.473 107.22Z" fill="#102048"/>
<path d="M243.793 150.89V178.213C243.793 181.289 242.571 184.238 240.397 186.412C238.223 188.587 235.273 189.808 232.198 189.808C228.037 189.807 224.046 188.154 221.103 185.211C218.16 182.268 216.507 178.277 216.506 174.116V150.89H243.793Z" fill="#F9B384"/>
<path d="M243.795 162.225V177.13C231.641 177.191 223.58 161.478 223.58 161.478L243.795 162.225Z" fill="#E28B6D"/>
<path d="M255.804 147.457C255.072 151.241 254.025 155.113 252.524 158.524C249.9 164.51 245.894 169.072 239.776 169.203C225.46 169.508 214.414 149.944 214.414 149.944L216.702 123.246L227.571 111.041L257.525 129.531C257.485 135.546 256.909 141.545 255.804 147.457Z" fill="#F9B384"/>
<path d="M216.226 142.117C216.226 142.117 219.18 130.105 229.478 122.284C229.478 122.284 244.45 141.831 260.277 132.393C276.104 122.956 269.242 104.358 254.461 107.22L237.487 105.313L216.226 112.081L212.602 128.768L216.226 142.117Z" fill="#102048"/>
<path opacity="0.4" d="M231.253 280.586C216.83 249.42 198.648 264.295 194.199 252.853C187.962 236.819 189.146 218.679 189.113 213.187L180.426 262.101C180.426 262.101 199.823 263.932 206.993 275.624L231.253 280.586Z" fill="#1F3C88"/>
<path d="M189.555 212.351C189.015 216.537 188.377 220.705 187.724 224.861C187.071 229.017 186.33 233.175 185.64 237.334C184.95 241.493 184.154 245.631 183.339 249.768L182.097 255.968C181.649 258.031 181.231 260.096 180.746 262.15L180.117 262.04C180.367 259.944 180.685 257.86 180.968 255.77L181.93 249.518C182.585 245.356 183.287 241.2 184.038 237.05C184.816 232.907 185.533 228.754 186.36 224.62C187.187 220.485 188.002 216.351 188.929 212.235L189.555 212.351Z" fill="#1F3C88"/>
<path d="M273.824 204.616C274.977 210.05 276.045 215.5 277.088 220.955C278.132 226.411 279.108 231.876 280.121 237.337C281.134 242.799 282.037 248.276 282.959 253.753L284.289 261.991C284.701 264.737 285.14 267.484 285.51 270.23L284.924 270.333C284.314 267.621 283.795 264.896 283.23 262.174L281.638 253.997C280.61 248.541 279.607 243.08 278.626 237.612C277.689 232.138 276.698 226.676 275.81 221.193C274.922 215.71 274.022 210.23 273.229 204.732L273.824 204.616Z" fill="#1F3C88"/>
<path opacity="0.4" d="M277.855 229.84C278.871 239.757 277.346 291.118 253.445 291.881L253.699 303.07L291.329 300.782L277.855 229.84Z" fill="#1F3C88"/>
<path d="M228.715 290.484C245.689 283.237 248.933 283.506 251.218 283.619C259.038 284 270.288 299.638 270.288 299.638L270.099 302.5H227.189L228.715 290.484Z" fill="#E28B6D"/>
<path d="M293.999 299.702H241.176V307.711H293.999V299.702Z" fill="white"/>
<path d="M365.831 307.717H274.041L294.637 225.691H386.427L365.831 307.717Z" fill="#FBC343"/>
<path d="M374.15 274.169C365.069 272.811 335.704 266.709 275.186 303.58L273.785 308.663L365.832 307.717L374.15 274.169Z" fill="#C89B35"/>
<path d="M375.892 292.391C375.318 296.254 375.129 301.926 363.162 301.212L359.635 299.399L362.97 295.738L370.171 292.076L375.892 292.391Z" fill="#F9B384"/>
<path d="M377.02 281.965C377.02 281.965 383.568 290.508 376.986 293.154C372.519 294.892 367.762 295.766 362.969 295.729C366.02 287.146 375.937 287.719 375.937 287.719L377.02 281.965Z" fill="#F9B384"/>
<path d="M377.208 276.436C377.208 276.436 386.234 284.827 377.843 287.179C365.995 290.499 362.333 290.737 362.333 290.737C361.699 284.445 373.458 280.378 373.458 280.378L377.208 276.436Z" fill="#F9B384"/>
<path d="M375.366 269.125C375.366 269.125 387.699 276.625 376.128 280.82C364.558 285.016 361.824 284.955 361.824 284.955C361.19 278.66 373.587 276.5 373.587 276.5L375.366 269.125Z" fill="#F9B384"/>
<path d="M361.824 284.955C361.824 284.955 375.271 283.048 379.274 279.804" stroke="#E28B6D" stroke-width="2.5" stroke-miterlimit="10"/>
<path d="M362.334 290.737C362.334 290.737 376.318 288.769 380.706 285.718" stroke="#E28B6D" stroke-width="2.5" stroke-miterlimit="10"/>
<path d="M362.969 295.729C362.969 295.729 371.265 296.016 375.937 293.727" stroke="#E28B6D" stroke-width="2.5" stroke-miterlimit="10"/>
<path d="M232.721 415.966C234.118 415.203 256.24 420.033 280.778 401.854L249.121 392.828L232.721 415.966Z" fill="#102048"/>
<path d="M373.281 310.964C374.334 309.462 375.243 307.25 373.916 305.984C372.534 304.657 370.276 305.822 368.827 307.076C366.295 309.27 363.948 311.667 361.809 314.244L308.366 324.175L235.137 341.973L247.729 358.044C284.344 360.714 305.196 361.401 328.111 357.358C339.791 355.295 350.229 353.171 358.013 346.825C359.865 345.299 361.62 342.758 360.414 340.692C359.6 339.297 357.906 338.928 356.204 338.943C360.116 338.025 363.913 336.672 367.524 334.91C369.135 334.132 370.926 332.911 370.88 331.126C370.856 329.845 369.818 328.761 368.628 328.304C367.438 327.846 366.126 327.883 364.854 327.974C359.972 328.35 355.168 329.416 350.586 331.141C358.919 325.304 367.408 319.272 373.281 310.964ZM350.458 331.212C350.458 331.193 350.458 331.187 350.483 331.172C350.509 331.164 350.534 331.154 350.559 331.141C350.528 331.163 350.489 331.187 350.458 331.212Z" fill="#79B4B7"/>
<path d="M250.646 317.945C250.646 317.945 321.969 284 345.235 285.526C368.501 287.051 367.738 316.038 358.965 328.624C350.193 341.211 329.597 357.992 253.698 353.034L250.646 317.945Z" fill="#4F98A2"/>
<path d="M286.337 458.012C282.477 459.104 277 459.37 269.463 458.171C269.463 458.171 259.699 460.703 250.088 462.696C243.583 464.044 237.151 465.137 233.865 465.036C233.581 465.036 233.3 465.014 233.01 464.99C226.7 464.542 218.752 461.252 214.535 456.553C214.535 456.553 214.52 456.523 214.505 456.517C213.384 455.311 212.528 453.884 211.993 452.327C209.705 445.203 214.541 436.562 240.73 438.338C240.73 438.338 249.371 436.308 251.409 429.947C253.447 423.585 238.442 393.082 238.442 393.082L259.8 378.588L280.777 401.854C280.777 401.854 283.957 422.831 283.957 429.696C283.957 429.696 292.851 442.411 294.127 448.004C294.941 451.574 293.156 456.08 286.337 458.012Z" fill="#D3DFFF"/>
<path d="M166.25 264.82C168.691 263.877 171.187 263.117 173.707 262.415C174.97 262.071 176.24 261.75 177.533 261.5C178.177 261.369 178.83 261.256 179.492 261.168C179.825 261.122 180.154 261.088 180.499 261.061C180.856 261.041 181.214 261.047 181.57 261.079C184.316 261.384 186.794 262.229 189.262 263.142C191.731 264.054 194.12 265.122 196.479 266.257C198.837 267.392 201.147 268.622 203.414 269.918C205.681 271.215 207.905 272.6 210.072 274.068C214.374 277.04 218.515 280.302 222.075 284.137L221.624 284.589C219.708 282.856 217.711 281.219 215.634 279.679C213.575 278.123 211.445 276.665 209.263 275.279C204.921 272.484 200.417 269.946 195.777 267.679C193.464 266.535 191.111 265.476 188.719 264.53C186.327 263.639 183.88 262.681 181.445 262.351C181.155 262.312 180.862 262.295 180.569 262.3C180.264 262.3 179.959 262.339 179.654 262.373C179.026 262.44 178.394 262.531 177.762 262.641C176.499 262.861 175.233 263.117 173.973 263.401C171.455 263.975 168.944 264.64 166.479 265.403L166.25 264.82Z" fill="#1F3C88"/>
<path d="M178.942 364.668C187.522 364.095 195.956 364.708 202.08 362.569C208.628 360.281 225.727 361.806 225.727 361.806L216.332 348.268L178.191 357.803L178.942 364.668Z" fill="#B35341"/>
<path d="M179.324 339.685C170.552 325.573 170.552 297.73 181.612 285.144C194.254 270.761 221.278 265.311 235.39 282.093C249.502 298.875 275.438 360.281 280.777 401.854C280.777 401.854 252.172 392.319 232.72 415.966C232.72 415.966 207.166 357.611 201.827 336.252L187.333 347.694L179.324 339.685Z" fill="#4F98A2"/>
<path d="M201.828 336.252C201.828 336.252 198.014 334.855 192.674 338.413C192.674 338.413 150.973 337.525 141.694 346.932C132.415 356.339 139.531 368.925 153.136 370.325C164.551 371.497 186.7 362.642 193.544 359.765C194.93 359.179 196.405 358.829 197.907 358.731L209.197 357.992L201.828 336.252Z" fill="#D3DFFF"/>
<path d="M218.468 142.895C218.468 142.895 215.67 133.626 209.515 135.942C203.361 138.258 206.641 150.325 218.785 153.682L218.468 142.895Z" fill="#F9B384"/>
<path d="M211.927 194.007C214.928 196.169 218.189 197.946 221.633 199.298C225.062 200.585 228.681 201.4 232.312 201.311C235.947 201.262 239.521 200.375 242.756 198.718L243.977 198.108C244.377 197.888 244.743 197.61 245.127 197.366C245.908 196.887 246.652 196.35 247.352 195.758L248.423 194.888L248.96 194.452C249.137 194.303 249.289 194.147 249.457 193.97C250.106 193.317 250.766 192.668 251.437 192.023L251.895 192.408C251.285 193.132 250.674 193.853 250.064 194.571C249.908 194.748 249.759 194.934 249.594 195.105L249.079 195.593L248.035 196.582C247.337 197.232 246.59 197.827 245.802 198.364C245.411 198.642 245.039 198.947 244.633 199.197L243.382 199.911C240.003 201.804 236.2 202.812 232.327 202.84C228.482 202.832 224.679 202.038 221.151 200.509C217.662 199.011 214.427 196.981 211.561 194.492L211.927 194.007Z" fill="#1F3C88"/>
<path d="M195.506 311.9L198.81 323.465C199.936 327.312 200.986 331.178 202.167 335.007C203.347 338.837 204.464 342.678 205.669 346.492C206.28 348.399 206.869 350.312 207.531 352.198C207.836 353.144 208.141 354.105 208.486 355.045C208.83 355.985 209.16 356.928 209.483 357.876L208.931 358.108C208.079 356.278 207.278 354.431 206.53 352.567C205.779 350.697 205.096 348.805 204.394 346.916C203.039 343.127 201.84 339.288 200.705 335.435C199.57 331.581 198.517 327.7 197.562 323.797C196.607 319.895 195.683 315.986 194.92 312.038L195.506 311.9Z" fill="#102048"/>
<path opacity="0.1" d="M286.337 458.012C282.477 459.104 277 459.37 269.464 458.171C269.464 458.171 253.317 462.308 243.113 463.928C253.603 461.829 268.86 448.861 267.142 440.663C282.209 445.621 286.307 453.154 286.337 458.012Z" fill="#1F3C88"/>
<path opacity="0.4" d="M245.781 459.446C243.834 461.841 240.935 463.464 237.893 464.282C236.299 464.705 234.66 464.942 233.011 464.99C226.701 464.541 218.753 461.252 214.536 456.553C214.536 456.553 214.521 456.523 214.506 456.517C214.059 455.91 213.651 455.275 213.285 454.616C215.465 456.664 217.932 458.383 220.608 459.72C221.916 460.37 223.27 460.921 224.66 461.368C225.338 461.628 226.048 461.78 226.75 461.978C227.453 462.163 228.166 462.305 228.886 462.406C234.558 463.367 240.609 462.772 245.781 459.446Z" fill="#1F3C88"/>
<path d="M215.723 144.211C215.551 143.378 215.213 142.589 214.728 141.892C214.281 141.187 213.711 140.567 213.047 140.061C212.397 139.606 211.692 139.38 211.097 139.701C210.502 140.021 209.977 140.772 209.544 141.532L209.123 141.385C209.306 140.47 209.639 139.484 210.588 138.828C211.076 138.505 211.671 138.382 212.248 138.486C212.776 138.587 213.276 138.805 213.709 139.124C214.498 139.72 215.136 140.493 215.573 141.379C216.056 142.235 216.268 143.216 216.184 144.195L215.723 144.211Z" fill="#E28B6D"/>
<path d="M252.011 143.979C251.742 145.294 250.751 146.203 249.796 146.011C248.841 145.819 248.285 144.592 248.554 143.265C248.822 141.937 249.811 141.04 250.766 141.236C251.721 141.431 252.276 142.664 252.011 143.979Z" fill="#102048"/>
<path d="M237.142 143.397C237.358 142.072 236.754 140.87 235.793 140.713C234.832 140.556 233.877 141.504 233.661 142.83C233.445 144.155 234.049 145.357 235.01 145.513C235.972 145.67 236.926 144.723 237.142 143.397Z" fill="#102048"/>
<path d="M243.455 145.193C243.546 146.276 243.589 147.353 243.601 148.409C243.661 148.833 243.861 149.225 244.169 149.523C244.568 149.921 244.938 150.347 245.276 150.798C245.466 151.075 245.601 151.386 245.673 151.714C245.743 152.032 245.764 152.359 245.737 152.684C245.687 153.333 245.443 153.952 245.035 154.46C244.818 154.714 244.551 154.922 244.251 155.07C243.946 155.21 243.613 155.28 243.278 155.274C242.671 155.237 242.088 155.026 241.6 154.664L241.81 154.271C242.262 154.451 242.751 154.52 243.235 154.472C243.44 154.445 243.636 154.373 243.81 154.261C243.983 154.149 244.13 154 244.239 153.825C244.706 153.129 244.773 152.043 244.324 151.384C244.089 151.009 243.714 150.655 243.33 150.188C242.887 149.693 242.637 149.055 242.625 148.391C242.707 147.283 242.841 146.197 243.009 145.117L243.455 145.193Z" fill="#E28B6D"/>
<path d="M231.158 138.807C231.774 138.19 232.498 137.691 233.294 137.336C234.125 136.955 235.036 136.78 235.949 136.827C236.878 136.886 237.77 137.214 238.518 137.769C239.226 138.3 239.811 138.977 240.233 139.756L239.879 140.03C239.298 139.497 238.668 139.021 237.996 138.608C237.352 138.237 236.632 138.015 235.891 137.959C234.411 137.846 232.907 138.431 231.436 139.161L231.158 138.807Z" fill="#102048"/>
<path d="M246.68 140.113C246.974 139.307 247.573 138.649 248.349 138.282C249.104 137.9 249.943 137.712 250.79 137.736C251.635 137.749 252.464 137.977 253.197 138.398C253.93 138.814 254.508 139.457 254.845 140.229L254.469 140.473C253.486 139.482 252.155 138.913 250.759 138.886C249.411 138.856 247.98 139.228 247.098 140.32L246.68 140.113Z" fill="#102048"/>
<path d="M236.266 158.023L246.383 158.747C246.383 158.747 240.742 166.231 236.266 158.023Z" fill="white"/>
<path opacity="0.4" d="M255.803 147.457C255.071 151.241 254.024 155.113 252.523 158.524C251.325 157.955 250.355 156.995 249.775 155.802C249.194 154.609 249.037 153.254 249.329 151.96C249.621 150.666 250.344 149.509 251.381 148.681C252.417 147.853 253.704 147.402 255.031 147.402C255.29 147.401 255.548 147.419 255.803 147.457Z" fill="#FFAA72"/>
<path opacity="0.4" d="M232.317 157.3C235.296 156.049 236.696 152.62 235.445 149.642C234.194 146.663 230.766 145.263 227.788 146.514C224.809 147.764 223.409 151.193 224.659 154.171C225.91 157.15 229.339 158.55 232.317 157.3Z" fill="#FFAA72"/>
<path d="M147.798 140.345C154.372 133.058 158.042 123.611 158.109 113.797C158.177 103.983 154.637 94.4855 148.164 87.1092C141.69 79.7329 132.733 74.9909 122.993 73.784C113.253 72.577 103.41 74.9891 95.3312 80.5621C87.2528 86.1352 81.5025 94.481 79.1724 104.015C76.8422 113.548 78.0945 123.606 82.6914 132.277C87.2884 140.948 94.9097 147.628 104.108 151.05C113.306 154.472 123.441 154.396 132.588 150.838L154.087 159.613L147.798 140.345Z" fill="white" stroke="#F4DB9D" stroke-width="3.5" stroke-miterlimit="10"/>
<path d="M100.188 118.757C102.551 118.757 104.466 116.842 104.466 114.479C104.466 112.117 102.551 110.201 100.188 110.201C97.8254 110.201 95.9102 112.117 95.9102 114.479C95.9102 116.842 97.8254 118.757 100.188 118.757Z" fill="#F4DB9D"/>
<path d="M118.071 118.757C120.433 118.757 122.349 116.842 122.349 114.479C122.349 112.117 120.433 110.201 118.071 110.201C115.708 110.201 113.793 112.117 113.793 114.479C113.793 116.842 115.708 118.757 118.071 118.757Z" fill="#F4DB9D"/>
<path d="M135.954 118.757C138.316 118.757 140.231 116.842 140.231 114.479C140.231 112.117 138.316 110.201 135.954 110.201C133.591 110.201 131.676 112.117 131.676 114.479C131.676 116.842 133.591 118.757 135.954 118.757Z" fill="#F4DB9D"/>
<path d="M250.202 0.533997H171.428C169.276 0.540439 167.214 1.39835 165.693 2.92029C164.171 4.44222 163.314 6.50445 163.309 8.65638V42.458C163.314 44.6099 164.171 46.6721 165.693 48.1941C167.214 49.716 169.276 50.5739 171.428 50.5804H178.702L190.526 68.3508L194.041 50.5804H250.202C252.354 50.5739 254.416 49.7161 255.938 48.1943C257.46 46.6724 258.318 44.6102 258.324 42.458V8.65638C258.318 6.50417 257.46 4.44195 255.938 2.9201C254.416 1.39825 252.354 0.540436 250.202 0.533997Z" fill="white" stroke="#F4DB9D" stroke-width="3.5" stroke-miterlimit="10"/>
<path d="M244.553 12.8395H177.078V16.7146H244.553V12.8395Z" fill="#F4DB9D"/>
<path d="M244.553 23.0582H177.078V26.9332H244.553V23.0582Z" fill="#C6EAE9"/>
<path d="M244.553 33.2798H177.078V37.1548H244.553V33.2798Z" fill="#C6EAE9"/>
</g>
<defs>
<clipPath id="clip0_1209_1934">
<rect width="610" height="469.549" fill="white"/>
</clipPath>
</defs>
</svg>
